  0
SECTION
  2
HEADER
  9
$ACADVER
  1
AC1024
  9
$ACADMAINTVER
 70
    63
  9
$DWGCODEPAGE
  3
ANSI_1252
  9
$INSBASE
 10
0.0
 20
0.0
 30
0.0
  9
$EXTMIN
 10
-103555.5703125
 20
-1393087.5
 30
-60971.99999999999
  9
$EXTMAX
 10
1920309.9375
 20
690320.0156249998
 30
-60959.99999999999
  9
$LIMMIN
 10
0.0
 20
0.0
  9
$LIMMAX
 10
12.0
 20
9.0
  9
$ORTHOMODE
 70
     0
  9
$REGENMODE
 70
     1
  9
$FILLMODE
 70
     1
  9
$QTEXTMODE
 70
     0
  9
$MIRRTEXT
 70
     0
  9
$LTSCALE
 40
1.0
  9
$ATTMODE
 70
     1
  9
$TEXTSIZE
 40
0.2
  9
$TRACEWID
 40
0.05
  9
$TEXTSTYLE
  7
Standard
  9
$CLAYER
  8
0
  9
$CELTYPE
  6
ByLayer
  9
$CECOLOR
 62
   256
  9
$CELTSCALE
 40
1.0
  9
$DISPSILH
 70
     0
  9
$DIMSCALE
 40
1.0
  9
$DIMASZ
 40
0.18
  9
$DIMEXO
 40
0.0625
  9
$DIMDLI
 40
0.38
  9
$DIMRND
 40
0.0
  9
$DIMDLE
 40
0.0
  9
$DIMEXE
 40
0.18
  9
$DIMTP
 40
0.0
  9
$DIMTM
 40
0.0
  9
$DIMTXT
 40
0.18
  9
$DIMCEN
 40
0.09
  9
$DIMTSZ
 40
0.0
  9
$DIMTOL
 70
     0
  9
$DIMLIM
 70
     0
  9
$DIMTIH
 70
     1
  9
$DIMTOH
 70
     1
  9
$DIMSE1
 70
     0
  9
$DIMSE2
 70
     0
  9
$DIMTAD
 70
     0
  9
$DIMZIN
 70
     0
  9
$DIMBLK
  1

  9
$DIMASO
 70
     1
  9
$DIMSHO
 70
     1
  9
$DIMPOST
  1

  9
$DIMAPOST
  1

  9
$DIMALT
 70
     0
  9
$DIMALTD
 70
     2
  9
$DIMALTF
 40
25.4
  9
$DIMLFAC
 40
1.0
  9
$DIMTOFL
 70
     0
  9
$DIMTVP
 40
0.0
  9
$DIMTIX
 70
     0
  9
$DIMSOXD
 70
     0
  9
$DIMSAH
 70
     0
  9
$DIMBLK1
  1

  9
$DIMBLK2
  1

  9
$DIMSTYLE
  2
Standard
  9
$DIMCLRD
 70
     0
  9
$DIMCLRE
 70
     0
  9
$DIMCLRT
 70
     0
  9
$DIMTFAC
 40
1.0
  9
$DIMGAP
 40
0.09
  9
$DIMJUST
 70
     0
  9
$DIMSD1
 70
     0
  9
$DIMSD2
 70
     0
  9
$DIMTOLJ
 70
     1
  9
$DIMTZIN
 70
     0
  9
$DIMALTZ
 70
     0
  9
$DIMALTTZ
 70
     0
  9
$DIMUPT
 70
     0
  9
$DIMDEC
 70
     4
  9
$DIMTDEC
 70
     4
  9
$DIMALTU
 70
     4
  9
$DIMALTTD
 70
     2
  9
$DIMTXSTY
  7
Standard
  9
$DIMAUNIT
 70
     0
  9
$DIMADEC
 70
     0
  9
$DIMALTRND
 40
0.0
  9
$DIMAZIN
 70
     0
  9
$DIMDSEP
 70
    46
  9
$DIMATFIT
 70
     3
  9
$DIMFRAC
 70
     0
  9
$DIMLDRBLK
  1

  9
$DIMLUNIT
 70
     4
  9
$DIMLWD
 70
    -2
  9
$DIMLWE
 70
    -2
  9
$DIMTMOVE
 70
     0
  9
$DIMFXL
 40
1.0
  9
$DIMFXLON
 70
     0
  9
$DIMJOGANG
 40
0.7853981633974483
  9
$DIMTFILL
 70
     0
  9
$DIMTFILLCLR
 70
     0
  9
$DIMARCSYM
 70
     0
  9
$DIMLTYPE
  6

  9
$DIMLTEX1
  6

  9
$DIMLTEX2
  6

  9
$DIMTXTDIRECTION
 70
     0
  9
$LUNITS
 70
     4
  9
$LUPREC
 70
     4
  9
$SKETCHINC
 40
0.1
  9
$FILLETRAD
 40
0.0
  9
$AUNITS
 70
     0
  9
$AUPREC
 70
     0
  9
$MENU
  1
.
  9
$ELEVATION
 40
0.0
  9
$PELEVATION
 40
0.0
  9
$THICKNESS
 40
0.0
  9
$LIMCHECK
 70
     0
  9
$CHAMFERA
 40
0.0
  9
$CHAMFERB
 40
0.0
  9
$CHAMFERC
 40
0.0
  9
$CHAMFERD
 40
0.0
  9
$SKPOLY
 70
     0
  9
$TDCREATE
 40
2456263.045300069
  9
$TDUCREATE
 40
2456263.378633403
  9
$TDUPDATE
 40
2456263.045300069
  9
$TDUUPDATE
 40
2456263.378633403
  9
$TDINDWG
 40
0.0000008218
  9
$TDUSRTIMER
 40
0.0000008218
  9
$USRTIMER
 70
     1
  9
$ANGBASE
 50
0.0
  9
$ANGDIR
 70
     0
  9
$PDMODE
 70
     0
  9
$PDSIZE
 40
0.0
  9
$PLINEWID
 40
0.0
  9
$SPLFRAME
 70
     0
  9
$SPLINETYPE
 70
     6
  9
$SPLINESEGS
 70
     8
  9
$HANDSEED
  5
29A
  9
$SURFTAB1
 70
     6
  9
$SURFTAB2
 70
     6
  9
$SURFTYPE
 70
     6
  9
$SURFU
 70
     6
  9
$SURFV
 70
     6
  9
$UCSBASE
  2

  9
$UCSNAME
  2

  9
$UCSORG
 10
0.0
 20
0.0
 30
0.0
  9
$UCSXDIR
 10
1.0
 20
0.0
 30
0.0
  9
$UCSYDIR
 10
0.0
 20
1.0
 30
0.0
  9
$UCSORTHOREF
  2

  9
$UCSORTHOVIEW
 70
     0
  9
$UCSORGTOP
 10
0.0
 20
0.0
 30
0.0
  9
$UCSORGBOTTOM
 10
0.0
 20
0.0
 30
0.0
  9
$UCSORGLEFT
 10
0.0
 20
0.0
 30
0.0
  9
$UCSORGRIGHT
 10
0.0
 20
0.0
 30
0.0
  9
$UCSORGFRONT
 10
0.0
 20
0.0
 30
0.0
  9
$UCSORGBACK
 10
0.0
 20
0.0
 30
0.0
  9
$PUCSBASE
  2

  9
$PUCSNAME
  2

  9
$PUCSORG
 10
0.0
 20
0.0
 30
0.0
  9
$PUCSXDIR
 10
1.0
 20
0.0
 30
0.0
  9
$PUCSYDIR
 10
0.0
 20
1.0
 30
0.0
  9
$PUCSORTHOREF
  2

  9
$PUCSORTHOVIEW
 70
     0
  9
$PUCSORGTOP
 10
0.0
 20
0.0
 30
0.0
  9
$PUCSORGBOTTOM
 10
0.0
 20
0.0
 30
0.0
  9
$PUCSORGLEFT
 10
0.0
 20
0.0
 30
0.0
  9
$PUCSORGRIGHT
 10
0.0
 20
0.0
 30
0.0
  9
$PUCSORGFRONT
 10
0.0
 20
0.0
 30
0.0
  9
$PUCSORGBACK
 10
0.0
 20
0.0
 30
0.0
  9
$USERI1
 70
     0
  9
$USERI2
 70
     0
  9
$USERI3
 70
     0
  9
$USERI4
 70
     0
  9
$USERI5
 70
     0
  9
$USERR1
 40
0.0
  9
$USERR2
 40
0.0
  9
$USERR3
 40
0.0
  9
$USERR4
 40
0.0
  9
$USERR5
 40
0.0
  9
$WORLDVIEW
 70
     1
  9
$SHADEDGE
 70
     3
  9
$SHADEDIF
 70
    70
  9
$TILEMODE
 70
     1
  9
$MAXACTVP
 70
    64
  9
$PINSBASE
 10
0.0
 20
0.0
 30
0.0
  9
$PLIMCHECK
 70
     0
  9
$PEXTMIN
 10
1.000000000000000E+20
 20
1.000000000000000E+20
 30
1.000000000000000E+20
  9
$PEXTMAX
 10
-1.000000000000000E+20
 20
-1.000000000000000E+20
 30
-1.000000000000000E+20
  9
$PLIMMIN
 10
0.0
 20
0.0
  9
$PLIMMAX
 10
12.0
 20
9.0
  9
$UNITMODE
 70
     0
  9
$VISRETAIN
 70
     1
  9
$PLINEGEN
 70
     0
  9
$PSLTSCALE
 70
     1
  9
$TREEDEPTH
 70
  3020
  9
$CMLSTYLE
  2
Standard
  9
$CMLJUST
 70
     0
  9
$CMLSCALE
 40
1.0
  9
$PROXYGRAPHICS
 70
     1
  9
$MEASUREMENT
 70
     0
  9
$CELWEIGHT
370
    -1
  9
$ENDCAPS
280
     0
  9
$JOINSTYLE
280
     0
  9
$LWDISPLAY
290
     0
  9
$INSUNITS
 70
     1
  9
$HYPERLINKBASE
  1

  9
$STYLESHEET
  1

  9
$XEDIT
290
     1
  9
$CEPSNTYPE
380
     0
  9
$PSTYLEMODE
290
     1
  9
$FINGERPRINTGUID
  2
{8A995AAE-9D63-47D3-B393-58D4BCB59BC7}
  9
$VERSIONGUID
  2
{A6F6066E-D0CB-4FD4-8FB0-6453781FB7F8}
  9
$EXTNAMES
290
     1
  9
$PSVPSCALE
 40
0.0
  9
$OLESTARTUP
290
     0
  9
$SORTENTS
280
   127
  9
$INDEXCTL
280
     0
  9
$HIDETEXT
280
     1
  9
$XCLIPFRAME
280
     2
  9
$HALOGAP
280
     0
  9
$OBSCOLOR
 70
   257
  9
$OBSLTYPE
280
     0
  9
$INTERSECTIONDISPLAY
280
     0
  9
$INTERSECTIONCOLOR
 70
   257
  9
$DIMASSOC
280
     2
  9
$PROJECTNAME
  1

  9
$CAMERADISPLAY
290
     0
  9
$LENSLENGTH
 40
50.0
  9
$CAMERAHEIGHT
 40
0.0
  9
$STEPSPERSEC
 40
2.0
  9
$STEPSIZE
 40
6.0
  9
$3DDWFPREC
 40
2.0
  9
$PSOLWIDTH
 40
0.25
  9
$PSOLHEIGHT
 40
4.0
  9
$LOFTANG1
 40
1.570796326794896
  9
$LOFTANG2
 40
1.570796326794896
  9
$LOFTMAG1
 40
0.0
  9
$LOFTMAG2
 40
0.0
  9
$LOFTPARAM
 70
     7
  9
$LOFTNORMALS
280
     1
  9
$LATITUDE
 40
37.795
  9
$LONGITUDE
 40
-122.394
  9
$NORTHDIRECTION
 40
0.0
  9
$TIMEZONE
 70
 -8000
  9
$LIGHTGLYPHDISPLAY
280
     1
  9
$TILEMODELIGHTSYNCH
280
     1
  9
$CMATERIAL
347
11
  9
$SOLIDHIST
280
     0
  9
$SHOWHIST
280
     1
  9
$DWFFRAME
280
     2
  9
$DGNFRAME
280
     0
  9
$REALWORLDSCALE
290
     1
  9
$INTERFERECOLOR
 62
     1
  9
$INTERFEREOBJVS
345
33
  9
$INTERFEREVPVS
346
30
  9
$CSHADOW
280
     0
  9
$SHADOWPLANELOCATION
 40
0.0
  0
ENDSEC
  0
SECTION
  2
CLASSES
  0
CLASS
  1
ACDBDICTIONARYWDFLT
  2
AcDbDictionaryWithDefault
  3
ObjectDBX Classes
 90
        0
 91
        1
280
     0
281
     0
  0
CLASS
  1
MATERIAL
  2
AcDbMaterial
  3
ObjectDBX Classes
 90
     1153
 91
        4
280
     0
281
     0
  0
CLASS
  1
VISUALSTYLE
  2
AcDbVisualStyle
  3
ObjectDBX Classes
 90
     4095
 91
       24
280
     0
281
     0
  0
CLASS
  1
SCALE
  2
AcDbScale
  3
ObjectDBX Classes
 90
     1153
 91
       17
280
     0
281
     0
  0
CLASS
  1
TABLESTYLE
  2
AcDbTableStyle
  3
ObjectDBX Classes
 90
     4095
 91
        1
280
     0
281
     0
  0
CLASS
  1
MLEADERSTYLE
  2
AcDbMLeaderStyle
  3
ACDB_MLEADERSTYLE_CLASS
 90
     4095
 91
        1
280
     0
281
     0
  0
CLASS
  1
RASTERVARIABLES
  2
AcDbRasterVariables
  3
ISM
 90
        0
 91
        1
280
     0
281
     0
  0
CLASS
  1
DICTIONARYVAR
  2
AcDbDictionaryVar
  3
ObjectDBX Classes
 90
        0
 91
        3
280
     0
281
     0
  0
CLASS
  1
CELLSTYLEMAP
  2
AcDbCellStyleMap
  3
ObjectDBX Classes
 90
     1152
 91
        2
280
     0
281
     0
  0
ENDSEC
  0
SECTION
  2
TABLES
  0
TABLE
  2
VPORT
  5
8
330
0
100
AcDbSymbolTable
 70
     1
  0
VPORT
  5
57
330
8
100
AcDbSymbolTableRecord
100
AcDbViewportTableRecord
  2
*Active
 70
     0
 10
0.0
 20
0.0
 11
1.0
 21
1.0
 12
908377.1835937499
 22
-351383.7421874999
 13
0.0
 23
0.0
 14
1.0
 24
1.0
 15
0.0
 25
0.0
 16
1647425.745599738
 26
-1431090.793180646
 36
-264786.8300674256
 17
908377.2246873429
 27
-351383.7460995832
 37
-60965.99999999361
 40
2083407.515625
 41
0.9714208538819455
 42
50.0
 43
0.0
 44
0.0
 50
0.0
 51
0.0
 71
     0
 72
  1000
 73
     1
 74
     1
 75
     0
 76
     0
 77
     0
 78
     0
281
     1
 65
     1
110
0.0
120
0.0
130
0.0
111
1.0
121
0.0
131
0.0
112
0.0
122
1.0
132
0.0
 79
     0
146
0.0
348
30
 60
     3
 61
     5
292
     1
282
     1
141
0.0
142
0.0
 63
   250
421
  3355443
  0
ENDTAB
  0
TABLE
  2
LTYPE
  5
5
330
0
100
AcDbSymbolTable
 70
     1
  0
LTYPE
  5
5B
330
5
100
AcDbSymbolTableRecord
100
AcDbLinetypeTableRecord
  2
ByBlock
 70
     0
  3

 72
    65
 73
     0
 40
0.0
  0
LTYPE
  5
5C
330
5
100
AcDbSymbolTableRecord
100
AcDbLinetypeTableRecord
  2
ByLayer
 70
     0
  3

 72
    65
 73
     0
 40
0.0
  0
LTYPE
  5
5D
330
5
100
AcDbSymbolTableRecord
100
AcDbLinetypeTableRecord
  2
Continuous
 70
     0
  3
Solid line
 72
    65
 73
     0
 40
0.0
  0
ENDTAB
  0
TABLE
  2
LAYER
  5
2
330
0
100
AcDbSymbolTable
 70
     2
  0
LAYER
  5
54
330
2
100
AcDbSymbolTableRecord
100
AcDbLayerTableRecord
  2
0
 70
     0
 62
     7
  6
Continuous
370
    -3
390
F
347
21
  0
LAYER
  5
80
330
2
100
AcDbSymbolTableRecord
100
AcDbLayerTableRecord
  2
A-FLOR-OTLN
 70
     0
 62
     6
  6
Continuous
370
    13
390
F
347
21
  0
ENDTAB
  0
TABLE
  2
STYLE
  5
3
330
0
100
AcDbSymbolTable
 70
     2
  0
STYLE
  5
55
330
3
100
AcDbSymbolTableRecord
100
AcDbTextStyleTableRecord
  2
Standard
 70
     0
 40
0.0
 41
1.0
 50
0.0
 71
     0
 42
0.2
  3
txt
  4

  0
STYLE
  5
5A
330
3
100
AcDbSymbolTableRecord
100
AcDbTextStyleTableRecord
  2
Annotative
 70
     0
 40
0.0
 41
1.0
 50
0.0
 71
     0
 42
0.2
  3
txt
  4

1001
AcadAnnotative
1000
AnnotativeData
1002
{
1070
     1
1070
     1
1002
}
  0
ENDTAB
  0
TABLE
  2
VIEW
  5
6
330
0
100
AcDbSymbolTable
 70
     1
  0
VIEW
  5
28B
330
6
100
AcDbSymbolTableRecord
100
AcDbViewTableRecord
  2
_3D_
 70
     0
 40
2400.0
 10
0.0
 20
0.0
 41
2400.0
 11
1647425.745599738
 21
-1431090.793180646
 31
-264786.8300674256
 12
908377.2246873429
 22
-351383.7460995832
 32
-60965.99999999361
 42
50.0
 43
0.0
 44
0.0
 50
0.0
 71
     0
281
     0
 72
     0
 73
     0
  0
ENDTAB
  0
TABLE
  2
UCS
  5
7
330
0
100
AcDbSymbolTable
 70
     1
  0
UCS
  5
28E
330
7
100
AcDbSymbolTableRecord
100
AcDbUCSTableRecord
  2
REVIT60-Internal
 70
     0
 10
0.0
 20
0.0
 30
0.0
 11
1.0
 21
0.0
 31
0.0
 12
0.0
 22
1.0
 32
0.0
 79
     0
146
0.0
  0
ENDTAB
  0
TABLE
  2
APPID
  5
9
330
0
100
AcDbSymbolTable
 70
     3
  0
APPID
  5
56
330
9
100
AcDbSymbolTableRecord
100
AcDbRegAppTableRecord
  2
ACAD
 70
     0
  0
APPID
  5
5E
330
9
100
AcDbSymbolTableRecord
100
AcDbRegAppTableRecord
  2
AcadAnnotative
 70
     0
  0
APPID
  5
74
330
9
100
AcDbSymbolTableRecord
100
AcDbRegAppTableRecord
  2
REVIT
 70
     0
  0
ENDTAB
  0
TABLE
  2
DIMSTYLE
  5
A
330
0
100
AcDbSymbolTable
 70
     2
100
AcDbDimStyleTable
 71
     0
  0
DIMSTYLE
105
58
330
A
100
AcDbSymbolTableRecord
100
AcDbDimStyleTableRecord
  2
Standard
 70
     0
340
55
  0
DIMSTYLE
105
59
330
A
100
AcDbSymbolTableRecord
100
AcDbDimStyleTableRecord
  2
Annotative
 70
     0
340
55
1001
AcadAnnotative
1000
AnnotativeData
1002
{
1070
     1
1070
     1
1002
}
  0
ENDTAB
  0
TABLE
  2
BLOCK_RECORD
  5
1
330
0
100
AcDbSymbolTable
 70
     1
  0
BLOCK_RECORD
  5
6C
330
1
100
AcDbSymbolTableRecord
100
AcDbBlockTableRecord
  2
*Model_Space
340
6F
 70
     0
280
     1
281
     0
  0
BLOCK_RECORD
  5
68
330
1
100
AcDbSymbolTableRecord
100
AcDbBlockTableRecord
  2
*Paper_Space
340
6B
 70
     0
280
     1
281
     0
  0
BLOCK_RECORD
  5
70
330
1
100
AcDbSymbolTableRecord
100
AcDbBlockTableRecord
  2
*Paper_Space0
340
73
 70
     0
280
     1
281
     0
  0
ENDTAB
  0
ENDSEC
  0
SECTION
  2
BLOCKS
  0
BLOCK
  5
6D
330
6C
100
AcDbEntity
  8
0
100
AcDbBlockBegin
  2
*Model_Space
 70
     0
 10
0.0
 20
0.0
 30
0.0
  3
*Model_Space
  1

  0
ENDBLK
  5
6E
330
6C
100
AcDbEntity
  8
0
100
AcDbBlockEnd
  0
BLOCK
  5
69
330
68
100
AcDbEntity
 67
     1
  8
0
100
AcDbBlockBegin
  2
*Paper_Space
 70
     0
 10
0.0
 20
0.0
 30
0.0
  3
*Paper_Space
  1

  0
ENDBLK
  5
6A
330
68
100
AcDbEntity
 67
     1
  8
0
100
AcDbBlockEnd
  0
BLOCK
  5
71
330
70
100
AcDbEntity
 67
     1
  8
0
100
AcDbBlockBegin
  2
*Paper_Space0
 70
     0
 10
0.0
 20
0.0
 30
0.0
  3
*Paper_Space0
  1

  0
ENDBLK
  5
72
330
70
100
AcDbEntity
 67
     1
  8
0
100
AcDbBlockEnd
  0
ENDSEC
  0
SECTION
  2
ENTITIES
  0
POLYLINE
  5
81
330
6C
100
AcDbEntity
  8
A-FLOR-OTLN
100
AcDbPolyFaceMesh
 66
     1
 10
0.0
 20
0.0
 30
0.0
 70
    64
 71
    51
 72
    29
1001
REVIT
1002
{
1070
     1
1000
166968
1002
}
1002
{
1070
     5
1000
226
1002
}
1002
{
1070
     4
1000
18436
1002
}
1002
{
1070
     2
1000
-2000032
1002
}
  0
VERTEX
  5
82
330
81
100
AcDbEntity
  8
A-FLOR-OTLN
100
AcDbVertex
100
AcDbPolyFaceMeshVertex
 10
1886767.125
 20
173467.08984375
 30
-60971.99999999999
 70
   192
  0
VERTEX
  5
83
330
81
100
AcDbEntity
  8
A-FLOR-OTLN
100
AcDbVertex
100
AcDbPolyFaceMeshVertex
 10
1920309.9375
 20
-1091232.09375
 30
-60971.99999999999
 70
   192
  0
VERTEX
  5
84
330
81
100
AcDbEntity
  8
A-FLOR-OTLN
100
AcDbVertex
100
AcDbPolyFaceMeshVertex
 10
469826.8593749999
 20
-1116550.40625
 30
-60971.99999999999
 70
   192
  0
VERTEX
  5
85
330
81
100
AcDbEntity
  8
A-FLOR-OTLN
100
AcDbVertex
100
AcDbPolyFaceMeshVertex
 10
469826.8593749999
 20
-1137574.40625
 30
-60971.99999999999
 70
   192
  0
VERTEX
  5
86
330
81
100
AcDbEntity
  8
A-FLOR-OTLN
100
AcDbVertex
100
AcDbPolyFaceMeshVertex
 10
210338.9296875
 20
-1137574.40625
 30
-60971.99999999999
 70
   192
  0
VERTEX
  5
87
330
81
100
AcDbEntity
  8
A-FLOR-OTLN
100
AcDbVertex
100
AcDbPolyFaceMeshVertex
 10
214798.921875
 20
-1393087.5
 30
-60971.99999999999
 70
   192
  0
VERTEX
  5
88
330
81
100
AcDbEntity
  8
A-FLOR-OTLN
100
AcDbVertex
100
AcDbPolyFaceMeshVertex
 10
-57609.14062499999
 20
-1393087.5
 30
-60971.99999999999
 70
   192
  0
VERTEX
  5
89
330
81
100
AcDbEntity
  8
A-FLOR-OTLN
100
AcDbVertex
100
AcDbPolyFaceMeshVertex
 10
-57609.14062499999
 20
-1122167.53125
 30
-60971.99999999999
 70
   192
  0
VERTEX
  5
8A
330
81
100
AcDbEntity
  8
A-FLOR-OTLN
100
AcDbVertex
100
AcDbPolyFaceMeshVertex
 10
129974.859375
 20
-1122167.53125
 30
-60971.99999999999
 70
   192
  0
VERTEX
  5
8B
330
81
100
AcDbEntity
  8
A-FLOR-OTLN
100
AcDbVertex
100
AcDbPolyFaceMeshVertex
 10
129974.859375
 20
-1023047.625
 30
-60971.99999999999
 70
   192
  0
VERTEX
  5
8C
330
81
100
AcDbEntity
  8
A-FLOR-OTLN
100
AcDbVertex
100
AcDbPolyFaceMeshVertex
 10
513588.421875
 20
-1016351.625
 30
-60971.99999999999
 70
   192
  0
VERTEX
  5
8D
330
81
100
AcDbEntity
  8
A-FLOR-OTLN
100
AcDbVertex
100
AcDbPolyFaceMeshVertex
 10
513588.421875
 20
-794063.6249999998
 30
-60971.99999999999
 70
   192
  0
VERTEX
  5
8E
330
81
100
AcDbEntity
  8
A-FLOR-OTLN
100
AcDbVertex
100
AcDbPolyFaceMeshVertex
 10
507201.890625
 20
-711654.7968749999
 30
-60971.99999999999
 70
   192
  0
VERTEX
  5
8F
330
81
100
AcDbEntity
  8
A-FLOR-OTLN
100
AcDbVertex
100
AcDbPolyFaceMeshVertex
 10
507201.890625
 20
330046.5703125
 30
-60971.99999999999
 70
   192
  0
VERTEX
  5
90
330
81
100
AcDbEntity
  8
A-FLOR-OTLN
100
AcDbVertex
100
AcDbPolyFaceMeshVertex
 10
538114.2656249998
 20
330046.5703125
 30
-60971.99999999999
 70
   192
  0
VERTEX
  5
91
330
81
100
AcDbEntity
  8
A-FLOR-OTLN
100
AcDbVertex
100
AcDbPolyFaceMeshVertex
 10
547034.7656249999
 20
414919.4531249999
 30
-60971.99999999999
 70
   192
  0
VERTEX
  5
92
330
81
100
AcDbEntity
  8
A-FLOR-OTLN
100
AcDbVertex
100
AcDbPolyFaceMeshVertex
 10
529272.4218749999
 20
355523.0390625
 30
-60971.99999999999
 70
   192
  0
VERTEX
  5
93
330
81
100
AcDbEntity
  8
A-FLOR-OTLN
100
AcDbVertex
100
AcDbPolyFaceMeshVertex
 10
286870.1015625
 20
393915.796875
 30
-60971.99999999999
 70
   192
  0
VERTEX
  5
94
330
81
100
AcDbEntity
  8
A-FLOR-OTLN
100
AcDbVertex
100
AcDbPolyFaceMeshVertex
 10
181712.4257812499
 20
404968.3125
 30
-60971.99999999999
 70
   192
  0
VERTEX
  5
95
330
81
100
AcDbEntity
  8
A-FLOR-OTLN
100
AcDbVertex
100
AcDbPolyFaceMeshVertex
 10
181712.4257812499
 20
-624825.4218749999
 30
-60971.99999999999
 70
   192
  0
VERTEX
  5
96
330
81
100
AcDbEntity
  8
A-FLOR-OTLN
100
AcDbVertex
100
AcDbPolyFaceMeshVertex
 10
486369.890625
 20
-624825.4218749999
 30
-60971.99999999999
 70
   192
  0
VERTEX
  5
97
330
81
100
AcDbEntity
  8
A-FLOR-OTLN
100
AcDbVertex
100
AcDbPolyFaceMeshVertex
 10
486369.890625
 20
-700609.4531249999
 30
-60971.99999999999
 70
   192
  0
VERTEX
  5
98
330
81
100
AcDbEntity
  8
A-FLOR-OTLN
100
AcDbVertex
100
AcDbPolyFaceMeshVertex
 10
493612.4062499999
 20
-794063.6249999998
 30
-60971.99999999999
 70
   192
  0
VERTEX
  5
99
330
81
100
AcDbEntity
  8
A-FLOR-OTLN
100
AcDbVertex
100
AcDbPolyFaceMeshVertex
 10
493612.4062499999
 20
-822919.6874999999
 30
-60971.99999999999
 70
   192
  0
VERTEX
  5
9A
330
81
100
AcDbEntity
  8
A-FLOR-OTLN
100
AcDbVertex
100
AcDbPolyFaceMeshVertex
 10
422908.4062499999
 20
-822919.6874999999
 30
-60971.99999999999
 70
   192
  0
VERTEX
  5
9B
330
81
100
AcDbEntity
  8
A-FLOR-OTLN
100
AcDbVertex
100
AcDbPolyFaceMeshVertex
 10
422908.4062499999
 20
-684007.6875
 30
-60971.99999999999
 70
   192
  0
VERTEX
  5
9C
330
81
100
AcDbEntity
  8
A-FLOR-OTLN
100
AcDbVertex
100
AcDbPolyFaceMeshVertex
 10
181712.4257812499
 20
-684007.6875
 30
-60971.99999999999
 70
   192
  0
VERTEX
  5
9D
330
81
100
AcDbEntity
  8
A-FLOR-OTLN
100
AcDbVertex
100
AcDbPolyFaceMeshVertex
 10
181712.4257812499
 20
-822919.6874999999
 30
-60971.99999999999
 70
   192
  0
VERTEX
  5
9E
330
81
100
AcDbEntity
  8
A-FLOR-OTLN
100
AcDbVertex
100
AcDbPolyFaceMeshVertex
 10
-103555.5703125
 20
-822919.6874999999
 30
-60971.99999999999
 70
   192
  0
VERTEX
  5
9F
330
81
100
AcDbEntity
  8
A-FLOR-OTLN
100
AcDbVertex
100
AcDbPolyFaceMeshVertex
 10
-103555.5703125
 20
423264.3281249999
 30
-60971.99999999999
 70
   192
  0
VERTEX
  5
A0
330
81
100
AcDbEntity
  8
A-FLOR-OTLN
100
AcDbVertex
100
AcDbPolyFaceMeshVertex
 10
-77346.99023437499
 20
423264.3281249999
 30
-60971.99999999999
 70
   192
  0
VERTEX
  5
A1
330
81
100
AcDbEntity
  8
A-FLOR-OTLN
100
AcDbVertex
100
AcDbPolyFaceMeshVertex
 10
-35049.52148437499
 20
690320.0156249998
 30
-60971.99999999999
 70
   192
  0
VERTEX
  5
A2
330
81
100
AcDbEntity
  8
A-FLOR-OTLN
100
AcDbVertex
100
AcDbPolyFaceMeshVertex
 10
235750.921875
 20
647429.4374999999
 30
-60971.99999999999
 70
   192
  0
VERTEX
  5
A3
330
81
100
AcDbEntity
  8
A-FLOR-OTLN
100
AcDbVertex
100
AcDbPolyFaceMeshVertex
 10
241531.4765625
 20
683926.4999999999
 30
-60971.99999999999
 70
   192
  0
VERTEX
  5
A4
330
81
100
AcDbEntity
  8
A-FLOR-OTLN
100
AcDbVertex
100
AcDbPolyFaceMeshVertex
 10
330565.6640625
 20
669824.90625
 30
-60971.99999999999
 70
   192
  0
VERTEX
  5
A5
330
81
100
AcDbEntity
  8
A-FLOR-OTLN
100
AcDbVertex
100
AcDbPolyFaceMeshVertex
 10
330569.6484375
 20
669824.2499999999
 30
-60971.99999999999
 70
   192
  0
VERTEX
  5
A6
330
81
100
AcDbEntity
  8
A-FLOR-OTLN
100
AcDbVertex
100
AcDbPolyFaceMeshVertex
 10
722344.4999999999
 20
610995.4218749999
 30
-60971.99999999999
 70
   192
  0
VERTEX
  5
A7
330
81
100
AcDbEntity
  8
A-FLOR-OTLN
100
AcDbVertex
100
AcDbPolyFaceMeshVertex
 10
693229.5468749998
 20
333985.3359375
 30
-60971.99999999999
 70
   192
  0
VERTEX
  5
A8
330
81
100
AcDbEntity
  8
A-FLOR-OTLN
100
AcDbVertex
100
AcDbPolyFaceMeshVertex
 10
642130.7343749998
 20
342078.5859375
 30
-60971.99999999999
 70
   192
  0
VERTEX
  5
A9
330
81
100
AcDbEntity
  8
A-FLOR-OTLN
100
AcDbVertex
100
AcDbPolyFaceMeshVertex
 10
651058.1249999998
 20
398443.96875
 30
-60971.99999999999
 70
   192
  0
VERTEX
  5
AA
330
81
100
AcDbEntity
  8
A-FLOR-OTLN
100
AcDbVertex
100
AcDbPolyFaceMeshVertex
 10
637951.265625
 20
400519.9218749999
 30
-60971.99999999999
 70
   192
  0
VERTEX
  5
AB
330
81
100
AcDbEntity
  8
A-FLOR-OTLN
100
AcDbVertex
100
AcDbPolyFaceMeshVertex
 10
624249.3749999999
 20
314009.71875
 30
-60971.99999999999
 70
   192
  0
VERTEX
  5
AC
330
81
100
AcDbEntity
  8
A-FLOR-OTLN
100
AcDbVertex
100
AcDbPolyFaceMeshVertex
 10
638851.8749999999
 20
-929204.8124999999
 30
-60971.99999999999
 70
   192
  0
VERTEX
  5
AD
330
81
100
AcDbEntity
  8
A-FLOR-OTLN
100
AcDbVertex
100
AcDbPolyFaceMeshVertex
 10
793891.8749999999
 20
-929204.8124999999
 30
-60971.99999999999
 70
   192
  0
VERTEX
  5
AE
330
81
100
AcDbEntity
  8
A-FLOR-OTLN
100
AcDbVertex
100
AcDbPolyFaceMeshVertex
 10
793891.8749999999
 20
-992996.9062499999
 30
-60971.99999999999
 70
   192
  0
VERTEX
  5
AF
330
81
100
AcDbEntity
  8
A-FLOR-OTLN
100
AcDbVertex
100
AcDbPolyFaceMeshVertex
 10
1637755.312499999
 20
-978267.1875
 30
-60971.99999999999
 70
   192
  0
VERTEX
  5
B0
330
81
100
AcDbEntity
  8
A-FLOR-OTLN
100
AcDbVertex
100
AcDbPolyFaceMeshVertex
 10
1637755.312499999
 20
-911451.2812500001
 30
-60971.99999999999
 70
   192
  0
VERTEX
  5
B1
330
81
100
AcDbEntity
  8
A-FLOR-OTLN
100
AcDbVertex
100
AcDbPolyFaceMeshVertex
 10
1792691.4375
 20
-911451.2812500001
 30
-60971.99999999999
 70
   192
  0
VERTEX
  5
B2
330
81
100
AcDbEntity
  8
A-FLOR-OTLN
100
AcDbVertex
100
AcDbPolyFaceMeshVertex
 10
1767285.9375
 20
46435.78417968749
 30
-60971.99999999999
 70
   192
  0
VERTEX
  5
B3
330
81
100
AcDbEntity
  8
A-FLOR-OTLN
100
AcDbVertex
100
AcDbPolyFaceMeshVertex
 10
1626695.25
 20
42706.98339843749
 30
-60971.99999999999
 70
   192
  0
VERTEX
  5
B4
330
81
100
AcDbEntity
  8
A-FLOR-OTLN
100
AcDbVertex
100
AcDbPolyFaceMeshVertex
 10
1626695.25
 20
173467.08984375
 30
-60971.99999999999
 70
   192
  0
VERTEX
  5
B5
330
81
100
AcDbEntity
  8
A-FLOR-OTLN
100
AcDbFaceRecord
 10
0.0
 20
0.0
 30
0.0
 70
   128
 71
    38
 72
    39
 73
   -40
 74
    37
  0
VERTEX
  5
B6
330
81
100
AcDbEntity
  8
A-FLOR-OTLN
100
AcDbFaceRecord
 10
0.0
 20
0.0
 30
0.0
 70
   128
 71
   -37
 72
    40
 73
   -41
  0
VERTEX
  5
B7
330
81
100
AcDbEntity
  8
A-FLOR-OTLN
100
AcDbFaceRecord
 10
0.0
 20
0.0
 30
0.0
 70
   128
 71
   -41
 72
    15
 73
   -16
 74
   -37
  0
VERTEX
  5
B8
330
81
100
AcDbEntity
  8
A-FLOR-OTLN
100
AcDbFaceRecord
 10
0.0
 20
0.0
 30
0.0
 70
   128
 71
   -42
 72
   -15
 73
    41
  0
VERTEX
  5
B9
330
81
100
AcDbEntity
  8
A-FLOR-OTLN
100
AcDbFaceRecord
 10
0.0
 20
0.0
 30
0.0
 70
   128
 71
   -37
 72
   -16
 73
    36
  0
VERTEX
  5
BA
330
81
100
AcDbEntity
  8
A-FLOR-OTLN
100
AcDbFaceRecord
 10
0.0
 20
0.0
 30
0.0
 70
   128
 71
    51
 72
    -1
 73
    49
 74
    50
  0
VERTEX
  5
BB
330
81
100
AcDbEntity
  8
A-FLOR-OTLN
100
AcDbFaceRecord
 10
0.0
 20
0.0
 30
0.0
 70
   128
 71
    48
 72
   -49
 73
     1
 74
    -2
  0
VERTEX
  5
BC
330
81
100
AcDbEntity
  8
A-FLOR-OTLN
100
AcDbFaceRecord
 10
0.0
 20
0.0
 30
0.0
 70
   128
 71
    14
 72
   -15
 73
   -42
 74
    13
  0
VERTEX
  5
BD
330
81
100
AcDbEntity
  8
A-FLOR-OTLN
100
AcDbFaceRecord
 10
0.0
 20
0.0
 30
0.0
 70
   128
 71
    35
 72
   -36
 73
    33
 74
    34
  0
VERTEX
  5
BE
330
81
100
AcDbEntity
  8
A-FLOR-OTLN
100
AcDbFaceRecord
 10
0.0
 20
0.0
 30
0.0
 70
   128
 71
   -19
 72
    32
 73
   -33
 74
    18
  0
VERTEX
  5
BF
330
81
100
AcDbEntity
  8
A-FLOR-OTLN
100
AcDbFaceRecord
 10
0.0
 20
0.0
 30
0.0
 70
   128
 71
   -18
 72
   -33
 73
   -36
 74
   -16
  0
VERTEX
  5
C0
330
81
100
AcDbEntity
  8
A-FLOR-OTLN
100
AcDbFaceRecord
 10
0.0
 20
0.0
 30
0.0
 70
   128
 71
   -18
 72
    16
 73
    17
  0
VERTEX
  5
C1
330
81
100
AcDbEntity
  8
A-FLOR-OTLN
100
AcDbFaceRecord
 10
0.0
 20
0.0
 30
0.0
 70
   128
 71
    19
 72
   -20
 73
    31
 74
   -32
  0
VERTEX
  5
C2
330
81
100
AcDbEntity
  8
A-FLOR-OTLN
100
AcDbFaceRecord
 10
0.0
 20
0.0
 30
0.0
 70
   128
 71
    30
 72
   -31
 73
   -20
 74
    29
  0
VERTEX
  5
C3
330
81
100
AcDbEntity
  8
A-FLOR-OTLN
100
AcDbFaceRecord
 10
0.0
 20
0.0
 30
0.0
 70
   128
 71
    20
 72
   -21
 73
    26
 74
   -27
  0
VERTEX
  5
C4
330
81
100
AcDbEntity
  8
A-FLOR-OTLN
100
AcDbFaceRecord
 10
0.0
 20
0.0
 30
0.0
 70
   128
 71
   -43
 72
    12
 73
   -13
 74
    42
  0
VERTEX
  5
C5
330
81
100
AcDbEntity
  8
A-FLOR-OTLN
100
AcDbFaceRecord
 10
0.0
 20
0.0
 30
0.0
 70
   128
 71
   -43
 72
    11
 73
   -12
  0
VERTEX
  5
C6
330
81
100
AcDbEntity
  8
A-FLOR-OTLN
100
AcDbFaceRecord
 10
0.0
 20
0.0
 30
0.0
 70
   128
 71
   -26
 72
    22
 73
   -23
 74
    25
  0
VERTEX
  5
C7
330
81
100
AcDbEntity
  8
A-FLOR-OTLN
100
AcDbFaceRecord
 10
0.0
 20
0.0
 30
0.0
 70
   128
 71
   -25
 72
    23
 73
    24
  0
VERTEX
  5
C8
330
81
100
AcDbEntity
  8
A-FLOR-OTLN
100
AcDbFaceRecord
 10
0.0
 20
0.0
 30
0.0
 70
   128
 71
    46
 72
    47
 73
   -48
 74
    -2
  0
VERTEX
  5
C9
330
81
100
AcDbEntity
  8
A-FLOR-OTLN
100
AcDbFaceRecord
 10
0.0
 20
0.0
 30
0.0
 70
   128
 71
   -45
 72
   -11
 73
    43
 74
    44
  0
VERTEX
  5
CA
330
81
100
AcDbEntity
  8
A-FLOR-OTLN
100
AcDbFaceRecord
 10
0.0
 20
0.0
 30
0.0
 70
   128
 71
    45
 72
   -46
 73
     2
 74
    -3
  0
VERTEX
  5
CB
330
81
100
AcDbEntity
  8
A-FLOR-OTLN
100
AcDbFaceRecord
 10
0.0
 20
0.0
 30
0.0
 70
   128
 71
   -26
 72
    21
 73
   -22
  0
VERTEX
  5
CC
330
81
100
AcDbEntity
  8
A-FLOR-OTLN
100
AcDbFaceRecord
 10
0.0
 20
0.0
 30
0.0
 70
   128
 71
    27
 72
    28
 73
   -29
 74
   -20
  0
VERTEX
  5
CD
330
81
100
AcDbEntity
  8
A-FLOR-OTLN
100
AcDbFaceRecord
 10
0.0
 20
0.0
 30
0.0
 70
   128
 71
     3
 72
     4
 73
    -5
  0
VERTEX
  5
CE
330
81
100
AcDbEntity
  8
A-FLOR-OTLN
100
AcDbFaceRecord
 10
0.0
 20
0.0
 30
0.0
 70
   128
 71
   -11
 72
   -45
 73
    -3
 74
    -5
  0
VERTEX
  5
CF
330
81
100
AcDbEntity
  8
A-FLOR-OTLN
100
AcDbFaceRecord
 10
0.0
 20
0.0
 30
0.0
 70
   128
 71
     9
 72
   -10
 73
     5
 74
    -6
  0
VERTEX
  5
D0
330
81
100
AcDbEntity
  8
A-FLOR-OTLN
100
AcDbFaceRecord
 10
0.0
 20
0.0
 30
0.0
 70
   128
 71
     7
 72
     8
 73
    -9
 74
     6
  0
VERTEX
  5
D1
330
81
100
AcDbEntity
  8
A-FLOR-OTLN
100
AcDbFaceRecord
 10
0.0
 20
0.0
 30
0.0
 70
   128
 71
    -5
 72
    10
 73
   -11
  0
SEQEND
  5
D2
330
81
100
AcDbEntity
  8
A-FLOR-OTLN
  0
POLYLINE
  5
D3
330
6C
100
AcDbEntity
  8
A-FLOR-OTLN
100
AcDbPolyFaceMesh
 66
     1
 10
0.0
 20
0.0
 30
0.0
 70
    64
 71
    51
 72
    30
1001
REVIT
1002
{
1070
     1
1000
166968
1002
}
1002
{
1070
     5
1000
226
1002
}
1002
{
1070
     4
1000
18436
1002
}
1002
{
1070
     2
1000
-2000032
1002
}
  0
VERTEX
  5
D4
330
D3
100
AcDbEntity
  8
A-FLOR-OTLN
100
AcDbVertex
100
AcDbPolyFaceMeshVertex
 10
1886767.125
 20
173467.08984375
 30
-60959.99999999999
 70
   192
  0
VERTEX
  5
D5
330
D3
100
AcDbEntity
  8
A-FLOR-OTLN
100
AcDbVertex
100
AcDbPolyFaceMeshVertex
 10
1626695.25
 20
173467.08984375
 30
-60959.99999999999
 70
   192
  0
VERTEX
  5
D6
330
D3
100
AcDbEntity
  8
A-FLOR-OTLN
100
AcDbVertex
100
AcDbPolyFaceMeshVertex
 10
1626695.25
 20
42706.98339843749
 30
-60959.99999999999
 70
   192
  0
VERTEX
  5
D7
330
D3
100
AcDbEntity
  8
A-FLOR-OTLN
100
AcDbVertex
100
AcDbPolyFaceMeshVertex
 10
1767285.9375
 20
46435.78417968749
 30
-60959.99999999999
 70
   192
  0
VERTEX
  5
D8
330
D3
100
AcDbEntity
  8
A-FLOR-OTLN
100
AcDbVertex
100
AcDbPolyFaceMeshVertex
 10
1792691.4375
 20
-911451.2812500001
 30
-60959.99999999999
 70
   192
  0
VERTEX
  5
D9
330
D3
100
AcDbEntity
  8
A-FLOR-OTLN
100
AcDbVertex
100
AcDbPolyFaceMeshVertex
 10
1637755.312499999
 20
-911451.2812500001
 30
-60959.99999999999
 70
   192
  0
VERTEX
  5
DA
330
D3
100
AcDbEntity
  8
A-FLOR-OTLN
100
AcDbVertex
100
AcDbPolyFaceMeshVertex
 10
1637755.312499999
 20
-978267.1875
 30
-60959.99999999999
 70
   192
  0
VERTEX
  5
DB
330
D3
100
AcDbEntity
  8
A-FLOR-OTLN
100
AcDbVertex
100
AcDbPolyFaceMeshVertex
 10
793891.8749999999
 20
-992996.9062499999
 30
-60959.99999999999
 70
   192
  0
VERTEX
  5
DC
330
D3
100
AcDbEntity
  8
A-FLOR-OTLN
100
AcDbVertex
100
AcDbPolyFaceMeshVertex
 10
793891.8749999999
 20
-929204.8124999999
 30
-60959.99999999999
 70
   192
  0
VERTEX
  5
DD
330
D3
100
AcDbEntity
  8
A-FLOR-OTLN
100
AcDbVertex
100
AcDbPolyFaceMeshVertex
 10
638851.8749999999
 20
-929204.8124999999
 30
-60959.99999999999
 70
   192
  0
VERTEX
  5
DE
330
D3
100
AcDbEntity
  8
A-FLOR-OTLN
100
AcDbVertex
100
AcDbPolyFaceMeshVertex
 10
624249.3749999999
 20
314009.71875
 30
-60959.99999999999
 70
   192
  0
VERTEX
  5
DF
330
D3
100
AcDbEntity
  8
A-FLOR-OTLN
100
AcDbVertex
100
AcDbPolyFaceMeshVertex
 10
637951.265625
 20
400519.9218749999
 30
-60959.99999999999
 70
   192
  0
VERTEX
  5
E0
330
D3
100
AcDbEntity
  8
A-FLOR-OTLN
100
AcDbVertex
100
AcDbPolyFaceMeshVertex
 10
651058.1249999998
 20
398443.96875
 30
-60959.99999999999
 70
   192
  0
VERTEX
  5
E1
330
D3
100
AcDbEntity
  8
A-FLOR-OTLN
100
AcDbVertex
100
AcDbPolyFaceMeshVertex
 10
642130.7343749998
 20
342078.5859375
 30
-60959.99999999999
 70
   192
  0
VERTEX
  5
E2
330
D3
100
AcDbEntity
  8
A-FLOR-OTLN
100
AcDbVertex
100
AcDbPolyFaceMeshVertex
 10
693229.5468749998
 20
333985.3359375
 30
-60959.99999999999
 70
   192
  0
VERTEX
  5
E3
330
D3
100
AcDbEntity
  8
A-FLOR-OTLN
100
AcDbVertex
100
AcDbPolyFaceMeshVertex
 10
722344.4999999999
 20
610995.4218749999
 30
-60959.99999999999
 70
   192
  0
VERTEX
  5
E4
330
D3
100
AcDbEntity
  8
A-FLOR-OTLN
100
AcDbVertex
100
AcDbPolyFaceMeshVertex
 10
330569.6484375
 20
669824.2499999999
 30
-60959.99999999999
 70
   192
  0
VERTEX
  5
E5
330
D3
100
AcDbEntity
  8
A-FLOR-OTLN
100
AcDbVertex
100
AcDbPolyFaceMeshVertex
 10
330565.6640625
 20
669824.90625
 30
-60959.99999999999
 70
   192
  0
VERTEX
  5
E6
330
D3
100
AcDbEntity
  8
A-FLOR-OTLN
100
AcDbVertex
100
AcDbPolyFaceMeshVertex
 10
241531.4765625
 20
683926.4999999999
 30
-60959.99999999999
 70
   192
  0
VERTEX
  5
E7
330
D3
100
AcDbEntity
  8
A-FLOR-OTLN
100
AcDbVertex
100
AcDbPolyFaceMeshVertex
 10
235750.921875
 20
647429.4374999999
 30
-60959.99999999999
 70
   192
  0
VERTEX
  5
E8
330
D3
100
AcDbEntity
  8
A-FLOR-OTLN
100
AcDbVertex
100
AcDbPolyFaceMeshVertex
 10
-35049.52148437499
 20
690320.0156249998
 30
-60959.99999999999
 70
   192
  0
VERTEX
  5
E9
330
D3
100
AcDbEntity
  8
A-FLOR-OTLN
100
AcDbVertex
100
AcDbPolyFaceMeshVertex
 10
-77346.99023437499
 20
423264.3281249999
 30
-60959.99999999999
 70
   192
  0
VERTEX
  5
EA
330
D3
100
AcDbEntity
  8
A-FLOR-OTLN
100
AcDbVertex
100
AcDbPolyFaceMeshVertex
 10
-103555.5703125
 20
423264.3281249999
 30
-60959.99999999999
 70
   192
  0
VERTEX
  5
EB
330
D3
100
AcDbEntity
  8
A-FLOR-OTLN
100
AcDbVertex
100
AcDbPolyFaceMeshVertex
 10
-103555.5703125
 20
-822919.6874999999
 30
-60959.99999999999
 70
   192
  0
VERTEX
  5
EC
330
D3
100
AcDbEntity
  8
A-FLOR-OTLN
100
AcDbVertex
100
AcDbPolyFaceMeshVertex
 10
181712.4257812499
 20
-822919.6874999999
 30
-60959.99999999999
 70
   192
  0
VERTEX
  5
ED
330
D3
100
AcDbEntity
  8
A-FLOR-OTLN
100
AcDbVertex
100
AcDbPolyFaceMeshVertex
 10
181712.4257812499
 20
-684007.6875
 30
-60959.99999999999
 70
   192
  0
VERTEX
  5
EE
330
D3
100
AcDbEntity
  8
A-FLOR-OTLN
100
AcDbVertex
100
AcDbPolyFaceMeshVertex
 10
422908.4062499999
 20
-684007.6875
 30
-60959.99999999999
 70
   192
  0
VERTEX
  5
EF
330
D3
100
AcDbEntity
  8
A-FLOR-OTLN
100
AcDbVertex
100
AcDbPolyFaceMeshVertex
 10
422908.4062499999
 20
-822919.6874999999
 30
-60959.99999999999
 70
   192
  0
VERTEX
  5
F0
330
D3
100
AcDbEntity
  8
A-FLOR-OTLN
100
AcDbVertex
100
AcDbPolyFaceMeshVertex
 10
493612.4062499999
 20
-822919.6874999999
 30
-60959.99999999999
 70
   192
  0
VERTEX
  5
F1
330
D3
100
AcDbEntity
  8
A-FLOR-OTLN
100
AcDbVertex
100
AcDbPolyFaceMeshVertex
 10
493612.4062499999
 20
-794063.6249999998
 30
-60959.99999999999
 70
   192
  0
VERTEX
  5
F2
330
D3
100
AcDbEntity
  8
A-FLOR-OTLN
100
AcDbVertex
100
AcDbPolyFaceMeshVertex
 10
486369.890625
 20
-700609.4531249999
 30
-60959.99999999999
 70
   192
  0
VERTEX
  5
F3
330
D3
100
AcDbEntity
  8
A-FLOR-OTLN
100
AcDbVertex
100
AcDbPolyFaceMeshVertex
 10
486369.890625
 20
-624825.4218749999
 30
-60959.99999999999
 70
   192
  0
VERTEX
  5
F4
330
D3
100
AcDbEntity
  8
A-FLOR-OTLN
100
AcDbVertex
100
AcDbPolyFaceMeshVertex
 10
181712.4257812499
 20
-624825.4218749999
 30
-60959.99999999999
 70
   192
  0
VERTEX
  5
F5
330
D3
100
AcDbEntity
  8
A-FLOR-OTLN
100
AcDbVertex
100
AcDbPolyFaceMeshVertex
 10
181712.4257812499
 20
404968.3125
 30
-60959.99999999999
 70
   192
  0
VERTEX
  5
F6
330
D3
100
AcDbEntity
  8
A-FLOR-OTLN
100
AcDbVertex
100
AcDbPolyFaceMeshVertex
 10
286870.1015625
 20
393915.796875
 30
-60959.99999999999
 70
   192
  0
VERTEX
  5
F7
330
D3
100
AcDbEntity
  8
A-FLOR-OTLN
100
AcDbVertex
100
AcDbPolyFaceMeshVertex
 10
529272.4218749999
 20
355523.0390625
 30
-60959.99999999999
 70
   192
  0
VERTEX
  5
F8
330
D3
100
AcDbEntity
  8
A-FLOR-OTLN
100
AcDbVertex
100
AcDbPolyFaceMeshVertex
 10
547034.7656249999
 20
414919.4531249999
 30
-60959.99999999999
 70
   192
  0
VERTEX
  5
F9
330
D3
100
AcDbEntity
  8
A-FLOR-OTLN
100
AcDbVertex
100
AcDbPolyFaceMeshVertex
 10
538114.2656249998
 20
330046.5703125
 30
-60959.99999999999
 70
   192
  0
VERTEX
  5
FA
330
D3
100
AcDbEntity
  8
A-FLOR-OTLN
100
AcDbVertex
100
AcDbPolyFaceMeshVertex
 10
507201.890625
 20
330046.5703125
 30
-60959.99999999999
 70
   192
  0
VERTEX
  5
FB
330
D3
100
AcDbEntity
  8
A-FLOR-OTLN
100
AcDbVertex
100
AcDbPolyFaceMeshVertex
 10
507201.890625
 20
-711654.7968749999
 30
-60959.99999999999
 70
   192
  0
VERTEX
  5
FC
330
D3
100
AcDbEntity
  8
A-FLOR-OTLN
100
AcDbVertex
100
AcDbPolyFaceMeshVertex
 10
513588.421875
 20
-794063.6249999998
 30
-60959.99999999999
 70
   192
  0
VERTEX
  5
FD
330
D3
100
AcDbEntity
  8
A-FLOR-OTLN
100
AcDbVertex
100
AcDbPolyFaceMeshVertex
 10
513588.421875
 20
-1016351.625
 30
-60959.99999999999
 70
   192
  0
VERTEX
  5
FE
330
D3
100
AcDbEntity
  8
A-FLOR-OTLN
100
AcDbVertex
100
AcDbPolyFaceMeshVertex
 10
129974.859375
 20
-1023047.625
 30
-60959.99999999999
 70
   192
  0
VERTEX
  5
FF
330
D3
100
AcDbEntity
  8
A-FLOR-OTLN
100
AcDbVertex
100
AcDbPolyFaceMeshVertex
 10
129974.859375
 20
-1122167.53125
 30
-60959.99999999999
 70
   192
  0
VERTEX
  5
100
330
D3
100
AcDbEntity
  8
A-FLOR-OTLN
100
AcDbVertex
100
AcDbPolyFaceMeshVertex
 10
-57609.14062499999
 20
-1122167.53125
 30
-60959.99999999999
 70
   192
  0
VERTEX
  5
101
330
D3
100
AcDbEntity
  8
A-FLOR-OTLN
100
AcDbVertex
100
AcDbPolyFaceMeshVertex
 10
-57609.14062499999
 20
-1393087.5
 30
-60959.99999999999
 70
   192
  0
VERTEX
  5
102
330
D3
100
AcDbEntity
  8
A-FLOR-OTLN
100
AcDbVertex
100
AcDbPolyFaceMeshVertex
 10
214798.921875
 20
-1393087.5
 30
-60959.99999999999
 70
   192
  0
VERTEX
  5
103
330
D3
100
AcDbEntity
  8
A-FLOR-OTLN
100
AcDbVertex
100
AcDbPolyFaceMeshVertex
 10
210338.9296875
 20
-1137574.40625
 30
-60959.99999999999
 70
   192
  0
VERTEX
  5
104
330
D3
100
AcDbEntity
  8
A-FLOR-OTLN
100
AcDbVertex
100
AcDbPolyFaceMeshVertex
 10
469826.8593749999
 20
-1137574.40625
 30
-60959.99999999999
 70
   192
  0
VERTEX
  5
105
330
D3
100
AcDbEntity
  8
A-FLOR-OTLN
100
AcDbVertex
100
AcDbPolyFaceMeshVertex
 10
469826.8593749999
 20
-1116550.40625
 30
-60959.99999999999
 70
   192
  0
VERTEX
  5
106
330
D3
100
AcDbEntity
  8
A-FLOR-OTLN
100
AcDbVertex
100
AcDbPolyFaceMeshVertex
 10
1920309.9375
 20
-1091232.09375
 30
-60959.99999999999
 70
   192
  0
VERTEX
  5
107
330
D3
100
AcDbEntity
  8
A-FLOR-OTLN
100
AcDbFaceRecord
 10
0.0
 20
0.0
 30
0.0
 70
   128
 71
    -7
 72
   -51
 73
     5
 74
     6
  0
VERTEX
  5
108
330
D3
100
AcDbEntity
  8
A-FLOR-OTLN
100
AcDbFaceRecord
 10
0.0
 20
0.0
 30
0.0
 70
   128
 71
    -5
 72
    51
 73
    -1
 74
     4
  0
VERTEX
  5
109
330
D3
100
AcDbEntity
  8
A-FLOR-OTLN
100
AcDbFaceRecord
 10
0.0
 20
0.0
 30
0.0
 70
   128
 71
    -8
 72
    50
 73
   -51
 74
     7
  0
VERTEX
  5
10A
330
D3
100
AcDbEntity
  8
A-FLOR-OTLN
100
AcDbFaceRecord
 10
0.0
 20
0.0
 30
0.0
 70
   128
 71
    -8
 72
   -10
 73
   -42
 74
   -50
  0
VERTEX
  5
10B
330
D3
100
AcDbEntity
  8
A-FLOR-OTLN
100
AcDbFaceRecord
 10
0.0
 20
0.0
 30
0.0
 70
   128
 71
    40
 72
   -41
 73
    10
 74
   -11
  0
VERTEX
  5
10C
330
D3
100
AcDbEntity
  8
A-FLOR-OTLN
100
AcDbFaceRecord
 10
0.0
 20
0.0
 30
0.0
 70
   128
 71
     9
 72
   -10
 73
     8
  0
VERTEX
  5
10D
330
D3
100
AcDbEntity
  8
A-FLOR-OTLN
100
AcDbFaceRecord
 10
0.0
 20
0.0
 30
0.0
 70
   128
 71
    28
 72
    29
 73
   -30
 74
    27
  0
VERTEX
  5
10E
330
D3
100
AcDbEntity
  8
A-FLOR-OTLN
100
AcDbFaceRecord
 10
0.0
 20
0.0
 30
0.0
 70
   128
 71
    41
 72
   -42
 73
   -10
  0
VERTEX
  5
10F
330
D3
100
AcDbEntity
  8
A-FLOR-OTLN
100
AcDbFaceRecord
 10
0.0
 20
0.0
 30
0.0
 70
   128
 71
    49
 72
   -50
 73
    48
  0
VERTEX
  5
110
330
D3
100
AcDbEntity
  8
A-FLOR-OTLN
100
AcDbFaceRecord
 10
0.0
 20
0.0
 30
0.0
 70
   128
 71
    43
 72
   -44
 73
   -48
 74
    42
  0
VERTEX
  5
111
330
D3
100
AcDbEntity
  8
A-FLOR-OTLN
100
AcDbFaceRecord
 10
0.0
 20
0.0
 30
0.0
 70
   128
 71
   -44
 72
    46
 73
    47
 74
   -48
  0
VERTEX
  5
112
330
D3
100
AcDbEntity
  8
A-FLOR-OTLN
100
AcDbFaceRecord
 10
0.0
 20
0.0
 30
0.0
 70
   128
 71
   -46
 72
    44
 73
    45
  0
VERTEX
  5
113
330
D3
100
AcDbEntity
  8
A-FLOR-OTLN
100
AcDbFaceRecord
 10
0.0
 20
0.0
 30
0.0
 70
   128
 71
   -50
 72
   -42
 73
   -48
  0
VERTEX
  5
114
330
D3
100
AcDbEntity
  8
A-FLOR-OTLN
100
AcDbFaceRecord
 10
0.0
 20
0.0
 30
0.0
 70
   128
 71
   -32
 72
   -27
 73
    31
  0
VERTEX
  5
115
330
D3
100
AcDbEntity
  8
A-FLOR-OTLN
100
AcDbFaceRecord
 10
0.0
 20
0.0
 30
0.0
 70
   128
 71
   -26
 72
    24
 73
    25
  0
VERTEX
  5
116
330
D3
100
AcDbEntity
  8
A-FLOR-OTLN
100
AcDbFaceRecord
 10
0.0
 20
0.0
 30
0.0
 70
   128
 71
   -27
 72
    30
 73
   -31
  0
VERTEX
  5
117
330
D3
100
AcDbEntity
  8
A-FLOR-OTLN
100
AcDbFaceRecord
 10
0.0
 20
0.0
 30
0.0
 70
   128
 71
    -4
 72
     1
 73
     2
 74
     3
  0
VERTEX
  5
118
330
D3
100
AcDbEntity
  8
A-FLOR-OTLN
100
AcDbFaceRecord
 10
0.0
 20
0.0
 30
0.0
 70
   128
 71
    39
 72
   -40
 73
   -11
 74
    38
  0
VERTEX
  5
119
330
D3
100
AcDbEntity
  8
A-FLOR-OTLN
100
AcDbFaceRecord
 10
0.0
 20
0.0
 30
0.0
 70
   128
 71
    13
 72
    14
 73
    15
 74
   -16
  0
VERTEX
  5
11A
330
D3
100
AcDbEntity
  8
A-FLOR-OTLN
100
AcDbFaceRecord
 10
0.0
 20
0.0
 30
0.0
 70
   128
 71
    12
 72
   -13
 73
   -16
 74
   -37
  0
VERTEX
  5
11B
330
D3
100
AcDbEntity
  8
A-FLOR-OTLN
100
AcDbFaceRecord
 10
0.0
 20
0.0
 30
0.0
 70
   128
 71
   -38
 72
    11
 73
   -12
 74
    37
  0
VERTEX
  5
11C
330
D3
100
AcDbEntity
  8
A-FLOR-OTLN
100
AcDbFaceRecord
 10
0.0
 20
0.0
 30
0.0
 70
   128
 71
   -37
 72
    35
 73
    36
  0
VERTEX
  5
11D
330
D3
100
AcDbEntity
  8
A-FLOR-OTLN
100
AcDbFaceRecord
 10
0.0
 20
0.0
 30
0.0
 70
   128
 71
   -37
 72
    16
 73
   -17
 74
   -35
  0
VERTEX
  5
11E
330
D3
100
AcDbEntity
  8
A-FLOR-OTLN
100
AcDbFaceRecord
 10
0.0
 20
0.0
 30
0.0
 70
   128
 71
   -33
 72
    23
 73
   -24
 74
   -26
  0
VERTEX
  5
11F
330
D3
100
AcDbEntity
  8
A-FLOR-OTLN
100
AcDbFaceRecord
 10
0.0
 20
0.0
 30
0.0
 70
   128
 71
   -33
 72
    26
 73
   -27
 74
    32
  0
VERTEX
  5
120
330
D3
100
AcDbEntity
  8
A-FLOR-OTLN
100
AcDbFaceRecord
 10
0.0
 20
0.0
 30
0.0
 70
   128
 71
    33
 72
   -34
 73
    22
 74
   -23
  0
VERTEX
  5
121
330
D3
100
AcDbEntity
  8
A-FLOR-OTLN
100
AcDbFaceRecord
 10
0.0
 20
0.0
 30
0.0
 70
   128
 71
    34
 72
   -35
 73
    20
 74
   -21
  0
VERTEX
  5
122
330
D3
100
AcDbEntity
  8
A-FLOR-OTLN
100
AcDbFaceRecord
 10
0.0
 20
0.0
 30
0.0
 70
   128
 71
    18
 72
    19
 73
   -20
 74
    17
  0
VERTEX
  5
123
330
D3
100
AcDbEntity
  8
A-FLOR-OTLN
100
AcDbFaceRecord
 10
0.0
 20
0.0
 30
0.0
 70
   128
 71
    21
 72
   -22
 73
   -34
  0
VERTEX
  5
124
330
D3
100
AcDbEntity
  8
A-FLOR-OTLN
100
AcDbFaceRecord
 10
0.0
 20
0.0
 30
0.0
 70
   128
 71
   -20
 72
   -35
 73
   -17
  0
SEQEND
  5
125
330
D3
100
AcDbEntity
  8
A-FLOR-OTLN
  0
POLYLINE
  5
126
330
6C
100
AcDbEntity
  8
A-FLOR-OTLN
100
AcDbPolyFaceMesh
 66
     1
 10
0.0
 20
0.0
 30
0.0
 70
    64
 71
     4
 72
     1
1001
REVIT
1002
{
1070
     1
1000
166968
1002
}
1002
{
1070
     5
1000
226
1002
}
1002
{
1070
     4
1000
18436
1002
}
1002
{
1070
     2
1000
-2000032
1002
}
  0
VERTEX
  5
127
330
126
100
AcDbEntity
  8
A-FLOR-OTLN
100
AcDbVertex
100
AcDbPolyFaceMeshVertex
 10
1920309.9375
 20
-1091232.09375
 30
-60971.99999999999
 70
   192
  0
VERTEX
  5
128
330
126
100
AcDbEntity
  8
A-FLOR-OTLN
100
AcDbVertex
100
AcDbPolyFaceMeshVertex
 10
1886767.125
 20
173467.08984375
 30
-60971.99999999999
 70
   192
  0
VERTEX
  5
129
330
126
100
AcDbEntity
  8
A-FLOR-OTLN
100
AcDbVertex
100
AcDbPolyFaceMeshVertex
 10
1886767.125
 20
173467.08984375
 30
-60959.99999999999
 70
   192
  0
VERTEX
  5
12A
330
126
100
AcDbEntity
  8
A-FLOR-OTLN
100
AcDbVertex
100
AcDbPolyFaceMeshVertex
 10
1920309.9375
 20
-1091232.09375
 30
-60959.99999999999
 70
   192
  0
VERTEX
  5
12B
330
126
100
AcDbEntity
  8
A-FLOR-OTLN
100
AcDbFaceRecord
 10
0.0
 20
0.0
 30
0.0
 70
   128
 71
     4
 72
     1
 73
     2
 74
     3
  0
SEQEND
  5
12C
330
126
100
AcDbEntity
  8
A-FLOR-OTLN
  0
POLYLINE
  5
12D
330
6C
100
AcDbEntity
  8
A-FLOR-OTLN
100
AcDbPolyFaceMesh
 66
     1
 10
0.0
 20
0.0
 30
0.0
 70
    64
 71
     4
 72
     1
1001
REVIT
1002
{
1070
     1
1000
166968
1002
}
1002
{
1070
     5
1000
226
1002
}
1002
{
1070
     4
1000
18436
1002
}
1002
{
1070
     2
1000
-2000032
1002
}
  0
VERTEX
  5
12E
330
12D
100
AcDbEntity
  8
A-FLOR-OTLN
100
AcDbVertex
100
AcDbPolyFaceMeshVertex
 10
469826.8593749999
 20
-1116550.40625
 30
-60971.99999999999
 70
   192
  0
VERTEX
  5
12F
330
12D
100
AcDbEntity
  8
A-FLOR-OTLN
100
AcDbVertex
100
AcDbPolyFaceMeshVertex
 10
1920309.9375
 20
-1091232.09375
 30
-60971.99999999999
 70
   192
  0
VERTEX
  5
130
330
12D
100
AcDbEntity
  8
A-FLOR-OTLN
100
AcDbVertex
100
AcDbPolyFaceMeshVertex
 10
1920309.9375
 20
-1091232.09375
 30
-60959.99999999999
 70
   192
  0
VERTEX
  5
131
330
12D
100
AcDbEntity
  8
A-FLOR-OTLN
100
AcDbVertex
100
AcDbPolyFaceMeshVertex
 10
469826.8593749999
 20
-1116550.40625
 30
-60959.99999999999
 70
   192
  0
VERTEX
  5
132
330
12D
100
AcDbEntity
  8
A-FLOR-OTLN
100
AcDbFaceRecord
 10
0.0
 20
0.0
 30
0.0
 70
   128
 71
     1
 72
     2
 73
     3
 74
     4
  0
SEQEND
  5
133
330
12D
100
AcDbEntity
  8
A-FLOR-OTLN
  0
POLYLINE
  5
134
330
6C
100
AcDbEntity
  8
A-FLOR-OTLN
100
AcDbPolyFaceMesh
 66
     1
 10
0.0
 20
0.0
 30
0.0
 70
    64
 71
     4
 72
     1
1001
REVIT
1002
{
1070
     1
1000
166968
1002
}
1002
{
1070
     5
1000
226
1002
}
1002
{
1070
     4
1000
18436
1002
}
1002
{
1070
     2
1000
-2000032
1002
}
  0
VERTEX
  5
135
330
134
100
AcDbEntity
  8
A-FLOR-OTLN
100
AcDbVertex
100
AcDbPolyFaceMeshVertex
 10
469826.8593749999
 20
-1137574.40625
 30
-60971.99999999999
 70
   192
  0
VERTEX
  5
136
330
134
100
AcDbEntity
  8
A-FLOR-OTLN
100
AcDbVertex
100
AcDbPolyFaceMeshVertex
 10
469826.8593749999
 20
-1116550.40625
 30
-60971.99999999999
 70
   192
  0
VERTEX
  5
137
330
134
100
AcDbEntity
  8
A-FLOR-OTLN
100
AcDbVertex
100
AcDbPolyFaceMeshVertex
 10
469826.8593749999
 20
-1116550.40625
 30
-60959.99999999999
 70
   192
  0
VERTEX
  5
138
330
134
100
AcDbEntity
  8
A-FLOR-OTLN
100
AcDbVertex
100
AcDbPolyFaceMeshVertex
 10
469826.8593749999
 20
-1137574.40625
 30
-60959.99999999999
 70
   192
  0
VERTEX
  5
139
330
134
100
AcDbEntity
  8
A-FLOR-OTLN
100
AcDbFaceRecord
 10
0.0
 20
0.0
 30
0.0
 70
   128
 71
     1
 72
     2
 73
     3
 74
     4
  0
SEQEND
  5
13A
330
134
100
AcDbEntity
  8
A-FLOR-OTLN
  0
POLYLINE
  5
13B
330
6C
100
AcDbEntity
  8
A-FLOR-OTLN
100
AcDbPolyFaceMesh
 66
     1
 10
0.0
 20
0.0
 30
0.0
 70
    64
 71
     4
 72
     1
1001
REVIT
1002
{
1070
     1
1000
166968
1002
}
1002
{
1070
     5
1000
226
1002
}
1002
{
1070
     4
1000
18436
1002
}
1002
{
1070
     2
1000
-2000032
1002
}
  0
VERTEX
  5
13C
330
13B
100
AcDbEntity
  8
A-FLOR-OTLN
100
AcDbVertex
100
AcDbPolyFaceMeshVertex
 10
210338.9296875
 20
-1137574.40625
 30
-60971.99999999999
 70
   192
  0
VERTEX
  5
13D
330
13B
100
AcDbEntity
  8
A-FLOR-OTLN
100
AcDbVertex
100
AcDbPolyFaceMeshVertex
 10
469826.8593749999
 20
-1137574.40625
 30
-60971.99999999999
 70
   192
  0
VERTEX
  5
13E
330
13B
100
AcDbEntity
  8
A-FLOR-OTLN
100
AcDbVertex
100
AcDbPolyFaceMeshVertex
 10
469826.8593749999
 20
-1137574.40625
 30
-60959.99999999999
 70
   192
  0
VERTEX
  5
13F
330
13B
100
AcDbEntity
  8
A-FLOR-OTLN
100
AcDbVertex
100
AcDbPolyFaceMeshVertex
 10
210338.9296875
 20
-1137574.40625
 30
-60959.99999999999
 70
   192
  0
VERTEX
  5
140
330
13B
100
AcDbEntity
  8
A-FLOR-OTLN
100
AcDbFaceRecord
 10
0.0
 20
0.0
 30
0.0
 70
   128
 71
     1
 72
     2
 73
     3
 74
     4
  0
SEQEND
  5
141
330
13B
100
AcDbEntity
  8
A-FLOR-OTLN
  0
POLYLINE
  5
142
330
6C
100
AcDbEntity
  8
A-FLOR-OTLN
100
AcDbPolyFaceMesh
 66
     1
 10
0.0
 20
0.0
 30
0.0
 70
    64
 71
     4
 72
     1
1001
REVIT
1002
{
1070
     1
1000
166968
1002
}
1002
{
1070
     5
1000
226
1002
}
1002
{
1070
     4
1000
18436
1002
}
1002
{
1070
     2
1000
-2000032
1002
}
  0
VERTEX
  5
143
330
142
100
AcDbEntity
  8
A-FLOR-OTLN
100
AcDbVertex
100
AcDbPolyFaceMeshVertex
 10
214798.921875
 20
-1393087.5
 30
-60971.99999999999
 70
   192
  0
VERTEX
  5
144
330
142
100
AcDbEntity
  8
A-FLOR-OTLN
100
AcDbVertex
100
AcDbPolyFaceMeshVertex
 10
210338.9296875
 20
-1137574.40625
 30
-60971.99999999999
 70
   192
  0
VERTEX
  5
145
330
142
100
AcDbEntity
  8
A-FLOR-OTLN
100
AcDbVertex
100
AcDbPolyFaceMeshVertex
 10
210338.9296875
 20
-1137574.40625
 30
-60959.99999999999
 70
   192
  0
VERTEX
  5
146
330
142
100
AcDbEntity
  8
A-FLOR-OTLN
100
AcDbVertex
100
AcDbPolyFaceMeshVertex
 10
214798.921875
 20
-1393087.5
 30
-60959.99999999999
 70
   192
  0
VERTEX
  5
147
330
142
100
AcDbEntity
  8
A-FLOR-OTLN
100
AcDbFaceRecord
 10
0.0
 20
0.0
 30
0.0
 70
   128
 71
     1
 72
     2
 73
     3
 74
     4
  0
SEQEND
  5
148
330
142
100
AcDbEntity
  8
A-FLOR-OTLN
  0
POLYLINE
  5
149
330
6C
100
AcDbEntity
  8
A-FLOR-OTLN
100
AcDbPolyFaceMesh
 66
     1
 10
0.0
 20
0.0
 30
0.0
 70
    64
 71
     4
 72
     1
1001
REVIT
1002
{
1070
     1
1000
166968
1002
}
1002
{
1070
     5
1000
226
1002
}
1002
{
1070
     4
1000
18436
1002
}
1002
{
1070
     2
1000
-2000032
1002
}
  0
VERTEX
  5
14A
330
149
100
AcDbEntity
  8
A-FLOR-OTLN
100
AcDbVertex
100
AcDbPolyFaceMeshVertex
 10
-57609.14062499999
 20
-1393087.5
 30
-60971.99999999999
 70
   192
  0
VERTEX
  5
14B
330
149
100
AcDbEntity
  8
A-FLOR-OTLN
100
AcDbVertex
100
AcDbPolyFaceMeshVertex
 10
214798.921875
 20
-1393087.5
 30
-60971.99999999999
 70
   192
  0
VERTEX
  5
14C
330
149
100
AcDbEntity
  8
A-FLOR-OTLN
100
AcDbVertex
100
AcDbPolyFaceMeshVertex
 10
214798.921875
 20
-1393087.5
 30
-60959.99999999999
 70
   192
  0
VERTEX
  5
14D
330
149
100
AcDbEntity
  8
A-FLOR-OTLN
100
AcDbVertex
100
AcDbPolyFaceMeshVertex
 10
-57609.14062499999
 20
-1393087.5
 30
-60959.99999999999
 70
   192
  0
VERTEX
  5
14E
330
149
100
AcDbEntity
  8
A-FLOR-OTLN
100
AcDbFaceRecord
 10
0.0
 20
0.0
 30
0.0
 70
   128
 71
     1
 72
     2
 73
     3
 74
     4
  0
SEQEND
  5
14F
330
149
100
AcDbEntity
  8
A-FLOR-OTLN
  0
POLYLINE
  5
150
330
6C
100
AcDbEntity
  8
A-FLOR-OTLN
100
AcDbPolyFaceMesh
 66
     1
 10
0.0
 20
0.0
 30
0.0
 70
    64
 71
     4
 72
     1
1001
REVIT
1002
{
1070
     1
1000
166968
1002
}
1002
{
1070
     5
1000
226
1002
}
1002
{
1070
     4
1000
18436
1002
}
1002
{
1070
     2
1000
-2000032
1002
}
  0
VERTEX
  5
151
330
150
100
AcDbEntity
  8
A-FLOR-OTLN
100
AcDbVertex
100
AcDbPolyFaceMeshVertex
 10
-57609.14062499999
 20
-1122167.53125
 30
-60971.99999999999
 70
   192
  0
VERTEX
  5
152
330
150
100
AcDbEntity
  8
A-FLOR-OTLN
100
AcDbVertex
100
AcDbPolyFaceMeshVertex
 10
-57609.14062499999
 20
-1393087.5
 30
-60971.99999999999
 70
   192
  0
VERTEX
  5
153
330
150
100
AcDbEntity
  8
A-FLOR-OTLN
100
AcDbVertex
100
AcDbPolyFaceMeshVertex
 10
-57609.14062499999
 20
-1393087.5
 30
-60959.99999999999
 70
   192
  0
VERTEX
  5
154
330
150
100
AcDbEntity
  8
A-FLOR-OTLN
100
AcDbVertex
100
AcDbPolyFaceMeshVertex
 10
-57609.14062499999
 20
-1122167.53125
 30
-60959.99999999999
 70
   192
  0
VERTEX
  5
155
330
150
100
AcDbEntity
  8
A-FLOR-OTLN
100
AcDbFaceRecord
 10
0.0
 20
0.0
 30
0.0
 70
   128
 71
     1
 72
     2
 73
     3
 74
     4
  0
SEQEND
  5
156
330
150
100
AcDbEntity
  8
A-FLOR-OTLN
  0
POLYLINE
  5
157
330
6C
100
AcDbEntity
  8
A-FLOR-OTLN
100
AcDbPolyFaceMesh
 66
     1
 10
0.0
 20
0.0
 30
0.0
 70
    64
 71
     4
 72
     1
1001
REVIT
1002
{
1070
     1
1000
166968
1002
}
1002
{
1070
     5
1000
226
1002
}
1002
{
1070
     4
1000
18436
1002
}
1002
{
1070
     2
1000
-2000032
1002
}
  0
VERTEX
  5
158
330
157
100
AcDbEntity
  8
A-FLOR-OTLN
100
AcDbVertex
100
AcDbPolyFaceMeshVertex
 10
129974.859375
 20
-1122167.53125
 30
-60971.99999999999
 70
   192
  0
VERTEX
  5
159
330
157
100
AcDbEntity
  8
A-FLOR-OTLN
100
AcDbVertex
100
AcDbPolyFaceMeshVertex
 10
-57609.14062499999
 20
-1122167.53125
 30
-60971.99999999999
 70
   192
  0
VERTEX
  5
15A
330
157
100
AcDbEntity
  8
A-FLOR-OTLN
100
AcDbVertex
100
AcDbPolyFaceMeshVertex
 10
-57609.14062499999
 20
-1122167.53125
 30
-60959.99999999999
 70
   192
  0
VERTEX
  5
15B
330
157
100
AcDbEntity
  8
A-FLOR-OTLN
100
AcDbVertex
100
AcDbPolyFaceMeshVertex
 10
129974.859375
 20
-1122167.53125
 30
-60959.99999999999
 70
   192
  0
VERTEX
  5
15C
330
157
100
AcDbEntity
  8
A-FLOR-OTLN
100
AcDbFaceRecord
 10
0.0
 20
0.0
 30
0.0
 70
   128
 71
     1
 72
     2
 73
     3
 74
     4
  0
SEQEND
  5
15D
330
157
100
AcDbEntity
  8
A-FLOR-OTLN
  0
POLYLINE
  5
15E
330
6C
100
AcDbEntity
  8
A-FLOR-OTLN
100
AcDbPolyFaceMesh
 66
     1
 10
0.0
 20
0.0
 30
0.0
 70
    64
 71
     4
 72
     1
1001
REVIT
1002
{
1070
     1
1000
166968
1002
}
1002
{
1070
     5
1000
226
1002
}
1002
{
1070
     4
1000
18436
1002
}
1002
{
1070
     2
1000
-2000032
1002
}
  0
VERTEX
  5
15F
330
15E
100
AcDbEntity
  8
A-FLOR-OTLN
100
AcDbVertex
100
AcDbPolyFaceMeshVertex
 10
129974.859375
 20
-1023047.625
 30
-60971.99999999999
 70
   192
  0
VERTEX
  5
160
330
15E
100
AcDbEntity
  8
A-FLOR-OTLN
100
AcDbVertex
100
AcDbPolyFaceMeshVertex
 10
129974.859375
 20
-1122167.53125
 30
-60971.99999999999
 70
   192
  0
VERTEX
  5
161
330
15E
100
AcDbEntity
  8
A-FLOR-OTLN
100
AcDbVertex
100
AcDbPolyFaceMeshVertex
 10
129974.859375
 20
-1122167.53125
 30
-60959.99999999999
 70
   192
  0
VERTEX
  5
162
330
15E
100
AcDbEntity
  8
A-FLOR-OTLN
100
AcDbVertex
100
AcDbPolyFaceMeshVertex
 10
129974.859375
 20
-1023047.625
 30
-60959.99999999999
 70
   192
  0
VERTEX
  5
163
330
15E
100
AcDbEntity
  8
A-FLOR-OTLN
100
AcDbFaceRecord
 10
0.0
 20
0.0
 30
0.0
 70
   128
 71
     1
 72
     2
 73
     3
 74
     4
  0
SEQEND
  5
164
330
15E
100
AcDbEntity
  8
A-FLOR-OTLN
  0
POLYLINE
  5
165
330
6C
100
AcDbEntity
  8
A-FLOR-OTLN
100
AcDbPolyFaceMesh
 66
     1
 10
0.0
 20
0.0
 30
0.0
 70
    64
 71
     4
 72
     1
1001
REVIT
1002
{
1070
     1
1000
166968
1002
}
1002
{
1070
     5
1000
226
1002
}
1002
{
1070
     4
1000
18436
1002
}
1002
{
1070
     2
1000
-2000032
1002
}
  0
VERTEX
  5
166
330
165
100
AcDbEntity
  8
A-FLOR-OTLN
100
AcDbVertex
100
AcDbPolyFaceMeshVertex
 10
513588.421875
 20
-1016351.625
 30
-60971.99999999999
 70
   192
  0
VERTEX
  5
167
330
165
100
AcDbEntity
  8
A-FLOR-OTLN
100
AcDbVertex
100
AcDbPolyFaceMeshVertex
 10
129974.859375
 20
-1023047.625
 30
-60971.99999999999
 70
   192
  0
VERTEX
  5
168
330
165
100
AcDbEntity
  8
A-FLOR-OTLN
100
AcDbVertex
100
AcDbPolyFaceMeshVertex
 10
129974.859375
 20
-1023047.625
 30
-60959.99999999999
 70
   192
  0
VERTEX
  5
169
330
165
100
AcDbEntity
  8
A-FLOR-OTLN
100
AcDbVertex
100
AcDbPolyFaceMeshVertex
 10
513588.421875
 20
-1016351.625
 30
-60959.99999999999
 70
   192
  0
VERTEX
  5
16A
330
165
100
AcDbEntity
  8
A-FLOR-OTLN
100
AcDbFaceRecord
 10
0.0
 20
0.0
 30
0.0
 70
   128
 71
     4
 72
     1
 73
     2
 74
     3
  0
SEQEND
  5
16B
330
165
100
AcDbEntity
  8
A-FLOR-OTLN
  0
POLYLINE
  5
16C
330
6C
100
AcDbEntity
  8
A-FLOR-OTLN
100
AcDbPolyFaceMesh
 66
     1
 10
0.0
 20
0.0
 30
0.0
 70
    64
 71
     4
 72
     1
1001
REVIT
1002
{
1070
     1
1000
166968
1002
}
1002
{
1070
     5
1000
226
1002
}
1002
{
1070
     4
1000
18436
1002
}
1002
{
1070
     2
1000
-2000032
1002
}
  0
VERTEX
  5
16D
330
16C
100
AcDbEntity
  8
A-FLOR-OTLN
100
AcDbVertex
100
AcDbPolyFaceMeshVertex
 10
513588.421875
 20
-794063.6249999998
 30
-60971.99999999999
 70
   192
  0
VERTEX
  5
16E
330
16C
100
AcDbEntity
  8
A-FLOR-OTLN
100
AcDbVertex
100
AcDbPolyFaceMeshVertex
 10
513588.421875
 20
-1016351.625
 30
-60971.99999999999
 70
   192
  0
VERTEX
  5
16F
330
16C
100
AcDbEntity
  8
A-FLOR-OTLN
100
AcDbVertex
100
AcDbPolyFaceMeshVertex
 10
513588.421875
 20
-1016351.625
 30
-60959.99999999999
 70
   192
  0
VERTEX
  5
170
330
16C
100
AcDbEntity
  8
A-FLOR-OTLN
100
AcDbVertex
100
AcDbPolyFaceMeshVertex
 10
513588.421875
 20
-794063.6249999998
 30
-60959.99999999999
 70
   192
  0
VERTEX
  5
171
330
16C
100
AcDbEntity
  8
A-FLOR-OTLN
100
AcDbFaceRecord
 10
0.0
 20
0.0
 30
0.0
 70
   128
 71
     1
 72
     2
 73
     3
 74
     4
  0
SEQEND
  5
172
330
16C
100
AcDbEntity
  8
A-FLOR-OTLN
  0
POLYLINE
  5
173
330
6C
100
AcDbEntity
  8
A-FLOR-OTLN
100
AcDbPolyFaceMesh
 66
     1
 10
0.0
 20
0.0
 30
0.0
 70
    64
 71
     4
 72
     1
1001
REVIT
1002
{
1070
     1
1000
166968
1002
}
1002
{
1070
     5
1000
226
1002
}
1002
{
1070
     4
1000
18436
1002
}
1002
{
1070
     2
1000
-2000032
1002
}
  0
VERTEX
  5
174
330
173
100
AcDbEntity
  8
A-FLOR-OTLN
100
AcDbVertex
100
AcDbPolyFaceMeshVertex
 10
493612.4062499999
 20
-822919.6874999999
 30
-60971.99999999999
 70
   192
  0
VERTEX
  5
175
330
173
100
AcDbEntity
  8
A-FLOR-OTLN
100
AcDbVertex
100
AcDbPolyFaceMeshVertex
 10
493612.4062499999
 20
-794063.6249999998
 30
-60971.99999999999
 70
   192
  0
VERTEX
  5
176
330
173
100
AcDbEntity
  8
A-FLOR-OTLN
100
AcDbVertex
100
AcDbPolyFaceMeshVertex
 10
493612.4062499999
 20
-794063.6249999998
 30
-60959.99999999999
 70
   192
  0
VERTEX
  5
177
330
173
100
AcDbEntity
  8
A-FLOR-OTLN
100
AcDbVertex
100
AcDbPolyFaceMeshVertex
 10
493612.4062499999
 20
-822919.6874999999
 30
-60959.99999999999
 70
   192
  0
VERTEX
  5
178
330
173
100
AcDbEntity
  8
A-FLOR-OTLN
100
AcDbFaceRecord
 10
0.0
 20
0.0
 30
0.0
 70
   128
 71
     1
 72
     2
 73
     3
 74
     4
  0
SEQEND
  5
179
330
173
100
AcDbEntity
  8
A-FLOR-OTLN
  0
POLYLINE
  5
17A
330
6C
100
AcDbEntity
  8
A-FLOR-OTLN
100
AcDbPolyFaceMesh
 66
     1
 10
0.0
 20
0.0
 30
0.0
 70
    64
 71
     4
 72
     1
1001
REVIT
1002
{
1070
     1
1000
166968
1002
}
1002
{
1070
     5
1000
226
1002
}
1002
{
1070
     4
1000
18436
1002
}
1002
{
1070
     2
1000
-2000032
1002
}
  0
VERTEX
  5
17B
330
17A
100
AcDbEntity
  8
A-FLOR-OTLN
100
AcDbVertex
100
AcDbPolyFaceMeshVertex
 10
422908.4062499999
 20
-822919.6874999999
 30
-60971.99999999999
 70
   192
  0
VERTEX
  5
17C
330
17A
100
AcDbEntity
  8
A-FLOR-OTLN
100
AcDbVertex
100
AcDbPolyFaceMeshVertex
 10
493612.4062499999
 20
-822919.6874999999
 30
-60971.99999999999
 70
   192
  0
VERTEX
  5
17D
330
17A
100
AcDbEntity
  8
A-FLOR-OTLN
100
AcDbVertex
100
AcDbPolyFaceMeshVertex
 10
493612.4062499999
 20
-822919.6874999999
 30
-60959.99999999999
 70
   192
  0
VERTEX
  5
17E
330
17A
100
AcDbEntity
  8
A-FLOR-OTLN
100
AcDbVertex
100
AcDbPolyFaceMeshVertex
 10
422908.4062499999
 20
-822919.6874999999
 30
-60959.99999999999
 70
   192
  0
VERTEX
  5
17F
330
17A
100
AcDbEntity
  8
A-FLOR-OTLN
100
AcDbFaceRecord
 10
0.0
 20
0.0
 30
0.0
 70
   128
 71
     1
 72
     2
 73
     3
 74
     4
  0
SEQEND
  5
180
330
17A
100
AcDbEntity
  8
A-FLOR-OTLN
  0
POLYLINE
  5
181
330
6C
100
AcDbEntity
  8
A-FLOR-OTLN
100
AcDbPolyFaceMesh
 66
     1
 10
0.0
 20
0.0
 30
0.0
 70
    64
 71
     4
 72
     1
1001
REVIT
1002
{
1070
     1
1000
166968
1002
}
1002
{
1070
     5
1000
226
1002
}
1002
{
1070
     4
1000
18436
1002
}
1002
{
1070
     2
1000
-2000032
1002
}
  0
VERTEX
  5
182
330
181
100
AcDbEntity
  8
A-FLOR-OTLN
100
AcDbVertex
100
AcDbPolyFaceMeshVertex
 10
422908.4062499999
 20
-684007.6875
 30
-60971.99999999999
 70
   192
  0
VERTEX
  5
183
330
181
100
AcDbEntity
  8
A-FLOR-OTLN
100
AcDbVertex
100
AcDbPolyFaceMeshVertex
 10
422908.4062499999
 20
-822919.6874999999
 30
-60971.99999999999
 70
   192
  0
VERTEX
  5
184
330
181
100
AcDbEntity
  8
A-FLOR-OTLN
100
AcDbVertex
100
AcDbPolyFaceMeshVertex
 10
422908.4062499999
 20
-822919.6874999999
 30
-60959.99999999999
 70
   192
  0
VERTEX
  5
185
330
181
100
AcDbEntity
  8
A-FLOR-OTLN
100
AcDbVertex
100
AcDbPolyFaceMeshVertex
 10
422908.4062499999
 20
-684007.6875
 30
-60959.99999999999
 70
   192
  0
VERTEX
  5
186
330
181
100
AcDbEntity
  8
A-FLOR-OTLN
100
AcDbFaceRecord
 10
0.0
 20
0.0
 30
0.0
 70
   128
 71
     1
 72
     2
 73
     3
 74
     4
  0
SEQEND
  5
187
330
181
100
AcDbEntity
  8
A-FLOR-OTLN
  0
POLYLINE
  5
188
330
6C
100
AcDbEntity
  8
A-FLOR-OTLN
100
AcDbPolyFaceMesh
 66
     1
 10
0.0
 20
0.0
 30
0.0
 70
    64
 71
     4
 72
     1
1001
REVIT
1002
{
1070
     1
1000
166968
1002
}
1002
{
1070
     5
1000
226
1002
}
1002
{
1070
     4
1000
18436
1002
}
1002
{
1070
     2
1000
-2000032
1002
}
  0
VERTEX
  5
189
330
188
100
AcDbEntity
  8
A-FLOR-OTLN
100
AcDbVertex
100
AcDbPolyFaceMeshVertex
 10
181712.4257812499
 20
-684007.6875
 30
-60971.99999999999
 70
   192
  0
VERTEX
  5
18A
330
188
100
AcDbEntity
  8
A-FLOR-OTLN
100
AcDbVertex
100
AcDbPolyFaceMeshVertex
 10
422908.4062499999
 20
-684007.6875
 30
-60971.99999999999
 70
   192
  0
VERTEX
  5
18B
330
188
100
AcDbEntity
  8
A-FLOR-OTLN
100
AcDbVertex
100
AcDbPolyFaceMeshVertex
 10
422908.4062499999
 20
-684007.6875
 30
-60959.99999999999
 70
   192
  0
VERTEX
  5
18C
330
188
100
AcDbEntity
  8
A-FLOR-OTLN
100
AcDbVertex
100
AcDbPolyFaceMeshVertex
 10
181712.4257812499
 20
-684007.6875
 30
-60959.99999999999
 70
   192
  0
VERTEX
  5
18D
330
188
100
AcDbEntity
  8
A-FLOR-OTLN
100
AcDbFaceRecord
 10
0.0
 20
0.0
 30
0.0
 70
   128
 71
     4
 72
     1
 73
     2
 74
     3
  0
SEQEND
  5
18E
330
188
100
AcDbEntity
  8
A-FLOR-OTLN
  0
POLYLINE
  5
18F
330
6C
100
AcDbEntity
  8
A-FLOR-OTLN
100
AcDbPolyFaceMesh
 66
     1
 10
0.0
 20
0.0
 30
0.0
 70
    64
 71
     4
 72
     1
1001
REVIT
1002
{
1070
     1
1000
166968
1002
}
1002
{
1070
     5
1000
226
1002
}
1002
{
1070
     4
1000
18436
1002
}
1002
{
1070
     2
1000
-2000032
1002
}
  0
VERTEX
  5
190
330
18F
100
AcDbEntity
  8
A-FLOR-OTLN
100
AcDbVertex
100
AcDbPolyFaceMeshVertex
 10
181712.4257812499
 20
-822919.6874999999
 30
-60971.99999999999
 70
   192
  0
VERTEX
  5
191
330
18F
100
AcDbEntity
  8
A-FLOR-OTLN
100
AcDbVertex
100
AcDbPolyFaceMeshVertex
 10
181712.4257812499
 20
-684007.6875
 30
-60971.99999999999
 70
   192
  0
VERTEX
  5
192
330
18F
100
AcDbEntity
  8
A-FLOR-OTLN
100
AcDbVertex
100
AcDbPolyFaceMeshVertex
 10
181712.4257812499
 20
-684007.6875
 30
-60959.99999999999
 70
   192
  0
VERTEX
  5
193
330
18F
100
AcDbEntity
  8
A-FLOR-OTLN
100
AcDbVertex
100
AcDbPolyFaceMeshVertex
 10
181712.4257812499
 20
-822919.6874999999
 30
-60959.99999999999
 70
   192
  0
VERTEX
  5
194
330
18F
100
AcDbEntity
  8
A-FLOR-OTLN
100
AcDbFaceRecord
 10
0.0
 20
0.0
 30
0.0
 70
   128
 71
     1
 72
     2
 73
     3
 74
     4
  0
SEQEND
  5
195
330
18F
100
AcDbEntity
  8
A-FLOR-OTLN
  0
POLYLINE
  5
196
330
6C
100
AcDbEntity
  8
A-FLOR-OTLN
100
AcDbPolyFaceMesh
 66
     1
 10
0.0
 20
0.0
 30
0.0
 70
    64
 71
     4
 72
     1
1001
REVIT
1002
{
1070
     1
1000
166968
1002
}
1002
{
1070
     5
1000
226
1002
}
1002
{
1070
     4
1000
18436
1002
}
1002
{
1070
     2
1000
-2000032
1002
}
  0
VERTEX
  5
197
330
196
100
AcDbEntity
  8
A-FLOR-OTLN
100
AcDbVertex
100
AcDbPolyFaceMeshVertex
 10
-103555.5703125
 20
-822919.6874999999
 30
-60971.99999999999
 70
   192
  0
VERTEX
  5
198
330
196
100
AcDbEntity
  8
A-FLOR-OTLN
100
AcDbVertex
100
AcDbPolyFaceMeshVertex
 10
181712.4257812499
 20
-822919.6874999999
 30
-60971.99999999999
 70
   192
  0
VERTEX
  5
199
330
196
100
AcDbEntity
  8
A-FLOR-OTLN
100
AcDbVertex
100
AcDbPolyFaceMeshVertex
 10
181712.4257812499
 20
-822919.6874999999
 30
-60959.99999999999
 70
   192
  0
VERTEX
  5
19A
330
196
100
AcDbEntity
  8
A-FLOR-OTLN
100
AcDbVertex
100
AcDbPolyFaceMeshVertex
 10
-103555.5703125
 20
-822919.6874999999
 30
-60959.99999999999
 70
   192
  0
VERTEX
  5
19B
330
196
100
AcDbEntity
  8
A-FLOR-OTLN
100
AcDbFaceRecord
 10
0.0
 20
0.0
 30
0.0
 70
   128
 71
     4
 72
     1
 73
     2
 74
     3
  0
SEQEND
  5
19C
330
196
100
AcDbEntity
  8
A-FLOR-OTLN
  0
POLYLINE
  5
19D
330
6C
100
AcDbEntity
  8
A-FLOR-OTLN
100
AcDbPolyFaceMesh
 66
     1
 10
0.0
 20
0.0
 30
0.0
 70
    64
 71
     4
 72
     1
1001
REVIT
1002
{
1070
     1
1000
166968
1002
}
1002
{
1070
     5
1000
226
1002
}
1002
{
1070
     4
1000
18436
1002
}
1002
{
1070
     2
1000
-2000032
1002
}
  0
VERTEX
  5
19E
330
19D
100
AcDbEntity
  8
A-FLOR-OTLN
100
AcDbVertex
100
AcDbPolyFaceMeshVertex
 10
-103555.5703125
 20
423264.3281249999
 30
-60971.99999999999
 70
   192
  0
VERTEX
  5
19F
330
19D
100
AcDbEntity
  8
A-FLOR-OTLN
100
AcDbVertex
100
AcDbPolyFaceMeshVertex
 10
-103555.5703125
 20
-822919.6874999999
 30
-60971.99999999999
 70
   192
  0
VERTEX
  5
1A0
330
19D
100
AcDbEntity
  8
A-FLOR-OTLN
100
AcDbVertex
100
AcDbPolyFaceMeshVertex
 10
-103555.5703125
 20
-822919.6874999999
 30
-60959.99999999999
 70
   192
  0
VERTEX
  5
1A1
330
19D
100
AcDbEntity
  8
A-FLOR-OTLN
100
AcDbVertex
100
AcDbPolyFaceMeshVertex
 10
-103555.5703125
 20
423264.3281249999
 30
-60959.99999999999
 70
   192
  0
VERTEX
  5
1A2
330
19D
100
AcDbEntity
  8
A-FLOR-OTLN
100
AcDbFaceRecord
 10
0.0
 20
0.0
 30
0.0
 70
   128
 71
     1
 72
     2
 73
     3
 74
     4
  0
SEQEND
  5
1A3
330
19D
100
AcDbEntity
  8
A-FLOR-OTLN
  0
POLYLINE
  5
1A4
330
6C
100
AcDbEntity
  8
A-FLOR-OTLN
100
AcDbPolyFaceMesh
 66
     1
 10
0.0
 20
0.0
 30
0.0
 70
    64
 71
     4
 72
     1
1001
REVIT
1002
{
1070
     1
1000
166968
1002
}
1002
{
1070
     5
1000
226
1002
}
1002
{
1070
     4
1000
18436
1002
}
1002
{
1070
     2
1000
-2000032
1002
}
  0
VERTEX
  5
1A5
330
1A4
100
AcDbEntity
  8
A-FLOR-OTLN
100
AcDbVertex
100
AcDbPolyFaceMeshVertex
 10
-77346.99023437499
 20
423264.3281249999
 30
-60971.99999999999
 70
   192
  0
VERTEX
  5
1A6
330
1A4
100
AcDbEntity
  8
A-FLOR-OTLN
100
AcDbVertex
100
AcDbPolyFaceMeshVertex
 10
-103555.5703125
 20
423264.3281249999
 30
-60971.99999999999
 70
   192
  0
VERTEX
  5
1A7
330
1A4
100
AcDbEntity
  8
A-FLOR-OTLN
100
AcDbVertex
100
AcDbPolyFaceMeshVertex
 10
-103555.5703125
 20
423264.3281249999
 30
-60959.99999999999
 70
   192
  0
VERTEX
  5
1A8
330
1A4
100
AcDbEntity
  8
A-FLOR-OTLN
100
AcDbVertex
100
AcDbPolyFaceMeshVertex
 10
-77346.99023437499
 20
423264.3281249999
 30
-60959.99999999999
 70
   192
  0
VERTEX
  5
1A9
330
1A4
100
AcDbEntity
  8
A-FLOR-OTLN
100
AcDbFaceRecord
 10
0.0
 20
0.0
 30
0.0
 70
   128
 71
     1
 72
     2
 73
     3
 74
     4
  0
SEQEND
  5
1AA
330
1A4
100
AcDbEntity
  8
A-FLOR-OTLN
  0
POLYLINE
  5
1AB
330
6C
100
AcDbEntity
  8
A-FLOR-OTLN
100
AcDbPolyFaceMesh
 66
     1
 10
0.0
 20
0.0
 30
0.0
 70
    64
 71
     4
 72
     1
1001
REVIT
1002
{
1070
     1
1000
166968
1002
}
1002
{
1070
     5
1000
226
1002
}
1002
{
1070
     4
1000
18436
1002
}
1002
{
1070
     2
1000
-2000032
1002
}
  0
VERTEX
  5
1AC
330
1AB
100
AcDbEntity
  8
A-FLOR-OTLN
100
AcDbVertex
100
AcDbPolyFaceMeshVertex
 10
-35049.52148437499
 20
690320.0156249998
 30
-60971.99999999999
 70
   192
  0
VERTEX
  5
1AD
330
1AB
100
AcDbEntity
  8
A-FLOR-OTLN
100
AcDbVertex
100
AcDbPolyFaceMeshVertex
 10
-77346.99023437499
 20
423264.3281249999
 30
-60971.99999999999
 70
   192
  0
VERTEX
  5
1AE
330
1AB
100
AcDbEntity
  8
A-FLOR-OTLN
100
AcDbVertex
100
AcDbPolyFaceMeshVertex
 10
-77346.99023437499
 20
423264.3281249999
 30
-60959.99999999999
 70
   192
  0
VERTEX
  5
1AF
330
1AB
100
AcDbEntity
  8
A-FLOR-OTLN
100
AcDbVertex
100
AcDbPolyFaceMeshVertex
 10
-35049.52148437499
 20
690320.0156249998
 30
-60959.99999999999
 70
   192
  0
VERTEX
  5
1B0
330
1AB
100
AcDbEntity
  8
A-FLOR-OTLN
100
AcDbFaceRecord
 10
0.0
 20
0.0
 30
0.0
 70
   128
 71
     1
 72
     2
 73
     3
 74
     4
  0
SEQEND
  5
1B1
330
1AB
100
AcDbEntity
  8
A-FLOR-OTLN
  0
POLYLINE
  5
1B2
330
6C
100
AcDbEntity
  8
A-FLOR-OTLN
100
AcDbPolyFaceMesh
 66
     1
 10
0.0
 20
0.0
 30
0.0
 70
    64
 71
     4
 72
     1
1001
REVIT
1002
{
1070
     1
1000
166968
1002
}
1002
{
1070
     5
1000
226
1002
}
1002
{
1070
     4
1000
18436
1002
}
1002
{
1070
     2
1000
-2000032
1002
}
  0
VERTEX
  5
1B3
330
1B2
100
AcDbEntity
  8
A-FLOR-OTLN
100
AcDbVertex
100
AcDbPolyFaceMeshVertex
 10
235750.921875
 20
647429.4374999999
 30
-60971.99999999999
 70
   192
  0
VERTEX
  5
1B4
330
1B2
100
AcDbEntity
  8
A-FLOR-OTLN
100
AcDbVertex
100
AcDbPolyFaceMeshVertex
 10
-35049.52148437499
 20
690320.0156249998
 30
-60971.99999999999
 70
   192
  0
VERTEX
  5
1B5
330
1B2
100
AcDbEntity
  8
A-FLOR-OTLN
100
AcDbVertex
100
AcDbPolyFaceMeshVertex
 10
-35049.52148437499
 20
690320.0156249998
 30
-60959.99999999999
 70
   192
  0
VERTEX
  5
1B6
330
1B2
100
AcDbEntity
  8
A-FLOR-OTLN
100
AcDbVertex
100
AcDbPolyFaceMeshVertex
 10
235750.921875
 20
647429.4374999999
 30
-60959.99999999999
 70
   192
  0
VERTEX
  5
1B7
330
1B2
100
AcDbEntity
  8
A-FLOR-OTLN
100
AcDbFaceRecord
 10
0.0
 20
0.0
 30
0.0
 70
   128
 71
     1
 72
     2
 73
     3
 74
     4
  0
SEQEND
  5
1B8
330
1B2
100
AcDbEntity
  8
A-FLOR-OTLN
  0
POLYLINE
  5
1B9
330
6C
100
AcDbEntity
  8
A-FLOR-OTLN
100
AcDbPolyFaceMesh
 66
     1
 10
0.0
 20
0.0
 30
0.0
 70
    64
 71
     4
 72
     1
1001
REVIT
1002
{
1070
     1
1000
166968
1002
}
1002
{
1070
     5
1000
226
1002
}
1002
{
1070
     4
1000
18436
1002
}
1002
{
1070
     2
1000
-2000032
1002
}
  0
VERTEX
  5
1BA
330
1B9
100
AcDbEntity
  8
A-FLOR-OTLN
100
AcDbVertex
100
AcDbPolyFaceMeshVertex
 10
241531.4765625
 20
683926.4999999999
 30
-60971.99999999999
 70
   192
  0
VERTEX
  5
1BB
330
1B9
100
AcDbEntity
  8
A-FLOR-OTLN
100
AcDbVertex
100
AcDbPolyFaceMeshVertex
 10
235750.921875
 20
647429.4374999999
 30
-60971.99999999999
 70
   192
  0
VERTEX
  5
1BC
330
1B9
100
AcDbEntity
  8
A-FLOR-OTLN
100
AcDbVertex
100
AcDbPolyFaceMeshVertex
 10
235750.921875
 20
647429.4374999999
 30
-60959.99999999999
 70
   192
  0
VERTEX
  5
1BD
330
1B9
100
AcDbEntity
  8
A-FLOR-OTLN
100
AcDbVertex
100
AcDbPolyFaceMeshVertex
 10
241531.4765625
 20
683926.4999999999
 30
-60959.99999999999
 70
   192
  0
VERTEX
  5
1BE
330
1B9
100
AcDbEntity
  8
A-FLOR-OTLN
100
AcDbFaceRecord
 10
0.0
 20
0.0
 30
0.0
 70
   128
 71
     1
 72
     2
 73
     3
 74
     4
  0
SEQEND
  5
1BF
330
1B9
100
AcDbEntity
  8
A-FLOR-OTLN
  0
POLYLINE
  5
1C0
330
6C
100
AcDbEntity
  8
A-FLOR-OTLN
100
AcDbPolyFaceMesh
 66
     1
 10
0.0
 20
0.0
 30
0.0
 70
    64
 71
     4
 72
     1
1001
REVIT
1002
{
1070
     1
1000
166968
1002
}
1002
{
1070
     5
1000
226
1002
}
1002
{
1070
     4
1000
18436
1002
}
1002
{
1070
     2
1000
-2000032
1002
}
  0
VERTEX
  5
1C1
330
1C0
100
AcDbEntity
  8
A-FLOR-OTLN
100
AcDbVertex
100
AcDbPolyFaceMeshVertex
 10
330565.6640625
 20
669824.90625
 30
-60971.99999999999
 70
   192
  0
VERTEX
  5
1C2
330
1C0
100
AcDbEntity
  8
A-FLOR-OTLN
100
AcDbVertex
100
AcDbPolyFaceMeshVertex
 10
241531.4765625
 20
683926.4999999999
 30
-60971.99999999999
 70
   192
  0
VERTEX
  5
1C3
330
1C0
100
AcDbEntity
  8
A-FLOR-OTLN
100
AcDbVertex
100
AcDbPolyFaceMeshVertex
 10
241531.4765625
 20
683926.4999999999
 30
-60959.99999999999
 70
   192
  0
VERTEX
  5
1C4
330
1C0
100
AcDbEntity
  8
A-FLOR-OTLN
100
AcDbVertex
100
AcDbPolyFaceMeshVertex
 10
330565.6640625
 20
669824.90625
 30
-60959.99999999999
 70
   192
  0
VERTEX
  5
1C5
330
1C0
100
AcDbEntity
  8
A-FLOR-OTLN
100
AcDbFaceRecord
 10
0.0
 20
0.0
 30
0.0
 70
   128
 71
     1
 72
     2
 73
     3
 74
     4
  0
SEQEND
  5
1C6
330
1C0
100
AcDbEntity
  8
A-FLOR-OTLN
  0
POLYLINE
  5
1C7
330
6C
100
AcDbEntity
  8
A-FLOR-OTLN
100
AcDbPolyFaceMesh
 66
     1
 10
0.0
 20
0.0
 30
0.0
 70
    64
 71
     4
 72
     1
1001
REVIT
1002
{
1070
     1
1000
166968
1002
}
1002
{
1070
     5
1000
226
1002
}
1002
{
1070
     4
1000
18436
1002
}
1002
{
1070
     2
1000
-2000032
1002
}
  0
VERTEX
  5
1C8
330
1C7
100
AcDbEntity
  8
A-FLOR-OTLN
100
AcDbVertex
100
AcDbPolyFaceMeshVertex
 10
330569.6484375
 20
669824.2499999999
 30
-60971.99999999999
 70
   192
  0
VERTEX
  5
1C9
330
1C7
100
AcDbEntity
  8
A-FLOR-OTLN
100
AcDbVertex
100
AcDbPolyFaceMeshVertex
 10
330565.6640625
 20
669824.90625
 30
-60971.99999999999
 70
   192
  0
VERTEX
  5
1CA
330
1C7
100
AcDbEntity
  8
A-FLOR-OTLN
100
AcDbVertex
100
AcDbPolyFaceMeshVertex
 10
330565.6640625
 20
669824.90625
 30
-60959.99999999999
 70
   192
  0
VERTEX
  5
1CB
330
1C7
100
AcDbEntity
  8
A-FLOR-OTLN
100
AcDbVertex
100
AcDbPolyFaceMeshVertex
 10
330569.6484375
 20
669824.2499999999
 30
-60959.99999999999
 70
   192
  0
VERTEX
  5
1CC
330
1C7
100
AcDbEntity
  8
A-FLOR-OTLN
100
AcDbFaceRecord
 10
0.0
 20
0.0
 30
0.0
 70
   128
 71
     4
 72
     1
 73
     2
 74
     3
  0
SEQEND
  5
1CD
330
1C7
100
AcDbEntity
  8
A-FLOR-OTLN
  0
POLYLINE
  5
1CE
330
6C
100
AcDbEntity
  8
A-FLOR-OTLN
100
AcDbPolyFaceMesh
 66
     1
 10
0.0
 20
0.0
 30
0.0
 70
    64
 71
     4
 72
     1
1001
REVIT
1002
{
1070
     1
1000
166968
1002
}
1002
{
1070
     5
1000
226
1002
}
1002
{
1070
     4
1000
18436
1002
}
1002
{
1070
     2
1000
-2000032
1002
}
  0
VERTEX
  5
1CF
330
1CE
100
AcDbEntity
  8
A-FLOR-OTLN
100
AcDbVertex
100
AcDbPolyFaceMeshVertex
 10
722344.4999999999
 20
610995.4218749999
 30
-60971.99999999999
 70
   192
  0
VERTEX
  5
1D0
330
1CE
100
AcDbEntity
  8
A-FLOR-OTLN
100
AcDbVertex
100
AcDbPolyFaceMeshVertex
 10
330569.6484375
 20
669824.2499999999
 30
-60971.99999999999
 70
   192
  0
VERTEX
  5
1D1
330
1CE
100
AcDbEntity
  8
A-FLOR-OTLN
100
AcDbVertex
100
AcDbPolyFaceMeshVertex
 10
330569.6484375
 20
669824.2499999999
 30
-60959.99999999999
 70
   192
  0
VERTEX
  5
1D2
330
1CE
100
AcDbEntity
  8
A-FLOR-OTLN
100
AcDbVertex
100
AcDbPolyFaceMeshVertex
 10
722344.4999999999
 20
610995.4218749999
 30
-60959.99999999999
 70
   192
  0
VERTEX
  5
1D3
330
1CE
100
AcDbEntity
  8
A-FLOR-OTLN
100
AcDbFaceRecord
 10
0.0
 20
0.0
 30
0.0
 70
   128
 71
     1
 72
     2
 73
     3
 74
     4
  0
SEQEND
  5
1D4
330
1CE
100
AcDbEntity
  8
A-FLOR-OTLN
  0
POLYLINE
  5
1D5
330
6C
100
AcDbEntity
  8
A-FLOR-OTLN
100
AcDbPolyFaceMesh
 66
     1
 10
0.0
 20
0.0
 30
0.0
 70
    64
 71
     4
 72
     1
1001
REVIT
1002
{
1070
     1
1000
166968
1002
}
1002
{
1070
     5
1000
226
1002
}
1002
{
1070
     4
1000
18436
1002
}
1002
{
1070
     2
1000
-2000032
1002
}
  0
VERTEX
  5
1D6
330
1D5
100
AcDbEntity
  8
A-FLOR-OTLN
100
AcDbVertex
100
AcDbPolyFaceMeshVertex
 10
693229.5468749998
 20
333985.3359375
 30
-60971.99999999999
 70
   192
  0
VERTEX
  5
1D7
330
1D5
100
AcDbEntity
  8
A-FLOR-OTLN
100
AcDbVertex
100
AcDbPolyFaceMeshVertex
 10
722344.4999999999
 20
610995.4218749999
 30
-60971.99999999999
 70
   192
  0
VERTEX
  5
1D8
330
1D5
100
AcDbEntity
  8
A-FLOR-OTLN
100
AcDbVertex
100
AcDbPolyFaceMeshVertex
 10
722344.4999999999
 20
610995.4218749999
 30
-60959.99999999999
 70
   192
  0
VERTEX
  5
1D9
330
1D5
100
AcDbEntity
  8
A-FLOR-OTLN
100
AcDbVertex
100
AcDbPolyFaceMeshVertex
 10
693229.5468749998
 20
333985.3359375
 30
-60959.99999999999
 70
   192
  0
VERTEX
  5
1DA
330
1D5
100
AcDbEntity
  8
A-FLOR-OTLN
100
AcDbFaceRecord
 10
0.0
 20
0.0
 30
0.0
 70
   128
 71
     1
 72
     2
 73
     3
 74
     4
  0
SEQEND
  5
1DB
330
1D5
100
AcDbEntity
  8
A-FLOR-OTLN
  0
POLYLINE
  5
1DC
330
6C
100
AcDbEntity
  8
A-FLOR-OTLN
100
AcDbPolyFaceMesh
 66
     1
 10
0.0
 20
0.0
 30
0.0
 70
    64
 71
     4
 72
     1
1001
REVIT
1002
{
1070
     1
1000
166968
1002
}
1002
{
1070
     5
1000
226
1002
}
1002
{
1070
     4
1000
18436
1002
}
1002
{
1070
     2
1000
-2000032
1002
}
  0
VERTEX
  5
1DD
330
1DC
100
AcDbEntity
  8
A-FLOR-OTLN
100
AcDbVertex
100
AcDbPolyFaceMeshVertex
 10
642130.7343749998
 20
342078.5859375
 30
-60971.99999999999
 70
   192
  0
VERTEX
  5
1DE
330
1DC
100
AcDbEntity
  8
A-FLOR-OTLN
100
AcDbVertex
100
AcDbPolyFaceMeshVertex
 10
693229.5468749998
 20
333985.3359375
 30
-60971.99999999999
 70
   192
  0
VERTEX
  5
1DF
330
1DC
100
AcDbEntity
  8
A-FLOR-OTLN
100
AcDbVertex
100
AcDbPolyFaceMeshVertex
 10
693229.5468749998
 20
333985.3359375
 30
-60959.99999999999
 70
   192
  0
VERTEX
  5
1E0
330
1DC
100
AcDbEntity
  8
A-FLOR-OTLN
100
AcDbVertex
100
AcDbPolyFaceMeshVertex
 10
642130.7343749998
 20
342078.5859375
 30
-60959.99999999999
 70
   192
  0
VERTEX
  5
1E1
330
1DC
100
AcDbEntity
  8
A-FLOR-OTLN
100
AcDbFaceRecord
 10
0.0
 20
0.0
 30
0.0
 70
   128
 71
     1
 72
     2
 73
     3
 74
     4
  0
SEQEND
  5
1E2
330
1DC
100
AcDbEntity
  8
A-FLOR-OTLN
  0
POLYLINE
  5
1E3
330
6C
100
AcDbEntity
  8
A-FLOR-OTLN
100
AcDbPolyFaceMesh
 66
     1
 10
0.0
 20
0.0
 30
0.0
 70
    64
 71
     4
 72
     1
1001
REVIT
1002
{
1070
     1
1000
166968
1002
}
1002
{
1070
     5
1000
226
1002
}
1002
{
1070
     4
1000
18436
1002
}
1002
{
1070
     2
1000
-2000032
1002
}
  0
VERTEX
  5
1E4
330
1E3
100
AcDbEntity
  8
A-FLOR-OTLN
100
AcDbVertex
100
AcDbPolyFaceMeshVertex
 10
651058.1249999998
 20
398443.96875
 30
-60971.99999999999
 70
   192
  0
VERTEX
  5
1E5
330
1E3
100
AcDbEntity
  8
A-FLOR-OTLN
100
AcDbVertex
100
AcDbPolyFaceMeshVertex
 10
642130.7343749998
 20
342078.5859375
 30
-60971.99999999999
 70
   192
  0
VERTEX
  5
1E6
330
1E3
100
AcDbEntity
  8
A-FLOR-OTLN
100
AcDbVertex
100
AcDbPolyFaceMeshVertex
 10
642130.7343749998
 20
342078.5859375
 30
-60959.99999999999
 70
   192
  0
VERTEX
  5
1E7
330
1E3
100
AcDbEntity
  8
A-FLOR-OTLN
100
AcDbVertex
100
AcDbPolyFaceMeshVertex
 10
651058.1249999998
 20
398443.96875
 30
-60959.99999999999
 70
   192
  0
VERTEX
  5
1E8
330
1E3
100
AcDbEntity
  8
A-FLOR-OTLN
100
AcDbFaceRecord
 10
0.0
 20
0.0
 30
0.0
 70
   128
 71
     1
 72
     2
 73
     3
 74
     4
  0
SEQEND
  5
1E9
330
1E3
100
AcDbEntity
  8
A-FLOR-OTLN
  0
POLYLINE
  5
1EA
330
6C
100
AcDbEntity
  8
A-FLOR-OTLN
100
AcDbPolyFaceMesh
 66
     1
 10
0.0
 20
0.0
 30
0.0
 70
    64
 71
     4
 72
     1
1001
REVIT
1002
{
1070
     1
1000
166968
1002
}
1002
{
1070
     5
1000
226
1002
}
1002
{
1070
     4
1000
18436
1002
}
1002
{
1070
     2
1000
-2000032
1002
}
  0
VERTEX
  5
1EB
330
1EA
100
AcDbEntity
  8
A-FLOR-OTLN
100
AcDbVertex
100
AcDbPolyFaceMeshVertex
 10
637951.265625
 20
400519.9218749999
 30
-60971.99999999999
 70
   192
  0
VERTEX
  5
1EC
330
1EA
100
AcDbEntity
  8
A-FLOR-OTLN
100
AcDbVertex
100
AcDbPolyFaceMeshVertex
 10
651058.1249999998
 20
398443.96875
 30
-60971.99999999999
 70
   192
  0
VERTEX
  5
1ED
330
1EA
100
AcDbEntity
  8
A-FLOR-OTLN
100
AcDbVertex
100
AcDbPolyFaceMeshVertex
 10
651058.1249999998
 20
398443.96875
 30
-60959.99999999999
 70
   192
  0
VERTEX
  5
1EE
330
1EA
100
AcDbEntity
  8
A-FLOR-OTLN
100
AcDbVertex
100
AcDbPolyFaceMeshVertex
 10
637951.265625
 20
400519.9218749999
 30
-60959.99999999999
 70
   192
  0
VERTEX
  5
1EF
330
1EA
100
AcDbEntity
  8
A-FLOR-OTLN
100
AcDbFaceRecord
 10
0.0
 20
0.0
 30
0.0
 70
   128
 71
     4
 72
     1
 73
     2
 74
     3
  0
SEQEND
  5
1F0
330
1EA
100
AcDbEntity
  8
A-FLOR-OTLN
  0
POLYLINE
  5
1F1
330
6C
100
AcDbEntity
  8
A-FLOR-OTLN
100
AcDbPolyFaceMesh
 66
     1
 10
0.0
 20
0.0
 30
0.0
 70
    64
 71
     4
 72
     1
1001
REVIT
1002
{
1070
     1
1000
166968
1002
}
1002
{
1070
     5
1000
226
1002
}
1002
{
1070
     4
1000
18436
1002
}
1002
{
1070
     2
1000
-2000032
1002
}
  0
VERTEX
  5
1F2
330
1F1
100
AcDbEntity
  8
A-FLOR-OTLN
100
AcDbVertex
100
AcDbPolyFaceMeshVertex
 10
624249.3749999999
 20
314009.71875
 30
-60971.99999999999
 70
   192
  0
VERTEX
  5
1F3
330
1F1
100
AcDbEntity
  8
A-FLOR-OTLN
100
AcDbVertex
100
AcDbPolyFaceMeshVertex
 10
637951.265625
 20
400519.9218749999
 30
-60971.99999999999
 70
   192
  0
VERTEX
  5
1F4
330
1F1
100
AcDbEntity
  8
A-FLOR-OTLN
100
AcDbVertex
100
AcDbPolyFaceMeshVertex
 10
637951.265625
 20
400519.9218749999
 30
-60959.99999999999
 70
   192
  0
VERTEX
  5
1F5
330
1F1
100
AcDbEntity
  8
A-FLOR-OTLN
100
AcDbVertex
100
AcDbPolyFaceMeshVertex
 10
624249.3749999999
 20
314009.71875
 30
-60959.99999999999
 70
   192
  0
VERTEX
  5
1F6
330
1F1
100
AcDbEntity
  8
A-FLOR-OTLN
100
AcDbFaceRecord
 10
0.0
 20
0.0
 30
0.0
 70
   128
 71
     1
 72
     2
 73
     3
 74
     4
  0
SEQEND
  5
1F7
330
1F1
100
AcDbEntity
  8
A-FLOR-OTLN
  0
POLYLINE
  5
1F8
330
6C
100
AcDbEntity
  8
A-FLOR-OTLN
100
AcDbPolyFaceMesh
 66
     1
 10
0.0
 20
0.0
 30
0.0
 70
    64
 71
     4
 72
     1
1001
REVIT
1002
{
1070
     1
1000
166968
1002
}
1002
{
1070
     5
1000
226
1002
}
1002
{
1070
     4
1000
18436
1002
}
1002
{
1070
     2
1000
-2000032
1002
}
  0
VERTEX
  5
1F9
330
1F8
100
AcDbEntity
  8
A-FLOR-OTLN
100
AcDbVertex
100
AcDbPolyFaceMeshVertex
 10
638851.8749999999
 20
-929204.8124999999
 30
-60971.99999999999
 70
   192
  0
VERTEX
  5
1FA
330
1F8
100
AcDbEntity
  8
A-FLOR-OTLN
100
AcDbVertex
100
AcDbPolyFaceMeshVertex
 10
624249.3749999999
 20
314009.71875
 30
-60971.99999999999
 70
   192
  0
VERTEX
  5
1FB
330
1F8
100
AcDbEntity
  8
A-FLOR-OTLN
100
AcDbVertex
100
AcDbPolyFaceMeshVertex
 10
624249.3749999999
 20
314009.71875
 30
-60959.99999999999
 70
   192
  0
VERTEX
  5
1FC
330
1F8
100
AcDbEntity
  8
A-FLOR-OTLN
100
AcDbVertex
100
AcDbPolyFaceMeshVertex
 10
638851.8749999999
 20
-929204.8124999999
 30
-60959.99999999999
 70
   192
  0
VERTEX
  5
1FD
330
1F8
100
AcDbEntity
  8
A-FLOR-OTLN
100
AcDbFaceRecord
 10
0.0
 20
0.0
 30
0.0
 70
   128
 71
     1
 72
     2
 73
     3
 74
     4
  0
SEQEND
  5
1FE
330
1F8
100
AcDbEntity
  8
A-FLOR-OTLN
  0
POLYLINE
  5
1FF
330
6C
100
AcDbEntity
  8
A-FLOR-OTLN
100
AcDbPolyFaceMesh
 66
     1
 10
0.0
 20
0.0
 30
0.0
 70
    64
 71
     4
 72
     1
1001
REVIT
1002
{
1070
     1
1000
166968
1002
}
1002
{
1070
     5
1000
226
1002
}
1002
{
1070
     4
1000
18436
1002
}
1002
{
1070
     2
1000
-2000032
1002
}
  0
VERTEX
  5
200
330
1FF
100
AcDbEntity
  8
A-FLOR-OTLN
100
AcDbVertex
100
AcDbPolyFaceMeshVertex
 10
793891.8749999999
 20
-929204.8124999999
 30
-60971.99999999999
 70
   192
  0
VERTEX
  5
201
330
1FF
100
AcDbEntity
  8
A-FLOR-OTLN
100
AcDbVertex
100
AcDbPolyFaceMeshVertex
 10
638851.8749999999
 20
-929204.8124999999
 30
-60971.99999999999
 70
   192
  0
VERTEX
  5
202
330
1FF
100
AcDbEntity
  8
A-FLOR-OTLN
100
AcDbVertex
100
AcDbPolyFaceMeshVertex
 10
638851.8749999999
 20
-929204.8124999999
 30
-60959.99999999999
 70
   192
  0
VERTEX
  5
203
330
1FF
100
AcDbEntity
  8
A-FLOR-OTLN
100
AcDbVertex
100
AcDbPolyFaceMeshVertex
 10
793891.8749999999
 20
-929204.8124999999
 30
-60959.99999999999
 70
   192
  0
VERTEX
  5
204
330
1FF
100
AcDbEntity
  8
A-FLOR-OTLN
100
AcDbFaceRecord
 10
0.0
 20
0.0
 30
0.0
 70
   128
 71
     1
 72
     2
 73
     3
 74
     4
  0
SEQEND
  5
205
330
1FF
100
AcDbEntity
  8
A-FLOR-OTLN
  0
POLYLINE
  5
206
330
6C
100
AcDbEntity
  8
A-FLOR-OTLN
100
AcDbPolyFaceMesh
 66
     1
 10
0.0
 20
0.0
 30
0.0
 70
    64
 71
     4
 72
     1
1001
REVIT
1002
{
1070
     1
1000
166968
1002
}
1002
{
1070
     5
1000
226
1002
}
1002
{
1070
     4
1000
18436
1002
}
1002
{
1070
     2
1000
-2000032
1002
}
  0
VERTEX
  5
207
330
206
100
AcDbEntity
  8
A-FLOR-OTLN
100
AcDbVertex
100
AcDbPolyFaceMeshVertex
 10
793891.8749999999
 20
-992996.9062499999
 30
-60971.99999999999
 70
   192
  0
VERTEX
  5
208
330
206
100
AcDbEntity
  8
A-FLOR-OTLN
100
AcDbVertex
100
AcDbPolyFaceMeshVertex
 10
793891.8749999999
 20
-929204.8124999999
 30
-60971.99999999999
 70
   192
  0
VERTEX
  5
209
330
206
100
AcDbEntity
  8
A-FLOR-OTLN
100
AcDbVertex
100
AcDbPolyFaceMeshVertex
 10
793891.8749999999
 20
-929204.8124999999
 30
-60959.99999999999
 70
   192
  0
VERTEX
  5
20A
330
206
100
AcDbEntity
  8
A-FLOR-OTLN
100
AcDbVertex
100
AcDbPolyFaceMeshVertex
 10
793891.8749999999
 20
-992996.9062499999
 30
-60959.99999999999
 70
   192
  0
VERTEX
  5
20B
330
206
100
AcDbEntity
  8
A-FLOR-OTLN
100
AcDbFaceRecord
 10
0.0
 20
0.0
 30
0.0
 70
   128
 71
     1
 72
     2
 73
     3
 74
     4
  0
SEQEND
  5
20C
330
206
100
AcDbEntity
  8
A-FLOR-OTLN
  0
POLYLINE
  5
20D
330
6C
100
AcDbEntity
  8
A-FLOR-OTLN
100
AcDbPolyFaceMesh
 66
     1
 10
0.0
 20
0.0
 30
0.0
 70
    64
 71
     4
 72
     1
1001
REVIT
1002
{
1070
     1
1000
166968
1002
}
1002
{
1070
     5
1000
226
1002
}
1002
{
1070
     4
1000
18436
1002
}
1002
{
1070
     2
1000
-2000032
1002
}
  0
VERTEX
  5
20E
330
20D
100
AcDbEntity
  8
A-FLOR-OTLN
100
AcDbVertex
100
AcDbPolyFaceMeshVertex
 10
1637755.312499999
 20
-978267.1875
 30
-60971.99999999999
 70
   192
  0
VERTEX
  5
20F
330
20D
100
AcDbEntity
  8
A-FLOR-OTLN
100
AcDbVertex
100
AcDbPolyFaceMeshVertex
 10
793891.8749999999
 20
-992996.9062499999
 30
-60971.99999999999
 70
   192
  0
VERTEX
  5
210
330
20D
100
AcDbEntity
  8
A-FLOR-OTLN
100
AcDbVertex
100
AcDbPolyFaceMeshVertex
 10
793891.8749999999
 20
-992996.9062499999
 30
-60959.99999999999
 70
   192
  0
VERTEX
  5
211
330
20D
100
AcDbEntity
  8
A-FLOR-OTLN
100
AcDbVertex
100
AcDbPolyFaceMeshVertex
 10
1637755.312499999
 20
-978267.1875
 30
-60959.99999999999
 70
   192
  0
VERTEX
  5
212
330
20D
100
AcDbEntity
  8
A-FLOR-OTLN
100
AcDbFaceRecord
 10
0.0
 20
0.0
 30
0.0
 70
   128
 71
     1
 72
     2
 73
     3
 74
     4
  0
SEQEND
  5
213
330
20D
100
AcDbEntity
  8
A-FLOR-OTLN
  0
POLYLINE
  5
214
330
6C
100
AcDbEntity
  8
A-FLOR-OTLN
100
AcDbPolyFaceMesh
 66
     1
 10
0.0
 20
0.0
 30
0.0
 70
    64
 71
     4
 72
     1
1001
REVIT
1002
{
1070
     1
1000
166968
1002
}
1002
{
1070
     5
1000
226
1002
}
1002
{
1070
     4
1000
18436
1002
}
1002
{
1070
     2
1000
-2000032
1002
}
  0
VERTEX
  5
215
330
214
100
AcDbEntity
  8
A-FLOR-OTLN
100
AcDbVertex
100
AcDbPolyFaceMeshVertex
 10
1637755.312499999
 20
-911451.2812500001
 30
-60971.99999999999
 70
   192
  0
VERTEX
  5
216
330
214
100
AcDbEntity
  8
A-FLOR-OTLN
100
AcDbVertex
100
AcDbPolyFaceMeshVertex
 10
1637755.312499999
 20
-978267.1875
 30
-60971.99999999999
 70
   192
  0
VERTEX
  5
217
330
214
100
AcDbEntity
  8
A-FLOR-OTLN
100
AcDbVertex
100
AcDbPolyFaceMeshVertex
 10
1637755.312499999
 20
-978267.1875
 30
-60959.99999999999
 70
   192
  0
VERTEX
  5
218
330
214
100
AcDbEntity
  8
A-FLOR-OTLN
100
AcDbVertex
100
AcDbPolyFaceMeshVertex
 10
1637755.312499999
 20
-911451.2812500001
 30
-60959.99999999999
 70
   192
  0
VERTEX
  5
219
330
214
100
AcDbEntity
  8
A-FLOR-OTLN
100
AcDbFaceRecord
 10
0.0
 20
0.0
 30
0.0
 70
   128
 71
     1
 72
     2
 73
     3
 74
     4
  0
SEQEND
  5
21A
330
214
100
AcDbEntity
  8
A-FLOR-OTLN
  0
POLYLINE
  5
21B
330
6C
100
AcDbEntity
  8
A-FLOR-OTLN
100
AcDbPolyFaceMesh
 66
     1
 10
0.0
 20
0.0
 30
0.0
 70
    64
 71
     4
 72
     1
1001
REVIT
1002
{
1070
     1
1000
166968
1002
}
1002
{
1070
     5
1000
226
1002
}
1002
{
1070
     4
1000
18436
1002
}
1002
{
1070
     2
1000
-2000032
1002
}
  0
VERTEX
  5
21C
330
21B
100
AcDbEntity
  8
A-FLOR-OTLN
100
AcDbVertex
100
AcDbPolyFaceMeshVertex
 10
1792691.4375
 20
-911451.2812500001
 30
-60971.99999999999
 70
   192
  0
VERTEX
  5
21D
330
21B
100
AcDbEntity
  8
A-FLOR-OTLN
100
AcDbVertex
100
AcDbPolyFaceMeshVertex
 10
1637755.312499999
 20
-911451.2812500001
 30
-60971.99999999999
 70
   192
  0
VERTEX
  5
21E
330
21B
100
AcDbEntity
  8
A-FLOR-OTLN
100
AcDbVertex
100
AcDbPolyFaceMeshVertex
 10
1637755.312499999
 20
-911451.2812500001
 30
-60959.99999999999
 70
   192
  0
VERTEX
  5
21F
330
21B
100
AcDbEntity
  8
A-FLOR-OTLN
100
AcDbVertex
100
AcDbPolyFaceMeshVertex
 10
1792691.4375
 20
-911451.2812500001
 30
-60959.99999999999
 70
   192
  0
VERTEX
  5
220
330
21B
100
AcDbEntity
  8
A-FLOR-OTLN
100
AcDbFaceRecord
 10
0.0
 20
0.0
 30
0.0
 70
   128
 71
     1
 72
     2
 73
     3
 74
     4
  0
SEQEND
  5
221
330
21B
100
AcDbEntity
  8
A-FLOR-OTLN
  0
POLYLINE
  5
222
330
6C
100
AcDbEntity
  8
A-FLOR-OTLN
100
AcDbPolyFaceMesh
 66
     1
 10
0.0
 20
0.0
 30
0.0
 70
    64
 71
     4
 72
     1
1001
REVIT
1002
{
1070
     1
1000
166968
1002
}
1002
{
1070
     5
1000
226
1002
}
1002
{
1070
     4
1000
18436
1002
}
1002
{
1070
     2
1000
-2000032
1002
}
  0
VERTEX
  5
223
330
222
100
AcDbEntity
  8
A-FLOR-OTLN
100
AcDbVertex
100
AcDbPolyFaceMeshVertex
 10
1767285.9375
 20
46435.78417968749
 30
-60971.99999999999
 70
   192
  0
VERTEX
  5
224
330
222
100
AcDbEntity
  8
A-FLOR-OTLN
100
AcDbVertex
100
AcDbPolyFaceMeshVertex
 10
1792691.4375
 20
-911451.2812500001
 30
-60971.99999999999
 70
   192
  0
VERTEX
  5
225
330
222
100
AcDbEntity
  8
A-FLOR-OTLN
100
AcDbVertex
100
AcDbPolyFaceMeshVertex
 10
1792691.4375
 20
-911451.2812500001
 30
-60959.99999999999
 70
   192
  0
VERTEX
  5
226
330
222
100
AcDbEntity
  8
A-FLOR-OTLN
100
AcDbVertex
100
AcDbPolyFaceMeshVertex
 10
1767285.9375
 20
46435.78417968749
 30
-60959.99999999999
 70
   192
  0
VERTEX
  5
227
330
222
100
AcDbEntity
  8
A-FLOR-OTLN
100
AcDbFaceRecord
 10
0.0
 20
0.0
 30
0.0
 70
   128
 71
     4
 72
     1
 73
     2
 74
     3
  0
SEQEND
  5
228
330
222
100
AcDbEntity
  8
A-FLOR-OTLN
  0
POLYLINE
  5
229
330
6C
100
AcDbEntity
  8
A-FLOR-OTLN
100
AcDbPolyFaceMesh
 66
     1
 10
0.0
 20
0.0
 30
0.0
 70
    64
 71
     4
 72
     1
1001
REVIT
1002
{
1070
     1
1000
166968
1002
}
1002
{
1070
     5
1000
226
1002
}
1002
{
1070
     4
1000
18436
1002
}
1002
{
1070
     2
1000
-2000032
1002
}
  0
VERTEX
  5
22A
330
229
100
AcDbEntity
  8
A-FLOR-OTLN
100
AcDbVertex
100
AcDbPolyFaceMeshVertex
 10
1626695.25
 20
42706.98339843749
 30
-60971.99999999999
 70
   192
  0
VERTEX
  5
22B
330
229
100
AcDbEntity
  8
A-FLOR-OTLN
100
AcDbVertex
100
AcDbPolyFaceMeshVertex
 10
1767285.9375
 20
46435.78417968749
 30
-60971.99999999999
 70
   192
  0
VERTEX
  5
22C
330
229
100
AcDbEntity
  8
A-FLOR-OTLN
100
AcDbVertex
100
AcDbPolyFaceMeshVertex
 10
1767285.9375
 20
46435.78417968749
 30
-60959.99999999999
 70
   192
  0
VERTEX
  5
22D
330
229
100
AcDbEntity
  8
A-FLOR-OTLN
100
AcDbVertex
100
AcDbPolyFaceMeshVertex
 10
1626695.25
 20
42706.98339843749
 30
-60959.99999999999
 70
   192
  0
VERTEX
  5
22E
330
229
100
AcDbEntity
  8
A-FLOR-OTLN
100
AcDbFaceRecord
 10
0.0
 20
0.0
 30
0.0
 70
   128
 71
     1
 72
     2
 73
     3
 74
     4
  0
SEQEND
  5
22F
330
229
100
AcDbEntity
  8
A-FLOR-OTLN
  0
POLYLINE
  5
230
330
6C
100
AcDbEntity
  8
A-FLOR-OTLN
100
AcDbPolyFaceMesh
 66
     1
 10
0.0
 20
0.0
 30
0.0
 70
    64
 71
     4
 72
     1
1001
REVIT
1002
{
1070
     1
1000
166968
1002
}
1002
{
1070
     5
1000
226
1002
}
1002
{
1070
     4
1000
18436
1002
}
1002
{
1070
     2
1000
-2000032
1002
}
  0
VERTEX
  5
231
330
230
100
AcDbEntity
  8
A-FLOR-OTLN
100
AcDbVertex
100
AcDbPolyFaceMeshVertex
 10
1626695.25
 20
173467.08984375
 30
-60971.99999999999
 70
   192
  0
VERTEX
  5
232
330
230
100
AcDbEntity
  8
A-FLOR-OTLN
100
AcDbVertex
100
AcDbPolyFaceMeshVertex
 10
1626695.25
 20
42706.98339843749
 30
-60971.99999999999
 70
   192
  0
VERTEX
  5
233
330
230
100
AcDbEntity
  8
A-FLOR-OTLN
100
AcDbVertex
100
AcDbPolyFaceMeshVertex
 10
1626695.25
 20
42706.98339843749
 30
-60959.99999999999
 70
   192
  0
VERTEX
  5
234
330
230
100
AcDbEntity
  8
A-FLOR-OTLN
100
AcDbVertex
100
AcDbPolyFaceMeshVertex
 10
1626695.25
 20
173467.08984375
 30
-60959.99999999999
 70
   192
  0
VERTEX
  5
235
330
230
100
AcDbEntity
  8
A-FLOR-OTLN
100
AcDbFaceRecord
 10
0.0
 20
0.0
 30
0.0
 70
   128
 71
     1
 72
     2
 73
     3
 74
     4
  0
SEQEND
  5
236
330
230
100
AcDbEntity
  8
A-FLOR-OTLN
  0
POLYLINE
  5
237
330
6C
100
AcDbEntity
  8
A-FLOR-OTLN
100
AcDbPolyFaceMesh
 66
     1
 10
0.0
 20
0.0
 30
0.0
 70
    64
 71
     4
 72
     1
1001
REVIT
1002
{
1070
     1
1000
166968
1002
}
1002
{
1070
     5
1000
226
1002
}
1002
{
1070
     4
1000
18436
1002
}
1002
{
1070
     2
1000
-2000032
1002
}
  0
VERTEX
  5
238
330
237
100
AcDbEntity
  8
A-FLOR-OTLN
100
AcDbVertex
100
AcDbPolyFaceMeshVertex
 10
1886767.125
 20
173467.08984375
 30
-60971.99999999999
 70
   192
  0
VERTEX
  5
239
330
237
100
AcDbEntity
  8
A-FLOR-OTLN
100
AcDbVertex
100
AcDbPolyFaceMeshVertex
 10
1626695.25
 20
173467.08984375
 30
-60971.99999999999
 70
   192
  0
VERTEX
  5
23A
330
237
100
AcDbEntity
  8
A-FLOR-OTLN
100
AcDbVertex
100
AcDbPolyFaceMeshVertex
 10
1626695.25
 20
173467.08984375
 30
-60959.99999999999
 70
   192
  0
VERTEX
  5
23B
330
237
100
AcDbEntity
  8
A-FLOR-OTLN
100
AcDbVertex
100
AcDbPolyFaceMeshVertex
 10
1886767.125
 20
173467.08984375
 30
-60959.99999999999
 70
   192
  0
VERTEX
  5
23C
330
237
100
AcDbEntity
  8
A-FLOR-OTLN
100
AcDbFaceRecord
 10
0.0
 20
0.0
 30
0.0
 70
   128
 71
     1
 72
     2
 73
     3
 74
     4
  0
SEQEND
  5
23D
330
237
100
AcDbEntity
  8
A-FLOR-OTLN
  0
POLYLINE
  5
23E
330
6C
100
AcDbEntity
  8
A-FLOR-OTLN
100
AcDbPolyFaceMesh
 66
     1
 10
0.0
 20
0.0
 30
0.0
 70
    64
 71
     4
 72
     1
1001
REVIT
1002
{
1070
     1
1000
166968
1002
}
1002
{
1070
     5
1000
226
1002
}
1002
{
1070
     4
1000
18436
1002
}
1002
{
1070
     2
1000
-2000032
1002
}
  0
VERTEX
  5
23F
330
23E
100
AcDbEntity
  8
A-FLOR-OTLN
100
AcDbVertex
100
AcDbPolyFaceMeshVertex
 10
486369.890625
 20
-624825.4218749999
 30
-60971.99999999999
 70
   192
  0
VERTEX
  5
240
330
23E
100
AcDbEntity
  8
A-FLOR-OTLN
100
AcDbVertex
100
AcDbPolyFaceMeshVertex
 10
181712.4257812499
 20
-624825.4218749999
 30
-60971.99999999999
 70
   192
  0
VERTEX
  5
241
330
23E
100
AcDbEntity
  8
A-FLOR-OTLN
100
AcDbVertex
100
AcDbPolyFaceMeshVertex
 10
181712.4257812499
 20
-624825.4218749999
 30
-60959.99999999999
 70
   192
  0
VERTEX
  5
242
330
23E
100
AcDbEntity
  8
A-FLOR-OTLN
100
AcDbVertex
100
AcDbPolyFaceMeshVertex
 10
486369.890625
 20
-624825.4218749999
 30
-60959.99999999999
 70
   192
  0
VERTEX
  5
243
330
23E
100
AcDbEntity
  8
A-FLOR-OTLN
100
AcDbFaceRecord
 10
0.0
 20
0.0
 30
0.0
 70
   128
 71
     1
 72
     2
 73
     3
 74
     4
  0
SEQEND
  5
244
330
23E
100
AcDbEntity
  8
A-FLOR-OTLN
  0
POLYLINE
  5
245
330
6C
100
AcDbEntity
  8
A-FLOR-OTLN
100
AcDbPolyFaceMesh
 66
     1
 10
0.0
 20
0.0
 30
0.0
 70
    64
 71
     4
 72
     1
1001
REVIT
1002
{
1070
     1
1000
166968
1002
}
1002
{
1070
     5
1000
226
1002
}
1002
{
1070
     4
1000
18436
1002
}
1002
{
1070
     2
1000
-2000032
1002
}
  0
VERTEX
  5
246
330
245
100
AcDbEntity
  8
A-FLOR-OTLN
100
AcDbVertex
100
AcDbPolyFaceMeshVertex
 10
486369.890625
 20
-700609.4531249999
 30
-60971.99999999999
 70
   192
  0
VERTEX
  5
247
330
245
100
AcDbEntity
  8
A-FLOR-OTLN
100
AcDbVertex
100
AcDbPolyFaceMeshVertex
 10
486369.890625
 20
-624825.4218749999
 30
-60971.99999999999
 70
   192
  0
VERTEX
  5
248
330
245
100
AcDbEntity
  8
A-FLOR-OTLN
100
AcDbVertex
100
AcDbPolyFaceMeshVertex
 10
486369.890625
 20
-624825.4218749999
 30
-60959.99999999999
 70
   192
  0
VERTEX
  5
249
330
245
100
AcDbEntity
  8
A-FLOR-OTLN
100
AcDbVertex
100
AcDbPolyFaceMeshVertex
 10
486369.890625
 20
-700609.4531249999
 30
-60959.99999999999
 70
   192
  0
VERTEX
  5
24A
330
245
100
AcDbEntity
  8
A-FLOR-OTLN
100
AcDbFaceRecord
 10
0.0
 20
0.0
 30
0.0
 70
   128
 71
     1
 72
     2
 73
     3
 74
     4
  0
SEQEND
  5
24B
330
245
100
AcDbEntity
  8
A-FLOR-OTLN
  0
POLYLINE
  5
24C
330
6C
100
AcDbEntity
  8
A-FLOR-OTLN
100
AcDbPolyFaceMesh
 66
     1
 10
0.0
 20
0.0
 30
0.0
 70
    64
 71
     4
 72
     1
1001
REVIT
1002
{
1070
     1
1000
166968
1002
}
1002
{
1070
     5
1000
226
1002
}
1002
{
1070
     4
1000
18436
1002
}
1002
{
1070
     2
1000
-2000032
1002
}
  0
VERTEX
  5
24D
330
24C
100
AcDbEntity
  8
A-FLOR-OTLN
100
AcDbVertex
100
AcDbPolyFaceMeshVertex
 10
507201.890625
 20
330046.5703125
 30
-60971.99999999999
 70
   192
  0
VERTEX
  5
24E
330
24C
100
AcDbEntity
  8
A-FLOR-OTLN
100
AcDbVertex
100
AcDbPolyFaceMeshVertex
 10
507201.890625
 20
-711654.7968749999
 30
-60971.99999999999
 70
   192
  0
VERTEX
  5
24F
330
24C
100
AcDbEntity
  8
A-FLOR-OTLN
100
AcDbVertex
100
AcDbPolyFaceMeshVertex
 10
507201.890625
 20
-711654.7968749999
 30
-60959.99999999999
 70
   192
  0
VERTEX
  5
250
330
24C
100
AcDbEntity
  8
A-FLOR-OTLN
100
AcDbVertex
100
AcDbPolyFaceMeshVertex
 10
507201.890625
 20
330046.5703125
 30
-60959.99999999999
 70
   192
  0
VERTEX
  5
251
330
24C
100
AcDbEntity
  8
A-FLOR-OTLN
100
AcDbFaceRecord
 10
0.0
 20
0.0
 30
0.0
 70
   128
 71
     4
 72
     1
 73
     2
 74
     3
  0
SEQEND
  5
252
330
24C
100
AcDbEntity
  8
A-FLOR-OTLN
  0
POLYLINE
  5
253
330
6C
100
AcDbEntity
  8
A-FLOR-OTLN
100
AcDbPolyFaceMesh
 66
     1
 10
0.0
 20
0.0
 30
0.0
 70
    64
 71
     4
 72
     1
1001
REVIT
1002
{
1070
     1
1000
166968
1002
}
1002
{
1070
     5
1000
226
1002
}
1002
{
1070
     4
1000
18436
1002
}
1002
{
1070
     2
1000
-2000032
1002
}
  0
VERTEX
  5
254
330
253
100
AcDbEntity
  8
A-FLOR-OTLN
100
AcDbVertex
100
AcDbPolyFaceMeshVertex
 10
538114.2656249998
 20
330046.5703125
 30
-60971.99999999999
 70
   192
  0
VERTEX
  5
255
330
253
100
AcDbEntity
  8
A-FLOR-OTLN
100
AcDbVertex
100
AcDbPolyFaceMeshVertex
 10
507201.890625
 20
330046.5703125
 30
-60971.99999999999
 70
   192
  0
VERTEX
  5
256
330
253
100
AcDbEntity
  8
A-FLOR-OTLN
100
AcDbVertex
100
AcDbPolyFaceMeshVertex
 10
507201.890625
 20
330046.5703125
 30
-60959.99999999999
 70
   192
  0
VERTEX
  5
257
330
253
100
AcDbEntity
  8
A-FLOR-OTLN
100
AcDbVertex
100
AcDbPolyFaceMeshVertex
 10
538114.2656249998
 20
330046.5703125
 30
-60959.99999999999
 70
   192
  0
VERTEX
  5
258
330
253
100
AcDbEntity
  8
A-FLOR-OTLN
100
AcDbFaceRecord
 10
0.0
 20
0.0
 30
0.0
 70
   128
 71
     4
 72
     1
 73
     2
 74
     3
  0
SEQEND
  5
259
330
253
100
AcDbEntity
  8
A-FLOR-OTLN
  0
POLYLINE
  5
25A
330
6C
100
AcDbEntity
  8
A-FLOR-OTLN
100
AcDbPolyFaceMesh
 66
     1
 10
0.0
 20
0.0
 30
0.0
 70
    64
 71
     4
 72
     1
1001
REVIT
1002
{
1070
     1
1000
166968
1002
}
1002
{
1070
     5
1000
226
1002
}
1002
{
1070
     4
1000
18436
1002
}
1002
{
1070
     2
1000
-2000032
1002
}
  0
VERTEX
  5
25B
330
25A
100
AcDbEntity
  8
A-FLOR-OTLN
100
AcDbVertex
100
AcDbPolyFaceMeshVertex
 10
547034.7656249999
 20
414919.4531249999
 30
-60971.99999999999
 70
   192
  0
VERTEX
  5
25C
330
25A
100
AcDbEntity
  8
A-FLOR-OTLN
100
AcDbVertex
100
AcDbPolyFaceMeshVertex
 10
538114.2656249998
 20
330046.5703125
 30
-60971.99999999999
 70
   192
  0
VERTEX
  5
25D
330
25A
100
AcDbEntity
  8
A-FLOR-OTLN
100
AcDbVertex
100
AcDbPolyFaceMeshVertex
 10
538114.2656249998
 20
330046.5703125
 30
-60959.99999999999
 70
   192
  0
VERTEX
  5
25E
330
25A
100
AcDbEntity
  8
A-FLOR-OTLN
100
AcDbVertex
100
AcDbPolyFaceMeshVertex
 10
547034.7656249999
 20
414919.4531249999
 30
-60959.99999999999
 70
   192
  0
VERTEX
  5
25F
330
25A
100
AcDbEntity
  8
A-FLOR-OTLN
100
AcDbFaceRecord
 10
0.0
 20
0.0
 30
0.0
 70
   128
 71
     1
 72
     2
 73
     3
 74
     4
  0
SEQEND
  5
260
330
25A
100
AcDbEntity
  8
A-FLOR-OTLN
  0
POLYLINE
  5
261
330
6C
100
AcDbEntity
  8
A-FLOR-OTLN
100
AcDbPolyFaceMesh
 66
     1
 10
0.0
 20
0.0
 30
0.0
 70
    64
 71
     4
 72
     1
1001
REVIT
1002
{
1070
     1
1000
166968
1002
}
1002
{
1070
     5
1000
226
1002
}
1002
{
1070
     4
1000
18436
1002
}
1002
{
1070
     2
1000
-2000032
1002
}
  0
VERTEX
  5
262
330
261
100
AcDbEntity
  8
A-FLOR-OTLN
100
AcDbVertex
100
AcDbPolyFaceMeshVertex
 10
529272.4218749999
 20
355523.0390625
 30
-60971.99999999999
 70
   192
  0
VERTEX
  5
263
330
261
100
AcDbEntity
  8
A-FLOR-OTLN
100
AcDbVertex
100
AcDbPolyFaceMeshVertex
 10
547034.7656249999
 20
414919.4531249999
 30
-60971.99999999999
 70
   192
  0
VERTEX
  5
264
330
261
100
AcDbEntity
  8
A-FLOR-OTLN
100
AcDbVertex
100
AcDbPolyFaceMeshVertex
 10
547034.7656249999
 20
414919.4531249999
 30
-60959.99999999999
 70
   192
  0
VERTEX
  5
265
330
261
100
AcDbEntity
  8
A-FLOR-OTLN
100
AcDbVertex
100
AcDbPolyFaceMeshVertex
 10
529272.4218749999
 20
355523.0390625
 30
-60959.99999999999
 70
   192
  0
VERTEX
  5
266
330
261
100
AcDbEntity
  8
A-FLOR-OTLN
100
AcDbFaceRecord
 10
0.0
 20
0.0
 30
0.0
 70
   128
 71
     4
 72
     1
 73
     2
 74
     3
  0
SEQEND
  5
267
330
261
100
AcDbEntity
  8
A-FLOR-OTLN
  0
POLYLINE
  5
268
330
6C
100
AcDbEntity
  8
A-FLOR-OTLN
100
AcDbPolyFaceMesh
 66
     1
 10
0.0
 20
0.0
 30
0.0
 70
    64
 71
     4
 72
     1
1001
REVIT
1002
{
1070
     1
1000
166968
1002
}
1002
{
1070
     5
1000
226
1002
}
1002
{
1070
     4
1000
18436
1002
}
1002
{
1070
     2
1000
-2000032
1002
}
  0
VERTEX
  5
269
330
268
100
AcDbEntity
  8
A-FLOR-OTLN
100
AcDbVertex
100
AcDbPolyFaceMeshVertex
 10
286870.1015625
 20
393915.796875
 30
-60971.99999999999
 70
   192
  0
VERTEX
  5
26A
330
268
100
AcDbEntity
  8
A-FLOR-OTLN
100
AcDbVertex
100
AcDbPolyFaceMeshVertex
 10
529272.4218749999
 20
355523.0390625
 30
-60971.99999999999
 70
   192
  0
VERTEX
  5
26B
330
268
100
AcDbEntity
  8
A-FLOR-OTLN
100
AcDbVertex
100
AcDbPolyFaceMeshVertex
 10
529272.4218749999
 20
355523.0390625
 30
-60959.99999999999
 70
   192
  0
VERTEX
  5
26C
330
268
100
AcDbEntity
  8
A-FLOR-OTLN
100
AcDbVertex
100
AcDbPolyFaceMeshVertex
 10
286870.1015625
 20
393915.796875
 30
-60959.99999999999
 70
   192
  0
VERTEX
  5
26D
330
268
100
AcDbEntity
  8
A-FLOR-OTLN
100
AcDbFaceRecord
 10
0.0
 20
0.0
 30
0.0
 70
   128
 71
     1
 72
     2
 73
     3
 74
     4
  0
SEQEND
  5
26E
330
268
100
AcDbEntity
  8
A-FLOR-OTLN
  0
POLYLINE
  5
26F
330
6C
100
AcDbEntity
  8
A-FLOR-OTLN
100
AcDbPolyFaceMesh
 66
     1
 10
0.0
 20
0.0
 30
0.0
 70
    64
 71
     4
 72
     1
1001
REVIT
1002
{
1070
     1
1000
166968
1002
}
1002
{
1070
     5
1000
226
1002
}
1002
{
1070
     4
1000
18436
1002
}
1002
{
1070
     2
1000
-2000032
1002
}
  0
VERTEX
  5
270
330
26F
100
AcDbEntity
  8
A-FLOR-OTLN
100
AcDbVertex
100
AcDbPolyFaceMeshVertex
 10
181712.4257812499
 20
404968.3125
 30
-60971.99999999999
 70
   192
  0
VERTEX
  5
271
330
26F
100
AcDbEntity
  8
A-FLOR-OTLN
100
AcDbVertex
100
AcDbPolyFaceMeshVertex
 10
286870.1015625
 20
393915.796875
 30
-60971.99999999999
 70
   192
  0
VERTEX
  5
272
330
26F
100
AcDbEntity
  8
A-FLOR-OTLN
100
AcDbVertex
100
AcDbPolyFaceMeshVertex
 10
286870.1015625
 20
393915.796875
 30
-60959.99999999999
 70
   192
  0
VERTEX
  5
273
330
26F
100
AcDbEntity
  8
A-FLOR-OTLN
100
AcDbVertex
100
AcDbPolyFaceMeshVertex
 10
181712.4257812499
 20
404968.3125
 30
-60959.99999999999
 70
   192
  0
VERTEX
  5
274
330
26F
100
AcDbEntity
  8
A-FLOR-OTLN
100
AcDbFaceRecord
 10
0.0
 20
0.0
 30
0.0
 70
   128
 71
     1
 72
     2
 73
     3
 74
     4
  0
SEQEND
  5
275
330
26F
100
AcDbEntity
  8
A-FLOR-OTLN
  0
POLYLINE
  5
276
330
6C
100
AcDbEntity
  8
A-FLOR-OTLN
100
AcDbPolyFaceMesh
 66
     1
 10
0.0
 20
0.0
 30
0.0
 70
    64
 71
     4
 72
     1
1001
REVIT
1002
{
1070
     1
1000
166968
1002
}
1002
{
1070
     5
1000
226
1002
}
1002
{
1070
     4
1000
18436
1002
}
1002
{
1070
     2
1000
-2000032
1002
}
  0
VERTEX
  5
277
330
276
100
AcDbEntity
  8
A-FLOR-OTLN
100
AcDbVertex
100
AcDbPolyFaceMeshVertex
 10
181712.4257812499
 20
-624825.4218749999
 30
-60971.99999999999
 70
   192
  0
VERTEX
  5
278
330
276
100
AcDbEntity
  8
A-FLOR-OTLN
100
AcDbVertex
100
AcDbPolyFaceMeshVertex
 10
181712.4257812499
 20
404968.3125
 30
-60971.99999999999
 70
   192
  0
VERTEX
  5
279
330
276
100
AcDbEntity
  8
A-FLOR-OTLN
100
AcDbVertex
100
AcDbPolyFaceMeshVertex
 10
181712.4257812499
 20
404968.3125
 30
-60959.99999999999
 70
   192
  0
VERTEX
  5
27A
330
276
100
AcDbEntity
  8
A-FLOR-OTLN
100
AcDbVertex
100
AcDbPolyFaceMeshVertex
 10
181712.4257812499
 20
-624825.4218749999
 30
-60959.99999999999
 70
   192
  0
VERTEX
  5
27B
330
276
100
AcDbEntity
  8
A-FLOR-OTLN
100
AcDbFaceRecord
 10
0.0
 20
0.0
 30
0.0
 70
   128
 71
     1
 72
     2
 73
     3
 74
     4
  0
SEQEND
  5
27C
330
276
100
AcDbEntity
  8
A-FLOR-OTLN
  0
POLYLINE
  5
27D
330
6C
100
AcDbEntity
  8
A-FLOR-OTLN
100
AcDbPolyFaceMesh
 66
     1
 10
0.0
 20
0.0
 30
0.0
 70
    64
 71
     4
 72
     1
1001
REVIT
1002
{
1070
     1
1000
166968
1002
}
1002
{
1070
     5
1000
226
1002
}
1002
{
1070
     4
1000
18436
1002
}
1002
{
1070
     2
1000
-2000032
1002
}
  0
VERTEX
  5
27E
330
27D
100
AcDbEntity
  8
A-FLOR-OTLN
100
AcDbVertex
100
AcDbPolyFaceMeshVertex
 10
507201.890625
 20
-711654.7968749999
 30
-60971.99999999999
 70
   192
  0
VERTEX
  5
27F
330
27D
100
AcDbEntity
  8
A-FLOR-OTLN
100
AcDbVertex
100
AcDbPolyFaceMeshVertex
 10
513588.421875
 20
-794063.6249999998
 30
-60971.99999999999
 70
   192
  0
VERTEX
  5
280
330
27D
100
AcDbEntity
  8
A-FLOR-OTLN
100
AcDbVertex
100
AcDbPolyFaceMeshVertex
 10
513588.421875
 20
-794063.6249999998
 30
-60959.99999999999
 70
   192
  0
VERTEX
  5
281
330
27D
100
AcDbEntity
  8
A-FLOR-OTLN
100
AcDbVertex
100
AcDbPolyFaceMeshVertex
 10
507201.890625
 20
-711654.7968749999
 30
-60959.99999999999
 70
   192
  0
VERTEX
  5
282
330
27D
100
AcDbEntity
  8
A-FLOR-OTLN
100
AcDbFaceRecord
 10
0.0
 20
0.0
 30
0.0
 70
   128
 71
     4
 72
     1
 73
     2
 74
     3
  0
SEQEND
  5
283
330
27D
100
AcDbEntity
  8
A-FLOR-OTLN
  0
POLYLINE
  5
284
330
6C
100
AcDbEntity
  8
A-FLOR-OTLN
100
AcDbPolyFaceMesh
 66
     1
 10
0.0
 20
0.0
 30
0.0
 70
    64
 71
     4
 72
     1
1001
REVIT
1002
{
1070
     1
1000
166968
1002
}
1002
{
1070
     5
1000
226
1002
}
1002
{
1070
     4
1000
18436
1002
}
1002
{
1070
     2
1000
-2000032
1002
}
  0
VERTEX
  5
285
330
284
100
AcDbEntity
  8
A-FLOR-OTLN
100
AcDbVertex
100
AcDbPolyFaceMeshVertex
 10
493612.4062499999
 20
-794063.6249999998
 30
-60971.99999999999
 70
   192
  0
VERTEX
  5
286
330
284
100
AcDbEntity
  8
A-FLOR-OTLN
100
AcDbVertex
100
AcDbPolyFaceMeshVertex
 10
486369.890625
 20
-700609.4531249999
 30
-60971.99999999999
 70
   192
  0
VERTEX
  5
287
330
284
100
AcDbEntity
  8
A-FLOR-OTLN
100
AcDbVertex
100
AcDbPolyFaceMeshVertex
 10
486369.890625
 20
-700609.4531249999
 30
-60959.99999999999
 70
   192
  0
VERTEX
  5
288
330
284
100
AcDbEntity
  8
A-FLOR-OTLN
100
AcDbVertex
100
AcDbPolyFaceMeshVertex
 10
493612.4062499999
 20
-794063.6249999998
 30
-60959.99999999999
 70
   192
  0
VERTEX
  5
289
330
284
100
AcDbEntity
  8
A-FLOR-OTLN
100
AcDbFaceRecord
 10
0.0
 20
0.0
 30
0.0
 70
   128
 71
     1
 72
     2
 73
     3
 74
     4
  0
SEQEND
  5
28A
330
284
100
AcDbEntity
  8
A-FLOR-OTLN
  0
ENDSEC
  0
SECTION
  2
OBJECTS
  0
DICTIONARY
  5
C
330
0
100
AcDbDictionary
281
     1
  3
ACAD_CIP_PREVIOUS_PRODUCT_INFO
350
75
  3
ACAD_COLOR
350
63
  3
ACAD_GROUP
350
D
  3
ACAD_IMAGE_VARS
350
76
  3
ACAD_LAYOUT
350
62
  3
ACAD_MATERIAL
350
10
  3
ACAD_MLEADERSTYLE
350
66
  3
ACAD_MLINESTYLE
350
5F
  3
ACAD_PLOTSETTINGS
350
61
  3
ACAD_PLOTSTYLENAME
350
E
  3
ACAD_SCALELIST
350
42
  3
ACAD_TABLESTYLE
350
64
  3
ACAD_VISUALSTYLE
350
29
  3
ACDB_RECOMPOSE_DATA
350
299
  3
AcDbVariableDictionary
350
77
  3
REVIT_DICTIONARY
350
28C
  0
XRECORD
  5
75
102
{ACAD_REACTORS
330
C
102
}
330
C
100
AcDbXrecord
280
     1
300
REVIT
300
2012
300
REVIT2012
  0
DICTIONARY
  5
63
102
{ACAD_REACTORS
330
C
102
}
330
C
100
AcDbDictionary
281
     1
  0
DICTIONARY
  5
D
102
{ACAD_REACTORS
330
C
102
}
330
C
100
AcDbDictionary
281
     1
  0
RASTERVARIABLES
  5
76
102
{ACAD_REACTORS
330
C
102
}
330
C
100
AcDbRasterVariables
 90
        0
 70
     0
 71
     1
 72
     5
  0
DICTIONARY
  5
62
102
{ACAD_REACTORS
330
C
102
}
330
C
100
AcDbDictionary
281
     1
  3
Layout1
350
6B
  3
Layout2
350
73
  3
Model
350
6F
  0
DICTIONARY
  5
10
102
{ACAD_REACTORS
330
C
102
}
330
C
100
AcDbDictionary
281
     1
  3
ByBlock
350
19
  3
ByLayer
350
11
  3
Global
350
21
  3
RevitMaterialDefinition18436
350
28F
  0
DICTIONARY
  5
66
102
{ACAD_REACTORS
330
C
102
}
330
C
100
AcDbDictionary
281
     1
  3
Standard
350
67
  0
DICTIONARY
  5
5F
102
{ACAD_REACTORS
330
C
102
}
330
C
100
AcDbDictionary
281
     1
  3
Standard
350
60
  0
DICTIONARY
  5
61
102
{ACAD_REACTORS
330
C
102
}
330
C
100
AcDbDictionary
281
     1
  0
ACDBDICTIONARYWDFLT
  5
E
102
{ACAD_REACTORS
330
C
102
}
330
C
100
AcDbDictionary
281
     1
  3
Normal
350
F
100
AcDbDictionaryWithDefault
340
F
  0
DICTIONARY
  5
42
102
{ACAD_REACTORS
330
C
102
}
330
C
100
AcDbDictionary
281
     1
  3
A0
350
43
  3
A1
350
44
  3
A2
350
45
  3
A3
350
46
  3
A4
350
47
  3
A5
350
48
  3
A6
350
49
  3
A7
350
4A
  3
A8
350
4B
  3
A9
350
4C
  3
B0
350
4D
  3
B1
350
4E
  3
B2
350
4F
  3
B3
350
50
  3
B4
350
51
  3
B5
350
52
  3
B6
350
53
  0
DICTIONARY
  5
64
102
{ACAD_REACTORS
330
C
102
}
330
C
100
AcDbDictionary
281
     1
  3
Standard
350
65
  0
DICTIONARY
  5
29
102
{ACAD_REACTORS
330
C
102
}
330
C
100
AcDbDictionary
281
     1
  3
2dWireframe
350
2F
  3
Basic
350
2E
  3
Brighten
350
35
  3
ColorChange
350
39
  3
Conceptual
350
32
  3
Dim
350
34
  3
EdgeColorOff
350
41
  3
Facepattern
350
38
  3
Flat
350
2A
  3
FlatWithEdges
350
2B
  3
Gouraud
350
2C
  3
GouraudWithEdges
350
2D
  3
Hidden
350
31
  3
JitterOff
350
3F
  3
Linepattern
350
37
  3
OverhangOff
350
40
  3
Realistic
350
33
  3
Shaded
350
3E
  3
Shaded with edges
350
3D
  3
Shades of Gray
350
3A
  3
Sketchy
350
3B
  3
Thicken
350
36
  3
Wireframe
350
30
  3
X-Ray
350
3C
  0
XRECORD
  5
299
102
{ACAD_REACTORS
330
C
102
}
330
C
100
AcDbXrecord
280
     1
 90
        1
330
65
  0
DICTIONARY
  5
77
102
{ACAD_REACTORS
330
C
102
}
330
C
100
AcDbDictionary
281
     1
  3
CANNOSCALE
350
7A
  3
CMLEADERSTYLE
350
79
  3
CTABLESTYLE
350
78
  0
DICTIONARY
  5
28C
102
{ACAD_REACTORS
330
C
102
}
330
C
100
AcDbDictionary
281
     1
  3
DRAWING_TOOL
350
294
  3
REVIT_CATEGORY_MAPPING
350
293
  3
REVIT_GET_SITE
350
28D
  3
REVIT_TYPE_MAPPING
350
292
  0
LAYOUT
  5
6B
102
{ACAD_REACTORS
330
62
102
}
330
62
100
AcDbPlotSettings
  1

  2

  4

  6

 40
0.0
 41
0.0
 42
0.0
 43
0.0
 44
0.0
 45
0.0
 46
0.0
 47
0.0
 48
0.0
 49
0.0
140
0.0
141
0.0
142
1.0
143
1.0
 70
   688
 72
     0
 73
     0
 74
     5
  7

 75
    16
147
1.0
 76
     0
 77
     2
 78
   300
148
0.0
149
0.0
100
AcDbLayout
  1
Layout1
 70
     1
 71
     1
 10
0.0
 20
0.0
 11
12.0
 21
9.0
 12
0.0
 22
0.0
 32
0.0
 14
0.0
 24
0.0
 34
0.0
 15
0.0
 25
0.0
 35
0.0
146
0.0
 13
0.0
 23
0.0
 33
0.0
 16
1.0
 26
0.0
 36
0.0
 17
0.0
 27
1.0
 37
0.0
 76
     0
330
68
  0
LAYOUT
  5
73
102
{ACAD_REACTORS
330
62
102
}
330
62
100
AcDbPlotSettings
  1

  2

  4

  6

 40
0.0
 41
0.0
 42
0.0
 43
0.0
 44
0.0
 45
0.0
 46
0.0
 47
0.0
 48
0.0
 49
0.0
140
0.0
141
0.0
142
1.0
143
1.0
 70
   688
 72
     0
 73
     0
 74
     5
  7

 75
    16
147
1.0
 76
     0
 77
     2
 78
   300
148
0.0
149
0.0
100
AcDbLayout
  1
Layout2
 70
     1
 71
     2
 10
0.0
 20
0.0
 11
12.0
 21
9.0
 12
0.0
 22
0.0
 32
0.0
 14
0.0
 24
0.0
 34
0.0
 15
0.0
 25
0.0
 35
0.0
146
0.0
 13
0.0
 23
0.0
 33
0.0
 16
1.0
 26
0.0
 36
0.0
 17
0.0
 27
1.0
 37
0.0
 76
     0
330
70
  0
LAYOUT
  5
6F
102
{ACAD_REACTORS
330
62
102
}
330
62
100
AcDbPlotSettings
  1

  2

  4

  6

 40
0.0
 41
0.0
 42
0.0
 43
0.0
 44
0.0
 45
0.0
 46
0.0
 47
0.0
 48
0.0
 49
0.0
140
0.0
141
0.0
142
1.0
143
1.0
 70
  1712
 72
     0
 73
     0
 74
     0
  7

 75
     0
147
1.0
 76
     0
 77
     2
 78
   300
148
0.0
149
0.0
100
AcDbLayout
  1
Model
 70
     1
 71
     0
 10
0.0
 20
0.0
 11
12.0
 21
9.0
 12
0.0
 22
0.0
 32
0.0
 14
0.0
 24
0.0
 34
0.0
 15
0.0
 25
0.0
 35
0.0
146
0.0
 13
0.0
 23
0.0
 33
0.0
 16
1.0
 26
0.0
 36
0.0
 17
0.0
 27
1.0
 37
0.0
 76
     0
330
6C
  0
MATERIAL
  5
19
102
{ACAD_XDICTIONARY
360
1A
102
}
102
{ACAD_REACTORS
330
10
102
}
330
10
100
AcDbMaterial
  1
ByBlock
 72
     0
 43
0.0208333333333333
 43
0.0
 43
0.0
 43
0.0
 43
0.0
 43
0.0208333333333333
 43
0.0
 43
0.0
 43
0.0
 43
0.0
 43
1.0
 43
0.0
 43
0.0
 43
0.0
 43
0.0
 43
1.0
 77
     0
 47
0.0208333333333333
 47
0.0
 47
0.0
 47
0.0
 47
0.0
 47
0.0208333333333333
 47
0.0
 47
0.0
 47
0.0
 47
0.0
 47
1.0
 47
0.0
 47
0.0
 47
0.0
 47
0.0
 47
1.0
171
     0
 49
0.0208333333333333
 49
0.0
 49
0.0
 49
0.0
 49
0.0
 49
0.0208333333333333
 49
0.0
 49
0.0
 49
0.0
 49
0.0
 49
1.0
 49
0.0
 49
0.0
 49
0.0
 49
0.0
 49
1.0
175
     0
142
0.0208333333333333
142
0.0
142
0.0
142
0.0
142
0.0
142
0.0208333333333333
142
0.0
142
0.0
142
0.0
142
0.0
142
1.0
142
0.0
142
0.0
142
0.0
142
0.0
142
1.0
179
     0
144
0.0208333333333333
144
0.0
144
0.0
144
0.0
144
0.0
144
0.0208333333333333
144
0.0
144
0.0
144
0.0
144
0.0
144
1.0
144
0.0
144
0.0
144
0.0
144
0.0
144
1.0
147
0.0208333333333333
147
0.0
147
0.0
147
0.0
147
0.0
147
0.0208333333333333
147
0.0
147
0.0
147
0.0
147
0.0
147
1.0
147
0.0
147
0.0
147
0.0
147
0.0
147
1.0
  0
MATERIAL
  5
11
102
{ACAD_XDICTIONARY
360
12
102
}
102
{ACAD_REACTORS
330
10
102
}
330
10
100
AcDbMaterial
  1
ByLayer
 72
     0
 43
0.0208333333333333
 43
0.0
 43
0.0
 43
0.0
 43
0.0
 43
0.0208333333333333
 43
0.0
 43
0.0
 43
0.0
 43
0.0
 43
1.0
 43
0.0
 43
0.0
 43
0.0
 43
0.0
 43
1.0
 77
     0
 47
0.0208333333333333
 47
0.0
 47
0.0
 47
0.0
 47
0.0
 47
0.0208333333333333
 47
0.0
 47
0.0
 47
0.0
 47
0.0
 47
1.0
 47
0.0
 47
0.0
 47
0.0
 47
0.0
 47
1.0
171
     0
 49
0.0208333333333333
 49
0.0
 49
0.0
 49
0.0
 49
0.0
 49
0.0208333333333333
 49
0.0
 49
0.0
 49
0.0
 49
0.0
 49
1.0
 49
0.0
 49
0.0
 49
0.0
 49
0.0
 49
1.0
175
     0
142
0.0208333333333333
142
0.0
142
0.0
142
0.0
142
0.0
142
0.0208333333333333
142
0.0
142
0.0
142
0.0
142
0.0
142
1.0
142
0.0
142
0.0
142
0.0
142
0.0
142
1.0
179
     0
144
0.0208333333333333
144
0.0
144
0.0
144
0.0
144
0.0
144
0.0208333333333333
144
0.0
144
0.0
144
0.0
144
0.0
144
1.0
144
0.0
144
0.0
144
0.0
144
0.0
144
1.0
147
0.0208333333333333
147
0.0
147
0.0
147
0.0
147
0.0
147
0.0208333333333333
147
0.0
147
0.0
147
0.0
147
0.0
147
1.0
147
0.0
147
0.0
147
0.0
147
0.0
147
1.0
  0
MATERIAL
  5
21
102
{ACAD_XDICTIONARY
360
22
102
}
102
{ACAD_REACTORS
330
10
102
}
330
10
100
AcDbMaterial
  1
Global
 72
     0
 43
0.0208333333333333
 43
0.0
 43
0.0
 43
0.0
 43
0.0
 43
0.0208333333333333
 43
0.0
 43
0.0
 43
0.0
 43
0.0
 43
1.0
 43
0.0
 43
0.0
 43
0.0
 43
0.0
 43
1.0
 77
     0
 47
0.0208333333333333
 47
0.0
 47
0.0
 47
0.0
 47
0.0
 47
0.0208333333333333
 47
0.0
 47
0.0
 47
0.0
 47
0.0
 47
1.0
 47
0.0
 47
0.0
 47
0.0
 47
0.0
 47
1.0
171
     0
 49
0.0208333333333333
 49
0.0
 49
0.0
 49
0.0
 49
0.0
 49
0.0208333333333333
 49
0.0
 49
0.0
 49
0.0
 49
0.0
 49
1.0
 49
0.0
 49
0.0
 49
0.0
 49
0.0
 49
1.0
175
     0
142
0.0208333333333333
142
0.0
142
0.0
142
0.0
142
0.0
142
0.0208333333333333
142
0.0
142
0.0
142
0.0
142
0.0
142
1.0
142
0.0
142
0.0
142
0.0
142
0.0
142
1.0
179
     0
144
0.0208333333333333
144
0.0
144
0.0
144
0.0
144
0.0
144
0.0208333333333333
144
0.0
144
0.0
144
0.0
144
0.0
144
1.0
144
0.0
144
0.0
144
0.0
144
0.0
144
1.0
147
0.0208333333333333
147
0.0
147
0.0
147
0.0
147
0.0
147
0.0208333333333333
147
0.0
147
0.0
147
0.0
147
0.0
147
1.0
147
0.0
147
0.0
147
0.0
147
0.0
147
1.0
  0
MATERIAL
  5
28F
102
{ACAD_XDICTIONARY
360
290
102
}
102
{ACAD_REACTORS
330
10
102
}
330
10
100
AcDbMaterial
  1
RevitMaterialDefinition18436
 70
     1
 90
-1031765888
 71
     1
 91
-1031765888
 73
     1
 44
0.078125
 76
     1
 45
0.078125
 77
     0
175
     0
145
0.0
  0
MLEADERSTYLE
  5
67
102
{ACAD_XDICTIONARY
360
297
102
}
102
{ACAD_REACTORS
330
66
102
}
330
66
100
AcDbMLeaderStyle
179
     2
170
     2
171
     1
172
     0
 90
        2
 40
0.0
 41
0.0
173
     1
 91
-1056964608
340
5B
 92
       -2
290
     1
 42
0.09
291
     1
 43
0.36
  3
Standard
 44
0.18
300

342
55
174
     1
178
     6
175
     1
176
     0
 93
-1056964608
 45
0.18
292
     0
297
     0
 46
0.18
 94
-1056964608
 47
1.0
 49
1.0
140
1.0
293
     1
141
0.0
294
     1
177
     0
142
1.0
295
     0
296
     0
143
0.125
271
     0
272
     9
273
     9
  0
MLINESTYLE
  5
60
102
{ACAD_REACTORS
330
5F
102
}
330
5F
100
AcDbMlineStyle
  2
STANDARD
 70
     0
  3

 62
   256
 51
90.0
 52
90.0
 71
     2
 49
0.5
 62
   256
  6
BYLAYER
 49
-0.5
 62
   256
  6
BYLAYER
  0
ACDBPLACEHOLDER
  5
F
102
{ACAD_REACTORS
330
E
102
}
330
E
  0
SCALE
  5
43
102
{ACAD_REACTORS
330
42
102
}
330
42
100
AcDbScale
 70
     0
300
1:1
140
1.0
141
1.0
290
     1
  0
SCALE
  5
44
102
{ACAD_REACTORS
330
42
102
}
330
42
100
AcDbScale
 70
     0
300
1/128" = 1'-0"
140
0.0078125
141
12.0
290
     0
  0
SCALE
  5
45
102
{ACAD_REACTORS
330
42
102
}
330
42
100
AcDbScale
 70
     0
300
1/64" = 1'-0"
140
0.015625
141
12.0
290
     0
  0
SCALE
  5
46
102
{ACAD_REACTORS
330
42
102
}
330
42
100
AcDbScale
 70
     0
300
1/32" = 1'-0"
140
0.03125
141
12.0
290
     0
  0
SCALE
  5
47
102
{ACAD_REACTORS
330
42
102
}
330
42
100
AcDbScale
 70
     0
300
1/16" = 1'-0"
140
0.0625
141
12.0
290
     0
  0
SCALE
  5
48
102
{ACAD_REACTORS
330
42
102
}
330
42
100
AcDbScale
 70
     0
300
3/32" = 1'-0"
140
0.09375
141
12.0
290
     0
  0
SCALE
  5
49
102
{ACAD_REACTORS
330
42
102
}
330
42
100
AcDbScale
 70
     0
300
1/8" = 1'-0"
140
0.125
141
12.0
290
     0
  0
SCALE
  5
4A
102
{ACAD_REACTORS
330
42
102
}
330
42
100
AcDbScale
 70
     0
300
3/16" = 1'-0"
140
0.1875
141
12.0
290
     0
  0
SCALE
  5
4B
102
{ACAD_REACTORS
330
42
102
}
330
42
100
AcDbScale
 70
     0
300
1/4" = 1'-0"
140
0.25
141
12.0
290
     0
  0
SCALE
  5
4C
102
{ACAD_REACTORS
330
42
102
}
330
42
100
AcDbScale
 70
     0
300
3/8" = 1'-0"
140
0.375
141
12.0
290
     0
  0
SCALE
  5
4D
102
{ACAD_REACTORS
330
42
102
}
330
42
100
AcDbScale
 70
     0
300
1/2" = 1'-0"
140
0.5
141
12.0
290
     0
  0
SCALE
  5
4E
102
{ACAD_REACTORS
330
42
102
}
330
42
100
AcDbScale
 70
     0
300
3/4" = 1'-0"
140
0.75
141
12.0
290
     0
  0
SCALE
  5
4F
102
{ACAD_REACTORS
330
42
102
}
330
42
100
AcDbScale
 70
     0
300
1" = 1'-0"
140
1.0
141
12.0
290
     0
  0
SCALE
  5
50
102
{ACAD_REACTORS
330
42
102
}
330
42
100
AcDbScale
 70
     0
300
1-1/2" = 1'-0"
140
1.5
141
12.0
290
     0
  0
SCALE
  5
51
102
{ACAD_REACTORS
330
42
102
}
330
42
100
AcDbScale
 70
     0
300
3" = 1'-0"
140
3.0
141
12.0
290
     0
  0
SCALE
  5
52
102
{ACAD_REACTORS
330
42
102
}
330
42
100
AcDbScale
 70
     0
300
6" = 1'-0"
140
6.0
141
12.0
290
     0
  0
SCALE
  5
53
102
{ACAD_REACTORS
330
42
102
}
330
42
100
AcDbScale
 70
     0
300
1'-0" = 1'-0"
140
12.0
141
12.0
290
     0
  0
TABLESTYLE
  5
65
102
{ACAD_XDICTIONARY
360
295
102
}
102
{ACAD_REACTORS
330
64
102
}
330
64
100
AcDbTableStyle
280
     0
  3
Standard
 70
     0
 71
     0
 40
0.06
 41
0.06
280
     0
281
     0
  7
Standard
140
0.18
170
     2
 62
     0
 63
     7
283
     0
 90
      512
 91
        0
  1

274
    -2
284
     1
 64
     0
275
    -2
285
     1
 65
     0
276
    -2
286
     1
 66
     0
277
    -2
287
     1
 67
     0
278
    -2
288
     1
 68
     0
279
    -2
289
     1
 69
     0
  7
Standard
140
0.25
170
     5
 62
     0
 63
     7
283
     0
 90
      512
 91
        0
  1

274
    -2
284
     1
 64
     0
275
    -2
285
     1
 65
     0
276
    -2
286
     1
 66
     0
277
    -2
287
     1
 67
     0
278
    -2
288
     1
 68
     0
279
    -2
289
     1
 69
     0
  7
Standard
140
0.18
170
     5
 62
     0
 63
     7
283
     0
 90
      512
 91
        0
  1

274
    -2
284
     1
 64
     0
275
    -2
285
     1
 65
     0
276
    -2
286
     1
 66
     0
277
    -2
287
     1
 67
     0
278
    -2
288
     1
 68
     0
279
    -2
289
     1
 69
     0
  0
VISUALSTYLE
  5
2F
102
{ACAD_REACTORS
330
29
102
}
330
29
100
AcDbVisualStyle
  2
2dWireframe
 70
     4
177
     2
291
     0
 71
     0
176
     1
 72
     2
176
     1
 73
     0
176
     1
 90
        0
176
     1
 40
0.6
176
     1
 41
30.0
176
     1
 63
     7
421
 16777215
176
     1
 74
     1
176
     1
 91
        4
176
     1
 64
     7
176
     1
 65
   257
176
     1
 75
     1
176
     1
175
     1
176
     1
 42
1.0
176
     1
 92
        0
176
     1
 66
   257
176
     1
 43
1.0
176
     1
 76
     1
176
     1
 77
     6
176
     1
 78
     2
176
     1
 67
     7
176
     1
 79
     5
176
     1
170
     0
176
     1
171
     0
176
     1
290
     0
176
     1
 93
        1
176
     1
 44
0.0
176
     1
173
     0
176
     1
  0
VISUALSTYLE
  5
2E
102
{ACAD_REACTORS
330
29
102
}
330
29
100
AcDbVisualStyle
  2
Basic
 70
     7
177
     2
291
     1
 71
     1
176
     1
 72
     0
176
     1
 73
     1
176
     1
 90
        0
176
     1
 40
0.6
176
     1
 41
30.0
176
     1
 63
     7
421
 16777215
176
     1
 74
     0
176
     1
 91
        4
176
     1
 64
     7
176
     1
 65
   257
176
     1
 75
     1
176
     1
175
     1
176
     1
 42
1.0
176
     1
 92
        8
176
     1
 66
     7
176
     1
 43
1.0
176
     1
 76
     1
176
     1
 77
     6
176
     1
 78
     2
176
     1
 67
     7
176
     1
 79
     5
176
     1
170
     0
176
     1
171
     0
176
     1
290
     0
176
     1
 93
        1
176
     1
 44
0.0
176
     1
173
     0
176
     1
  0
VISUALSTYLE
  5
35
102
{ACAD_REACTORS
330
29
102
}
330
29
100
AcDbVisualStyle
  2
Brighten
 70
    12
177
     2
291
     1
 71
     2
176
     1
 72
     2
176
     1
 73
     0
176
     1
 90
        0
176
     1
 40
0.6
176
     1
 41
30.0
176
     1
 63
     7
421
 16777215
176
     1
 74
     1
176
     1
 91
        4
176
     1
 64
     7
176
     1
 65
   257
176
     1
 75
     1
176
     1
175
     1
176
     1
 42
1.0
176
     1
 92
        8
176
     1
 66
     7
176
     1
 43
1.0
176
     1
 76
     1
176
     1
 77
     6
176
     1
 78
     2
176
     1
 67
     7
176
     1
 79
     5
176
     1
170
     0
176
     1
171
     0
176
     1
290
     0
176
     1
 93
        1
176
     1
 44
50.0
176
     1
173
     0
176
     1
  0
VISUALSTYLE
  5
39
102
{ACAD_REACTORS
330
29
102
}
330
29
100
AcDbVisualStyle
  2
ColorChange
 70
    16
177
     2
291
     1
 71
     2
176
     1
 72
     2
176
     1
 73
     3
176
     1
 90
        0
176
     1
 40
0.6
176
     1
 41
30.0
176
     1
 63
     8
421
  8421504
176
     1
 74
     1
176
     1
 91
        4
176
     1
 64
     7
176
     1
 65
   257
176
     1
 75
     1
176
     1
175
     1
176
     1
 42
1.0
176
     1
 92
        8
176
     1
 66
     8
424
  8421504
176
     1
 43
1.0
176
     1
 76
     1
176
     1
 77
     6
176
     1
 78
     2
176
     1
 67
     7
176
     1
 79
     5
176
     1
170
     0
176
     1
171
     0
176
     1
290
     0
176
     1
 93
        1
176
     1
 44
0.0
176
     1
173
     0
176
     1
  0
VISUALSTYLE
  5
32
102
{ACAD_REACTORS
330
29
102
}
330
29
100
AcDbVisualStyle
  2
Conceptual
 70
     9
177
     2
291
     0
 71
     3
176
     1
 72
     2
176
     1
 73
     0
176
     1
 90
        0
176
     1
 40
0.6
176
     1
 41
30.0
176
     1
 63
     7
421
 16777215
176
     1
 74
     2
176
     1
 91
        2
176
     1
 64
     7
176
     1
 65
   257
176
     1
 75
     1
176
     1
175
     1
176
     1
 42
179.0
176
     1
 92
        8
176
     1
 66
     7
176
     1
 43
1.0
176
     1
 76
     1
176
     1
 77
     6
176
     1
 78
     2
176
     1
 67
     7
176
     1
 79
     3
176
     1
170
     0
176
     1
171
     0
176
     1
290
     0
176
     1
 93
        1
176
     1
 44
0.0
176
     1
173
     0
176
     1
  0
VISUALSTYLE
  5
34
102
{ACAD_REACTORS
330
29
102
}
330
29
100
AcDbVisualStyle
  2
Dim
 70
    11
177
     2
291
     1
 71
     2
176
     1
 72
     2
176
     1
 73
     0
176
     1
 90
        0
176
     1
 40
0.6
176
     1
 41
30.0
176
     1
 63
     7
421
 16777215
176
     1
 74
     1
176
     1
 91
        4
176
     1
 64
     7
176
     1
 65
   257
176
     1
 75
     1
176
     1
175
     1
176
     1
 42
1.0
176
     1
 92
        8
176
     1
 66
     7
176
     1
 43
1.0
176
     1
 76
     1
176
     1
 77
     6
176
     1
 78
     2
176
     1
 67
     7
176
     1
 79
     5
176
     1
170
     0
176
     1
171
     0
176
     1
290
     0
176
     1
 93
        1
176
     1
 44
-50.0
176
     1
173
     0
176
     1
  0
VISUALSTYLE
  5
41
102
{ACAD_REACTORS
330
29
102
}
330
29
100
AcDbVisualStyle
  2
EdgeColorOff
 70
    22
177
     2
291
     1
 71
     2
176
     0
 72
     2
176
     0
 73
     0
176
     0
 90
        0
176
     0
 40
0.6
176
     0
 41
30.0
176
     0
 63
     7
421
 16777215
176
     0
 74
     1
176
     0
 91
        4
176
     0
 64
     7
176
     0
 65
   257
176
     0
 75
     1
176
     0
175
     1
176
     0
 42
1.0
176
     0
 92
        8
176
     2
 66
     7
176
     0
 43
1.0
176
     0
 76
     1
176
     0
 77
     6
176
     0
 78
     2
176
     0
 67
     7
176
     0
 79
     5
176
     0
170
     0
176
     0
171
     0
176
     0
290
     0
176
     0
 93
        1
176
     0
 44
0.0
176
     0
173
     0
176
     0
  0
VISUALSTYLE
  5
38
102
{ACAD_REACTORS
330
29
102
}
330
29
100
AcDbVisualStyle
  2
Facepattern
 70
    15
177
     2
291
     1
 71
     2
176
     1
 72
     2
176
     1
 73
     0
176
     1
 90
        0
176
     1
 40
0.6
176
     1
 41
30.0
176
     1
 63
     7
421
 16777215
176
     1
 74
     1
176
     1
 91
        4
176
     1
 64
     7
176
     1
 65
   257
176
     1
 75
     1
176
     1
175
     1
176
     1
 42
1.0
176
     1
 92
        8
176
     1
 66
     7
176
     1
 43
1.0
176
     1
 76
     1
176
     1
 77
     6
176
     1
 78
     2
176
     1
 67
     7
176
     1
 79
     5
176
     1
170
     0
176
     1
171
     0
176
     1
290
     0
176
     1
 93
        1
176
     1
 44
0.0
176
     1
173
     0
176
     1
  0
VISUALSTYLE
  5
2A
102
{ACAD_REACTORS
330
29
102
}
330
29
100
AcDbVisualStyle
  2
Flat
 70
     0
177
     2
291
     1
 71
     2
176
     1
 72
     1
176
     1
 73
     1
176
     1
 90
        2
176
     1
 40
0.6
176
     1
 41
30.0
176
     1
 63
     7
421
 16777215
176
     1
 74
     0
176
     1
 91
        0
176
     1
 64
     7
176
     1
 65
   257
176
     1
 75
     1
176
     1
175
     1
176
     1
 42
1.0
176
     1
 92
        8
176
     1
 66
     7
176
     1
 43
1.0
176
     1
 76
     1
176
     1
 77
     6
176
     1
 78
     2
176
     1
 67
     7
176
     1
 79
     5
176
     1
170
     0
176
     1
171
     0
176
     1
290
     0
176
     1
 93
       13
176
     1
 44
0.0
176
     1
173
     0
176
     1
  0
VISUALSTYLE
  5
2B
102
{ACAD_REACTORS
330
29
102
}
330
29
100
AcDbVisualStyle
  2
FlatWithEdges
 70
     1
177
     2
291
     1
 71
     2
176
     1
 72
     1
176
     1
 73
     1
176
     1
 90
        2
176
     1
 40
0.6
176
     1
 41
30.0
176
     1
 63
     7
421
 16777215
176
     1
 74
     1
176
     1
 91
        0
176
     1
 64
     7
176
     1
 65
   257
176
     1
 75
     1
176
     1
175
     1
176
     1
 42
1.0
176
     1
 92
        0
176
     1
 66
   257
176
     1
 43
1.0
176
     1
 76
     1
176
     1
 77
     6
176
     1
 78
     2
176
     1
 67
     7
176
     1
 79
     5
176
     1
170
     0
176
     1
171
     0
176
     1
290
     0
176
     1
 93
       13
176
     1
 44
0.0
176
     1
173
     0
176
     1
  0
VISUALSTYLE
  5
2C
102
{ACAD_REACTORS
330
29
102
}
330
29
100
AcDbVisualStyle
  2
Gouraud
 70
     2
177
     2
291
     1
 71
     2
176
     1
 72
     2
176
     1
 73
     1
176
     1
 90
        2
176
     1
 40
0.6
176
     1
 41
30.0
176
     1
 63
     7
421
 16777215
176
     1
 74
     0
176
     1
 91
        0
176
     1
 64
     7
176
     1
 65
   257
176
     1
 75
     1
176
     1
175
     1
176
     1
 42
1.0
176
     1
 92
        0
176
     1
 66
     7
176
     1
 43
1.0
176
     1
 76
     1
176
     1
 77
     6
176
     1
 78
     2
176
     1
 67
     7
176
     1
 79
     5
176
     1
170
     0
176
     1
171
     0
176
     1
290
     0
176
     1
 93
       13
176
     1
 44
0.0
176
     1
173
     0
176
     1
  0
VISUALSTYLE
  5
2D
102
{ACAD_REACTORS
330
29
102
}
330
29
100
AcDbVisualStyle
  2
GouraudWithEdges
 70
     3
177
     2
291
     1
 71
     2
176
     1
 72
     2
176
     1
 73
     1
176
     1
 90
        2
176
     1
 40
0.6
176
     1
 41
30.0
176
     1
 63
     7
421
 16777215
176
     1
 74
     1
176
     1
 91
        0
176
     1
 64
     7
176
     1
 65
   257
176
     1
 75
     1
176
     1
175
     1
176
     1
 42
1.0
176
     1
 92
        0
176
     1
 66
   257
176
     1
 43
1.0
176
     1
 76
     1
176
     1
 77
     6
176
     1
 78
     2
176
     1
 67
     7
176
     1
 79
     5
176
     1
170
     0
176
     1
171
     0
176
     1
290
     0
176
     1
 93
       13
176
     1
 44
0.0
176
     1
173
     0
176
     1
  0
VISUALSTYLE
  5
31
102
{ACAD_REACTORS
330
29
102
}
330
29
100
AcDbVisualStyle
  2
Hidden
 70
     6
177
     2
291
     0
 71
     1
176
     1
 72
     2
176
     1
 73
     2
176
     1
 90
        0
176
     1
 40
0.6
176
     1
 41
30.0
176
     1
 63
     7
421
 16777215
176
     1
 74
     2
176
     1
 91
        2
176
     1
 64
     7
176
     1
 65
   257
176
     1
 75
     2
176
     1
175
     1
176
     1
 42
40.0
176
     1
 92
        0
176
     1
 66
   257
176
     1
 43
1.0
176
     1
 76
     1
176
     1
 77
     6
176
     1
 78
     2
176
     1
 67
     7
176
     1
 79
     3
176
     1
170
     0
176
     1
171
     0
176
     1
290
     0
176
     1
 93
        1
176
     1
 44
0.0
176
     1
173
     0
176
     1
  0
VISUALSTYLE
  5
3F
102
{ACAD_REACTORS
330
29
102
}
330
29
100
AcDbVisualStyle
  2
JitterOff
 70
    20
177
     2
291
     1
 71
     2
176
     0
 72
     2
176
     0
 73
     0
176
     0
 90
        0
176
     0
 40
0.6
176
     0
 41
30.0
176
     0
 63
     7
421
 16777215
176
     0
 74
     1
176
     0
 91
        4
176
     0
 64
     7
176
     0
 65
   257
176
     0
 75
     1
176
     0
175
     1
176
     0
 42
1.0
176
     0
 92
       10
176
     2
 66
     7
176
     0
 43
1.0
176
     0
 76
     1
176
     0
 77
     6
176
     0
 78
     2
176
     0
 67
     7
176
     0
 79
     5
176
     0
170
     0
176
     0
171
     0
176
     0
290
     0
176
     0
 93
        1
176
     0
 44
0.0
176
     0
173
     0
176
     0
  0
VISUALSTYLE
  5
37
102
{ACAD_REACTORS
330
29
102
}
330
29
100
AcDbVisualStyle
  2
Linepattern
 70
    14
177
     2
291
     1
 71
     2
176
     1
 72
     2
176
     1
 73
     0
176
     1
 90
        0
176
     1
 40
0.6
176
     1
 41
30.0
176
     1
 63
     7
421
 16777215
176
     1
 74
     1
176
     1
 91
        4
176
     1
 64
     7
176
     1
 65
   257
176
     1
 75
     7
176
     1
175
     7
176
     1
 42
1.0
176
     1
 92
        8
176
     1
 66
     7
176
     1
 43
1.0
176
     1
 76
     1
176
     1
 77
     6
176
     1
 78
     2
176
     1
 67
     7
176
     1
 79
     5
176
     1
170
     0
176
     1
171
     0
176
     1
290
     0
176
     1
 93
        1
176
     1
 44
0.0
176
     1
173
     0
176
     1
  0
VISUALSTYLE
  5
40
102
{ACAD_REACTORS
330
29
102
}
330
29
100
AcDbVisualStyle
  2
OverhangOff
 70
    21
177
     2
291
     1
 71
     2
176
     0
 72
     2
176
     0
 73
     0
176
     0
 90
        0
176
     0
 40
0.6
176
     0
 41
30.0
176
     0
 63
     7
421
 16777215
176
     0
 74
     1
176
     0
 91
        4
176
     0
 64
     7
176
     0
 65
   257
176
     0
 75
     1
176
     0
175
     1
176
     0
 42
1.0
176
     0
 92
        9
176
     2
 66
     7
176
     0
 43
1.0
176
     0
 76
     1
176
     0
 77
     6
176
     0
 78
     2
176
     0
 67
     7
176
     0
 79
     5
176
     0
170
     0
176
     0
171
     0
176
     0
290
     0
176
     0
 93
        1
176
     0
 44
0.0
176
     0
173
     0
176
     0
  0
VISUALSTYLE
  5
33
102
{ACAD_REACTORS
330
29
102
}
330
29
100
AcDbVisualStyle
  2
Realistic
 70
     8
177
     2
291
     0
 71
     2
176
     1
 72
     3
176
     1
 73
     0
176
     1
 90
        2
176
     1
 40
0.6
176
     1
 41
30.0
176
     1
 63
     7
421
 16777215
176
     1
 74
     0
176
     1
 91
        0
176
     1
 64
     7
176
     1
 65
   257
176
     1
 75
     1
176
     1
175
     1
176
     1
 42
1.0
176
     1
 92
        8
176
     1
 66
   257
176
     1
 43
1.0
176
     1
 76
     1
176
     1
 77
     6
176
     1
 78
     2
176
     1
 67
     7
176
     1
 79
     3
176
     1
170
     0
176
     1
171
     0
176
     1
290
     0
176
     1
 93
       13
176
     1
 44
0.0
176
     1
173
     0
176
     1
  0
VISUALSTYLE
  5
3E
102
{ACAD_REACTORS
330
29
102
}
330
29
100
AcDbVisualStyle
  2
Shaded
 70
    27
177
     2
291
     0
 71
     2
176
     1
 72
     2
176
     1
 73
     1
176
     1
 90
        2
176
     1
 40
0.6
176
     1
 41
30.0
176
     1
 63
     7
421
 16777215
176
     1
 74
     0
176
     1
 91
        4
176
     1
 64
     7
176
     1
 65
   257
176
     1
 75
     1
176
     1
175
     1
176
     1
 42
1.0
176
     1
 92
        8
176
     1
 66
   257
176
     1
 43
1.0
176
     1
 76
     1
176
     1
 77
     6
176
     1
 78
     2
176
     1
 67
     8
425
  7895160
176
     1
 79
     3
176
     1
170
     0
176
     1
171
     0
176
     1
290
     0
176
     1
 93
        5
176
     1
 44
0.0
176
     1
173
     0
176
     1
  0
VISUALSTYLE
  5
3D
102
{ACAD_REACTORS
330
29
102
}
330
29
100
AcDbVisualStyle
  2
Shaded with edges
 70
    26
177
     2
291
     0
 71
     2
176
     1
 72
     2
176
     1
 73
     1
176
     1
 90
        2
176
     1
 40
0.6
176
     1
 41
30.0
176
     1
 63
     7
421
 16777215
176
     1
 74
     1
176
     1
 91
       10
176
     1
 64
     7
176
     1
 65
   257
176
     1
 75
     2
176
     1
175
     1
176
     1
 42
1.0
176
     1
 92
        8
176
     1
 66
   257
176
     1
 43
1.0
176
     1
 76
     1
176
     1
 77
     6
176
     1
 78
     2
176
     1
 67
     7
176
     1
 79
     3
176
     1
170
     0
176
     1
171
     0
176
     1
290
     0
176
     1
 93
        5
176
     1
 44
0.0
176
     1
173
     0
176
     1
  0
VISUALSTYLE
  5
3A
102
{ACAD_REACTORS
330
29
102
}
330
29
100
AcDbVisualStyle
  2
Shades of Gray
 70
    23
177
     2
291
     0
 71
     2
176
     1
 72
     2
176
     1
 73
     3
176
     1
 90
        0
176
     1
 40
0.6
176
     1
 41
30.0
176
     1
 63
     7
421
 16777215
176
     1
 74
     2
176
     1
 91
        2
176
     1
 64
     7
176
     1
 65
     7
176
     1
 75
     1
176
     1
175
     1
176
     1
 42
40.0
176
     1
 92
        8
176
     1
 66
     7
176
     1
 43
1.0
176
     1
 76
     1
176
     1
 77
     6
176
     1
 78
     2
176
     1
 67
     7
176
     1
 79
     3
176
     1
170
     0
176
     1
171
     0
176
     1
290
     0
176
     1
 93
        1
176
     1
 44
0.0
176
     1
173
     0
176
     1
  0
VISUALSTYLE
  5
3B
102
{ACAD_REACTORS
330
29
102
}
330
29
100
AcDbVisualStyle
  2
Sketchy
 70
    24
177
     2
291
     0
 71
     1
176
     1
 72
     2
176
     1
 73
     2
176
     1
 90
        0
176
     1
 40
0.6
176
     1
 41
30.0
176
     1
 63
     7
421
 16777215
176
     1
 74
     2
176
     1
 91
        2
176
     1
 64
     7
176
     1
 65
     7
176
     1
 75
     1
176
     1
175
     1
176
     1
 42
40.0
176
     1
 92
       11
176
     1
 66
     7
176
     1
 43
1.0
176
     1
 76
     1
176
     1
 77
     6
176
     1
 78
     2
176
     1
 67
     7
176
     1
 79
     6
176
     1
170
     0
176
     1
171
     0
176
     1
290
     0
176
     1
 93
        1
176
     1
 44
0.0
176
     1
173
     0
176
     1
  0
VISUALSTYLE
  5
36
102
{ACAD_REACTORS
330
29
102
}
330
29
100
AcDbVisualStyle
  2
Thicken
 70
    13
177
     2
291
     1
 71
     2
176
     1
 72
     2
176
     1
 73
     0
176
     1
 90
        0
176
     1
 40
0.6
176
     1
 41
30.0
176
     1
 63
     7
421
 16777215
176
     1
 74
     1
176
     1
 91
        4
176
     1
 64
     7
176
     1
 65
   257
176
     1
 75
     1
176
     1
175
     1
176
     1
 42
1.0
176
     1
 92
       12
176
     1
 66
     7
176
     1
 43
1.0
176
     1
 76
     1
176
     1
 77
     6
176
     1
 78
     2
176
     1
 67
     7
176
     1
 79
     5
176
     1
170
     0
176
     1
171
     0
176
     1
290
     0
176
     1
 93
        1
176
     1
 44
0.0
176
     1
173
     0
176
     1
  0
VISUALSTYLE
  5
30
102
{ACAD_REACTORS
330
29
102
}
330
29
100
AcDbVisualStyle
  2
Wireframe
 70
     5
177
     2
291
     0
 71
     0
176
     1
 72
     2
176
     1
 73
     0
176
     1
 90
        0
176
     1
 40
0.6
176
     1
 41
30.0
176
     1
 63
     7
421
 16777215
176
     1
 74
     1
176
     1
 91
        4
176
     1
 64
     7
176
     1
 65
   257
176
     1
 75
     1
176
     1
175
     1
176
     1
 42
1.0
176
     1
 92
        0
176
     1
 66
   257
176
     1
 43
1.0
176
     1
 76
     1
176
     1
 77
     6
176
     1
 78
     2
176
     1
 67
     7
176
     1
 79
     3
176
     1
170
     0
176
     1
171
     0
176
     1
290
     0
176
     1
 93
        1
176
     1
 44
0.0
176
     1
173
     0
176
     1
  0
VISUALSTYLE
  5
3C
102
{ACAD_REACTORS
330
29
102
}
330
29
100
AcDbVisualStyle
  2
X-Ray
 70
    25
177
     2
291
     0
 71
     2
176
     1
 72
     2
176
     1
 73
     1
176
     1
 90
        1
176
     1
 40
0.5
176
     1
 41
30.0
176
     1
 63
     7
421
 16777215
176
     1
 74
     1
176
     1
 91
        0
176
     1
 64
     7
176
     1
 65
   257
176
     1
 75
     1
176
     1
175
     1
176
     1
 42
1.0
176
     1
 92
        8
176
     1
 66
     7
176
     1
 43
1.0
176
     1
 76
     1
176
     1
 77
     6
176
     1
 78
     2
176
     1
 67
     7
176
     1
 79
     3
176
     1
170
     0
176
     1
171
     0
176
     1
290
     0
176
     1
 93
       13
176
     1
 44
0.0
176
     1
173
     0
176
     1
  0
DICTIONARYVAR
  5
7A
102
{ACAD_REACTORS
330
77
102
}
330
77
100
DictionaryVariables
280
     0
  1
1:1
  0
DICTIONARYVAR
  5
79
102
{ACAD_REACTORS
330
77
102
}
330
77
100
DictionaryVariables
280
     0
  1
STANDARD
  0
DICTIONARYVAR
  5
78
102
{ACAD_REACTORS
330
77
102
}
330
77
100
DictionaryVariables
280
     0
  1
STANDARD
  0
XRECORD
  5
294
102
{ACAD_REACTORS
330
28C
102
}
330
28C
100
AcDbXrecord
280
     1
  1
BUILDING_ID
  1
justfloor
  1
FLOOR_ID
  1
161182
  0
XRECORD
  5
293
102
{ACAD_REACTORS
330
28C
102
}
330
28C
100
AcDbXrecord
280
     1
  1
-2000032
  1
Floors
  0
XRECORD
  5
28D
102
{ACAD_REACTORS
330
28C
102
}
330
28C
100
AcDbXrecord
280
     1
  1
a3b71895-7a39-443f-90fb-ee0f193fc250
  0
XRECORD
  5
292
102
{ACAD_REACTORS
330
28C
102
}
330
28C
100
AcDbXrecord
280
     1
  1
226
  1
Floor : Generic - 12"
  0
DICTIONARY
  5
1A
330
19
100
AcDbDictionary
280
     1
281
     1
  3
BUMPTILE
360
1C
  3
DIFFUSETILE
360
1B
  3
OPACITYTILE
360
1F
  3
REFLECTIONTILE
360
1E
  3
REFRACTIONTILE
360
20
  3
SPECULARTILE
360
1D
  0
DICTIONARY
  5
12
330
11
100
AcDbDictionary
280
     1
281
     1
  3
BUMPTILE
360
14
  3
DIFFUSETILE
360
13
  3
OPACITYTILE
360
17
  3
REFLECTIONTILE
360
16
  3
REFRACTIONTILE
360
18
  3
SPECULARTILE
360
15
  0
DICTIONARY
  5
22
330
21
100
AcDbDictionary
280
     1
281
     1
  3
BUMPTILE
360
24
  3
DIFFUSETILE
360
23
  3
OPACITYTILE
360
27
  3
REFLECTIONTILE
360
26
  3
REFRACTIONTILE
360
28
  3
SPECULARTILE
360
25
  0
DICTIONARY
  5
290
330
28F
100
AcDbDictionary
280
     1
281
     1
  3
VIZ XML Material Definition
360
291
  0
DICTIONARY
  5
297
330
67
100
AcDbDictionary
280
     1
281
     1
  3
ACAD_XREC_ROUNDTRIP
360
298
  0
DICTIONARY
  5
295
330
65
100
AcDbDictionary
280
     1
281
     1
  3
ACAD_ROUNDTRIP_2008_TABLESTYLE_CELLSTYLEMAP
360
296
  0
XRECORD
  5
1C
102
{ACAD_REACTORS
330
1A
102
}
330
1A
100
AcDbXrecord
280
     1
270
     1
271
     1
  0
XRECORD
  5
1B
102
{ACAD_REACTORS
330
1A
102
}
330
1A
100
AcDbXrecord
280
     1
270
     1
271
     1
  0
XRECORD
  5
1F
102
{ACAD_REACTORS
330
1A
102
}
330
1A
100
AcDbXrecord
280
     1
270
     1
271
     1
  0
XRECORD
  5
1E
102
{ACAD_REACTORS
330
1A
102
}
330
1A
100
AcDbXrecord
280
     1
270
     1
271
     1
  0
XRECORD
  5
20
102
{ACAD_REACTORS
330
1A
102
}
330
1A
100
AcDbXrecord
280
     1
270
     1
271
     1
  0
XRECORD
  5
1D
102
{ACAD_REACTORS
330
1A
102
}
330
1A
100
AcDbXrecord
280
     1
270
     1
271
     1
  0
XRECORD
  5
14
102
{ACAD_REACTORS
330
12
102
}
330
12
100
AcDbXrecord
280
     1
270
     1
271
     1
  0
XRECORD
  5
13
102
{ACAD_REACTORS
330
12
102
}
330
12
100
AcDbXrecord
280
     1
270
     1
271
     1
  0
XRECORD
  5
17
102
{ACAD_REACTORS
330
12
102
}
330
12
100
AcDbXrecord
280
     1
270
     1
271
     1
  0
XRECORD
  5
16
102
{ACAD_REACTORS
330
12
102
}
330
12
100
AcDbXrecord
280
     1
270
     1
271
     1
  0
XRECORD
  5
18
102
{ACAD_REACTORS
330
12
102
}
330
12
100
AcDbXrecord
280
     1
270
     1
271
     1
  0
XRECORD
  5
15
102
{ACAD_REACTORS
330
12
102
}
330
12
100
AcDbXrecord
280
     1
270
     1
271
     1
  0
XRECORD
  5
24
102
{ACAD_REACTORS
330
22
102
}
330
22
100
AcDbXrecord
280
     1
270
     1
271
     1
  0
XRECORD
  5
23
102
{ACAD_REACTORS
330
22
102
}
330
22
100
AcDbXrecord
280
     1
270
     1
271
     1
  0
XRECORD
  5
27
102
{ACAD_REACTORS
330
22
102
}
330
22
100
AcDbXrecord
280
     1
270
     1
271
     1
  0
XRECORD
  5
26
102
{ACAD_REACTORS
330
22
102
}
330
22
100
AcDbXrecord
280
     1
270
     1
271
     1
  0
XRECORD
  5
28
102
{ACAD_REACTORS
330
22
102
}
330
22
100
AcDbXrecord
280
     1
270
     1
271
     1
  0
XRECORD
  5
25
102
{ACAD_REACTORS
330
22
102
}
330
22
100
AcDbXrecord
280
     1
270
     1
271
     1
  0
XRECORD
  5
291
102
{ACAD_REACTORS
330
290
102
}
330
290
100
AcDbXrecord
280
     1
300
<Material id="RevitMaterialDefinition18436" app="REVIT" Background="0" Backlight="1" Sample="0" Tiling="0">^J<LinearUnits unitType="foot" unitScale="1.0"/>^J<ArchitecturalMaterial name="Default Floor">^J<ArchTemplateParameters name="Default Floor" classid_A=
300
"2008828122" classid_B="14503598">^J</ArchTemplateParameters>^J<ArchMatParameters>^J<ArchDiffuseColor>^J<RGBf r="0.5020" g="0.5020" b="0.5020"/>^J</ArchDiffuseColor>^J<ArchIndexOfRefraction>1.0781</ArchIndexOfRefraction>^J<ArchTransparency>0.0000</ArchTransparen
300
cy>^J<ArchLuminance>0.0000</ArchLuminance>^J</ArchMatParameters>^J</ArchitecturalMaterial>^J</Material>^J
  0
XRECORD
  5
298
102
{ACAD_REACTORS
330
297
102
}
330
297
100
AcDbXrecord
280
     1
102
ACAD_ROUNDTRIP_2012_MLEADER_STYLE
298
     1
  0
CELLSTYLEMAP
  5
296
102
{ACAD_REACTORS
330
295
102
}
330
295
100
AcDbCellStyleMap
 90
        3
300
CELLSTYLE
  1
TABLEFORMAT_BEGIN
 90
        5
170
     1
 91
        0
 92
    32768
 62
   257
 93
        1
300
CONTENTFORMAT
  1
CONTENTFORMAT_BEGIN
 90
        0
 91
        0
 92
      512
 93
        0
300

 40
0.0
140
1.0
 94
        5
 62
     0
340
55
144
0.25
309
CONTENTFORMAT_END
171
     0
 94
        0
309
TABLEFORMAT_END
  1
CELLSTYLE_BEGIN
 90
        1
 91
        1
300
_TITLE
309
CELLSTYLE_END
300
CELLSTYLE
  1
TABLEFORMAT_BEGIN
 90
        5
170
     1
 91
        0
 92
        0
 62
   257
 93
        1
300
CONTENTFORMAT
  1
CONTENTFORMAT_BEGIN
 90
        0
 91
        0
 92
      512
 93
        0
300

 40
0.0
140
1.0
 94
        5
 62
     0
340
55
144
0.18
309
CONTENTFORMAT_END
171
     0
 94
        0
309
TABLEFORMAT_END
  1
CELLSTYLE_BEGIN
 90
        2
 91
        1
300
_HEADER
309
CELLSTYLE_END
300
CELLSTYLE
  1
TABLEFORMAT_BEGIN
 90
        5
170
     1
 91
        0
 92
        0
 62
   257
 93
        1
300
CONTENTFORMAT
  1
CONTENTFORMAT_BEGIN
 90
        0
 91
        0
 92
      512
 93
        0
300

 40
0.0
140
1.0
 94
        2
 62
     0
340
55
144
0.18
309
CONTENTFORMAT_END
171
     0
 94
        0
309
TABLEFORMAT_END
  1
CELLSTYLE_BEGIN
 90
        3
 91
        2
300
_DATA
309
CELLSTYLE_END
  0
ENDSEC
  0
EOF
